# This file uses centimeters as units for non-parametric coordinates.

mtllib 17_CityB_Menu_Sign_v1.mtl
g default
v -0.766338 0.148079 0.481467
v -0.766338 0.148079 0.605496
v -0.766338 2.148079 -0.000194
v -0.766338 2.148079 0.123836
v 0.766338 2.148079 -0.000194
v 0.766338 2.148079 0.123836
v 0.766338 0.148079 0.481467
v 0.766338 0.148079 0.605496
v 0.620003 2.148079 0.123836
v 0.620003 2.148079 -0.000194
v 0.620003 0.148079 0.481467
v 0.620003 0.148079 0.605496
v -0.620003 2.148079 0.123836
v -0.620003 2.148079 -0.000194
v -0.620003 0.148079 0.481467
v -0.620003 0.148079 0.605496
v -0.766338 0.148079 -0.511651
v -0.766338 0.148079 -0.387622
v -0.766338 2.148079 -0.123836
v -0.766338 2.148079 0.000193
v 0.766338 2.148079 -0.123837
v 0.766338 2.148079 0.000193
v 0.766338 0.148079 -0.511651
v 0.766338 0.148079 -0.387622
v 0.620003 2.148079 0.000193
v 0.620003 2.148079 -0.123837
v 0.620003 0.148079 -0.511651
v 0.620003 0.148079 -0.387622
v -0.620003 2.148079 0.000193
v -0.620003 2.148079 -0.123837
v -0.620003 0.148079 -0.511651
v -0.620003 0.148079 -0.387622
v -0.620003 0.000000 0.515933
v -0.620003 0.000000 0.639962
v -0.766338 0.000000 0.639962
v -0.766338 0.000000 0.515933
v 0.766338 0.000000 0.515933
v 0.766338 0.000000 0.639962
v 0.620003 0.000000 0.639962
v 0.620003 0.000000 0.515933
v -0.616868 0.000000 -0.549773
v -0.616868 0.000000 -0.425744
v -0.763203 0.000000 -0.425744
v -0.763203 0.000000 -0.549773
v 0.763737 0.000000 -0.549773
v 0.763737 0.000000 -0.425744
v 0.617403 0.000000 -0.425744
v 0.617403 0.000000 -0.549773
vt 0.282836 0.032660
vt 0.313198 0.032660
vt 0.313198 0.447620
vt 0.282836 0.447620
vt 0.282836 0.001936
vt 0.313198 0.001936
vt 0.570474 0.032660
vt 0.570474 0.447620
vt 0.600836 0.032660
vt 0.600836 0.447620
vt 0.570474 0.001936
vt 0.600836 0.001936
vt 0.895949 0.032660
vt 0.926311 0.032660
vt 0.926311 0.447620
vt 0.895949 0.447620
vt 0.895949 0.001936
vt 0.926311 0.001936
vt 0.638673 0.032660
vt 0.638673 0.447620
vt 0.608311 0.032660
vt 0.608311 0.447620
vt 0.608311 0.001936
vt 0.638673 0.001936
vt 0.439524 0.482335
vt 0.469885 0.482335
vt 0.469885 0.897295
vt 0.439524 0.897295
vt 0.440174 0.451612
vt 0.470536 0.451612
vt 0.727162 0.482335
vt 0.727162 0.897295
vt 0.757523 0.482335
vt 0.757523 0.897295
vt 0.726622 0.451612
vt 0.756984 0.451612
vt 0.403027 0.482335
vt 0.433388 0.482335
vt 0.433388 0.897295
vt 0.403027 0.897295
vt 0.402376 0.451612
vt 0.432738 0.451612
vt 0.145750 0.482335
vt 0.145750 0.897295
vt 0.115389 0.482335
vt 0.115389 0.897295
vt 0.115928 0.451612
vt 0.146290 0.451612
vt 0.083519 0.451612
vt 0.109253 0.451612
vt 0.109253 0.481973
vt 0.083519 0.481973
vt 0.109253 0.739250
vt 0.083519 0.739250
vt 0.109253 0.769611
vt 0.083519 0.769611
vt 0.183439 0.901287
vt 0.209173 0.901287
vt 0.209173 0.931648
vt 0.183439 0.931648
vt 0.216571 0.901287
vt 0.242305 0.901287
vt 0.242305 0.931648
vt 0.216571 0.931648
vt 0.019782 0.451612
vt 0.045515 0.451612
vt 0.045515 0.708888
vt 0.019782 0.708888
vt 0.051651 0.451612
vt 0.077384 0.451612
vt 0.077384 0.481973
vt 0.051651 0.481973
vt 0.077384 0.739250
vt 0.051651 0.739250
vt 0.077384 0.769611
vt 0.051651 0.769611
vt 0.249704 0.901287
vt 0.275437 0.901287
vt 0.275437 0.931648
vt 0.249704 0.931648
vt 0.282836 0.901287
vt 0.308569 0.901287
vt 0.308569 0.931648
vt 0.282836 0.931648
vt 0.001992 0.712880
vt 0.027726 0.712880
vt 0.027726 0.970157
vt 0.001992 0.970157
vt 0.101927 0.032660
vt 0.127661 0.032660
vt 0.027726 0.447620
vt 0.001992 0.447620
vt 0.109078 0.001936
vt 0.134812 0.001936
vt 0.142511 0.001936
vt 0.168245 0.001936
vt 0.268180 0.416897
vt 0.242447 0.416897
vt 0.275331 0.447620
vt 0.249597 0.447620
vt 0.891811 0.482335
vt 0.917544 0.482335
vt 0.998008 0.897295
vt 0.972274 0.897295
vt 0.883901 0.451612
vt 0.909635 0.451612
vt 0.852032 0.451612
vt 0.877766 0.451612
vt 0.797302 0.866572
vt 0.771568 0.866572
vt 0.789392 0.897295
vt 0.763659 0.897295
vt 0.109379 0.934172
vt 0.109379 0.908438
vt 0.140103 0.901287
vt 0.140103 0.927021
vt 0.177133 0.908438
vt 0.177133 0.934172
vt 0.146409 0.927021
vt 0.146409 0.901287
vt 0.035319 0.799336
vt 0.035319 0.773603
vt 0.066043 0.781513
vt 0.066043 0.807246
vt 0.103073 0.773603
vt 0.103073 0.799336
vt 0.072349 0.807246
vt 0.072349 0.781513
vn -1.000000 0.000000 0.000000
vn -1.000000 -0.000000 0.000000
vn -1.000000 0.000000 0.000000
vn -1.000000 -0.000000 0.000000
vn 0.000000 1.000000 0.000000
vn 0.000000 1.000000 0.000000
vn 0.000000 1.000000 0.000000
vn 0.000000 1.000000 0.000000
vn 1.000000 0.000000 0.000000
vn 1.000000 0.000000 0.000000
vn 1.000000 -0.000000 0.000000
vn 1.000000 -0.000000 0.000000
vn 0.000000 -1.000000 0.000000
vn 0.000000 -1.000000 0.000000
vn 0.000000 -1.000000 0.000000
vn 0.000000 -1.000000 0.000000
vn 0.000000 0.233624 0.972327
vn 0.000000 0.234079 0.972218
vn 0.000000 0.234136 0.972204
vn 0.000000 0.234136 0.972204
vn 0.000000 -0.234079 -0.972218
vn 0.000000 -0.233625 -0.972327
vn 0.000000 -0.234136 -0.972204
vn 0.000000 -0.234136 -0.972204
vn 0.000000 1.000000 0.000000
vn 0.000000 1.000000 0.000000
vn 0.000000 1.000000 0.000000
vn 0.000000 1.000000 0.000000
vn -0.000000 -0.233625 -0.972327
vn -0.000000 -0.234079 -0.972218
vn -0.000000 -0.234136 -0.972204
vn 0.000000 -0.234136 -0.972204
vn 0.000000 -1.000000 0.000000
vn 0.000000 -1.000000 0.000000
vn 0.000000 -1.000000 0.000000
vn 0.000000 -1.000000 0.000000
vn 0.000000 0.234136 0.972204
vn 0.000000 0.234079 0.972218
vn 0.000000 0.234136 0.972204
vn 0.000000 0.233625 0.972327
vn 0.000000 -1.000000 0.000000
vn 0.000000 -1.000000 0.000000
vn 0.000000 -1.000000 0.000000
vn 0.000000 -1.000000 0.000000
vn -0.999998 -0.001887 0.000000
vn -0.999999 -0.001111 0.000000
vn -1.000000 0.000000 0.000000
vn -1.000000 0.000000 0.000000
vn 0.000000 1.000000 0.000000
vn 0.000000 1.000000 0.000000
vn 0.000000 1.000000 0.000000
vn 0.000000 1.000000 0.000000
vn 1.000000 0.000000 0.000000
vn 1.000000 -0.000922 0.000000
vn 1.000000 0.000000 0.000000
vn 0.999999 -0.001565 0.000000
vn 0.000000 -1.000000 0.000000
vn 0.000000 -1.000000 0.000000
vn 0.000000 -1.000000 0.000000
vn 0.000000 -1.000000 0.000000
vn 0.000000 -0.194450 0.980912
vn 0.000000 -0.190834 0.981622
vn 0.000000 -0.190361 0.981714
vn 0.000000 -0.190361 0.981714
vn 0.000000 0.190834 -0.981622
vn 0.000000 0.194450 -0.980912
vn 0.000000 0.190361 -0.981714
vn 0.000000 0.190361 -0.981714
vn 0.000000 1.000000 0.000000
vn 0.000000 1.000000 0.000000
vn 0.000000 1.000000 0.000000
vn 0.000000 1.000000 0.000000
vn 0.000000 0.194459 -0.980911
vn 0.000000 0.190833 -0.981623
vn 0.000000 0.190361 -0.981714
vn 0.000000 0.190361 -0.981714
vn 0.000000 -1.000000 0.000000
vn 0.000000 -1.000000 0.000000
vn 0.000000 -1.000000 0.000000
vn 0.000000 -1.000000 0.000000
vn 0.000000 -0.190361 0.981714
vn 0.000000 -0.190833 0.981623
vn 0.000000 -0.190361 0.981714
vn 0.000000 -0.194459 0.980911
vn 0.000000 -1.000000 0.000000
vn 0.000000 -1.000000 0.000000
vn 0.000000 -1.000000 0.000000
vn 0.000000 -1.000000 0.000000
vn 1.000000 -0.000000 0.000000
vn 1.000000 -0.000000 0.000000
vn 1.000000 -0.000000 0.000000
vn 1.000000 0.000000 0.000000
vn 0.000000 0.226694 0.973966
vn 0.000000 0.226694 0.973966
vn -1.000000 0.000000 0.000000
vn -1.000000 -0.000000 0.000000
vn 0.000000 -0.226694 -0.973966
vn 0.000000 -0.226694 -0.973966
vn 1.000000 0.000000 0.000000
vn 1.000000 0.000000 0.000000
vn 0.000000 0.226694 0.973966
vn 0.000000 0.226694 0.973966
vn -1.000000 0.000000 0.000000
vn -1.000000 0.000000 0.000000
vn -1.000000 0.000000 0.000000
vn -1.000000 0.000000 0.000000
vn 0.000000 -0.226694 -0.973966
vn 0.000000 -0.226694 -0.973966
vn 0.999776 0.021166 0.000000
vn 0.999776 0.021166 0.000000
vn 0.999776 0.021166 0.000000
vn 0.999776 0.021166 0.000000
vn 0.000000 -0.249316 0.968422
vn 0.000000 -0.249316 0.968422
vn -0.999776 -0.021166 0.000000
vn -0.999776 -0.021166 0.000000
vn 0.000000 0.249316 -0.968422
vn 0.000000 0.249316 -0.968422
vn 0.999846 -0.017559 0.000000
vn 0.999846 -0.017559 0.000000
vn 0.000000 -0.249316 0.968422
vn 0.000000 -0.249316 0.968422
vn -0.999846 0.017560 0.000000
vn -0.999846 0.017560 0.000000
vn -0.999846 0.017560 0.000000
vn -0.999846 0.017560 0.000000
vn 0.000000 0.249316 -0.968422
vn 0.000000 0.249316 -0.968422
s 1
g MenuSign
usemtl lambert11SG
f 2/90/1 4/91/2 1/89/3
f 1/89/3 4/91/2 3/92/4
s 2
f 3/49/5 4/50/6 14/52/7
f 14/52/7 4/50/6 13/51/8
s 3
f 5/95/9 6/96/10 7/98/11
f 7/98/11 6/96/10 8/97/12
s 4
f 33/57/13 34/58/14 36/60/15
f 36/60/15 34/58/14 35/59/16
s 5
f 2/1/17 16/2/18 4/4/19
f 4/4/19 16/2/18 13/3/20
s 6
f 15/13/21 1/14/22 14/16/23
f 14/16/23 1/14/22 3/15/24
s 2
f 10/54/25 9/53/26 5/56/27
f 5/56/27 9/53/26 6/55/28
s 6
f 7/21/29 11/19/30 5/22/31
f 5/22/31 11/19/30 10/20/32
s 9
f 37/61/33 38/62/34 40/64/35
f 40/64/35 38/62/34 39/63/36
s 5
f 9/8/37 12/7/38 6/10/39
f 6/10/39 12/7/38 8/9/40
s 2
f 14/52/7 13/51/8 10/54/25
f 10/54/25 13/51/8 9/53/26
s 6
f 11/19/30 15/13/21 10/20/32
f 10/20/32 15/13/21 14/16/23
s 11
f 11/65/41 12/66/42 15/68/43
f 15/68/43 12/66/42 16/67/44
s 5
f 13/3/20 16/2/18 9/8/37
f 9/8/37 16/2/18 12/7/38
s 12
f 17/101/45 18/102/46 19/104/47
f 19/104/47 18/102/46 20/103/48
s 13
f 19/69/49 20/70/50 30/72/51
f 30/72/51 20/70/50 29/71/52
s 14
f 22/108/53 24/109/54 21/107/55
f 21/107/55 24/109/54 23/110/56
s 15
f 41/77/57 42/78/58 44/80/59
f 44/80/59 42/78/58 43/79/60
s 16
f 18/25/61 32/26/62 20/28/63
f 20/28/63 32/26/62 29/27/64
s 17
f 31/37/65 17/38/66 30/40/67
f 30/40/67 17/38/66 19/39/68
s 13
f 26/74/69 25/73/70 21/76/71
f 21/76/71 25/73/70 22/75/72
s 17
f 23/45/73 27/43/74 21/46/75
f 21/46/75 27/43/74 26/44/76
s 20
f 45/81/77 46/82/78 48/84/79
f 48/84/79 46/82/78 47/83/80
s 16
f 25/32/81 28/31/82 22/34/83
f 22/34/83 28/31/82 24/33/84
s 13
f 30/72/51 29/71/52 26/74/69
f 26/74/69 29/71/52 25/73/70
s 17
f 27/43/74 31/37/65 26/44/76
f 26/44/76 31/37/65 30/40/67
s 22
f 27/85/85 28/86/86 31/88/87
f 31/88/87 28/86/86 32/87/88
s 16
f 29/27/64 32/26/62 25/32/81
f 25/32/81 32/26/62 28/31/82
s 23
f 15/113/89 16/114/90 33/116/91
f 33/116/91 16/114/90 34/115/92
s 5
f 16/2/18 2/1/17 34/6/93
f 34/6/93 2/1/17 35/5/94
s 1
f 1/89/3 36/93/95 2/90/1
f 2/90/1 36/93/95 35/94/96
s 6
f 1/14/22 15/13/21 36/18/97
f 36/18/97 15/13/21 33/17/98
s 3
f 7/98/11 8/97/12 37/100/99
f 37/100/99 8/97/12 38/99/100
s 5
f 8/9/40 12/7/38 38/12/101
f 38/12/101 12/7/38 39/11/102
s 24
f 11/118/103 40/119/104 12/117/105
f 12/117/105 40/119/104 39/120/106
s 6
f 11/19/30 7/21/29 40/24/107
f 40/24/107 7/21/29 37/23/108
s 25
f 32/122/109 42/123/110 31/121/111
f 31/121/111 42/123/110 41/124/112
s 16
f 18/25/61 43/29/113 32/26/62
f 32/26/62 43/29/113 42/30/114
s 12
f 18/102/46 17/101/45 43/106/115
f 43/106/115 17/101/45 44/105/116
s 17
f 17/38/66 31/37/65 44/42/117
f 44/42/117 31/37/65 41/41/118
s 14
f 24/109/54 46/111/119 23/110/56
f 23/110/56 46/111/119 45/112/120
s 16
f 24/33/84 28/31/82 46/36/121
f 46/36/121 28/31/82 47/35/122
s 26
f 28/125/123 27/126/124 47/128/125
f 47/128/125 27/126/124 48/127/126
s 17
f 23/45/73 45/47/127 27/43/74
f 27/43/74 45/47/127 48/48/128
