# This file uses centimeters as units for non-parametric coordinates.

mtllib 22_CityB_Stop_Sign_v1.mtl
g default
v 0.354715 3.335229 0.149412
v 0.856357 3.836871 0.149412
v 0.856357 4.546301 0.149412
v 0.354715 5.047944 0.149412
v -0.354715 5.047944 0.149412
v -0.856357 4.546301 0.149412
v -0.856357 3.836871 0.149412
v -0.354715 3.335229 0.149412
v 0.354715 3.335229 0.091678
v 0.856357 3.836871 0.091678
v 0.856357 4.546301 0.091678
v 0.354715 5.047944 0.091678
v -0.354715 5.047944 0.091678
v -0.856357 4.546301 0.091678
v -0.856357 3.836871 0.091678
v -0.354715 3.335229 0.091678
v 0.000000 4.191586 0.149412
v 0.000000 4.191586 0.091678
v 0.062857 0.000000 0.085173
v 0.108871 0.000000 0.039159
v 0.125713 0.000000 -0.023698
v 0.108871 0.000000 -0.086555
v 0.062857 0.000000 -0.132568
v 0.000000 0.000000 -0.149411
v -0.062857 0.000000 -0.132568
v -0.108871 0.000000 -0.086555
v -0.125713 0.000000 -0.023698
v -0.108871 0.000000 0.039159
v -0.062857 0.000000 0.085173
v 0.000000 0.000000 0.102015
v 0.062857 4.764121 0.085173
v 0.108871 4.764121 0.039159
v 0.125713 4.764121 -0.023698
v 0.108871 4.764121 -0.086555
v 0.062857 4.764121 -0.132568
v 0.000000 4.764121 -0.149411
v -0.062857 4.764121 -0.132568
v -0.108871 4.764121 -0.086555
v -0.125713 4.764121 -0.023698
v -0.108871 4.764121 0.039159
v -0.062857 4.764121 0.085173
v 0.000000 4.764121 0.102015
v 0.000000 0.000000 -0.023698
v 0.000000 4.764121 -0.023698
vt 0.562230 0.106868
vt 0.383195 0.181027
vt 0.457354 0.001992
vt 0.562230 0.255186
vt 0.309036 0.001992
vt 0.457354 0.360063
vt 0.204160 0.106868
vt 0.309036 0.360063
vt 0.204160 0.255186
vt 0.654927 0.363695
vt 0.729086 0.542730
vt 0.550050 0.468571
vt 0.803245 0.363695
vt 0.550050 0.616889
vt 0.908121 0.468571
vt 0.654927 0.721765
vt 0.908121 0.616889
vt 0.803245 0.721765
vt 0.094961 0.001992
vt 0.108102 0.001992
vt 0.108102 0.998008
vt 0.094961 0.998008
vt 0.121243 0.001992
vt 0.121243 0.998008
vt 0.085340 0.001992
vt 0.085340 0.998008
vt 0.130863 0.001992
vt 0.130863 0.998008
vt 0.011433 0.001992
vt 0.024574 0.001992
vt 0.024574 0.998008
vt 0.011433 0.998008
vt 0.037715 0.001992
vt 0.037715 0.998008
vt 0.001813 0.001992
vt 0.001813 0.998008
vt 0.047335 0.001992
vt 0.047335 0.998008
vt 0.198496 0.255186
vt 0.186425 0.255186
vt 0.186425 0.106869
vt 0.198496 0.106869
vt 0.198496 0.360063
vt 0.186425 0.360063
vt 0.186425 0.001992
vt 0.198496 0.001992
vt 0.180761 0.255186
vt 0.168691 0.255186
vt 0.168691 0.106868
vt 0.180761 0.106868
vt 0.180761 0.360063
vt 0.168691 0.360063
vt 0.168691 0.001992
vt 0.180761 0.001992
vt 0.496021 0.367216
vt 0.505641 0.376836
vt 0.482879 0.389977
vt 0.509162 0.389977
vt 0.482879 0.363695
vt 0.505641 0.403118
vt 0.469738 0.367216
vt 0.496021 0.412738
vt 0.460118 0.376836
vt 0.482879 0.416260
vt 0.456597 0.389977
vt 0.469738 0.412738
vt 0.460118 0.403118
vt 0.447493 0.403118
vt 0.437873 0.412738
vt 0.424732 0.389977
vt 0.424732 0.416260
vt 0.451014 0.389977
vt 0.411591 0.412738
vt 0.447493 0.376836
vt 0.401971 0.403118
vt 0.437873 0.367216
vt 0.398450 0.389977
vt 0.424732 0.363695
vt 0.401971 0.376836
vt 0.411591 0.367216
vt 0.544468 0.512013
vt 0.532398 0.512013
vt 0.532398 0.363695
vt 0.544468 0.363695
vt 0.526815 0.512013
vt 0.514745 0.512013
vt 0.514745 0.363695
vt 0.526815 0.363695
vt 0.079701 0.998008
vt 0.066560 0.998008
vt 0.066560 0.001992
vt 0.079701 0.001992
vt 0.053419 0.998008
vt 0.053419 0.001992
vt 0.136770 0.001992
vt 0.149911 0.001992
vt 0.149911 0.998008
vt 0.136770 0.998008
vt 0.163052 0.001992
vt 0.163052 0.998008
vn 0.707107 -0.707107 0.000000
vn 0.707107 -0.707107 0.000000
vn 0.707107 -0.707107 0.000000
vn 0.707107 -0.707107 0.000000
vn 1.000000 0.000000 0.000000
vn 1.000000 0.000000 0.000000
vn 1.000000 0.000000 0.000000
vn 1.000000 0.000000 0.000000
vn 0.707107 0.707106 0.000000
vn 0.707107 0.707106 0.000000
vn 0.707107 0.707106 0.000000
vn 0.707107 0.707106 0.000000
vn 0.000000 1.000000 0.000000
vn 0.000000 1.000000 0.000000
vn 0.000000 1.000000 0.000000
vn 0.000000 1.000000 0.000000
vn -0.707107 0.707106 0.000000
vn -0.707107 0.707106 0.000000
vn -0.707107 0.707106 0.000000
vn -0.707107 0.707106 0.000000
vn -1.000000 0.000000 0.000000
vn -1.000000 0.000000 0.000000
vn -1.000000 0.000000 0.000000
vn -1.000000 0.000000 0.000000
vn -0.707107 -0.707107 0.000000
vn -0.707107 -0.707107 0.000000
vn -0.707107 -0.707107 0.000000
vn -0.707107 -0.707107 0.000000
vn 0.000000 -1.000000 0.000000
vn 0.000000 -1.000000 0.000000
vn 0.000000 -1.000000 0.000000
vn 0.000000 -1.000000 0.000000
vn -0.000000 0.000000 1.000000
vn -0.000000 0.000000 1.000000
vn 0.000000 0.000000 1.000000
vn -0.000000 0.000000 1.000000
vn 0.000000 0.000000 1.000000
vn 0.000000 0.000000 1.000000
vn 0.000000 0.000000 1.000000
vn 0.000000 0.000000 1.000000
vn 0.000000 0.000000 1.000000
vn 0.000000 0.000000 -1.000000
vn -0.000000 0.000000 -1.000000
vn -0.000000 0.000000 -1.000000
vn -0.000000 0.000000 -1.000000
vn 0.000000 0.000000 -1.000000
vn -0.000000 0.000000 -1.000000
vn 0.000000 0.000000 -1.000000
vn 0.000000 0.000000 -1.000000
vn 0.000000 0.000000 -1.000000
vn 0.707103 0.000000 0.707111
vn 0.707103 0.000000 0.707110
vn 0.707103 0.000000 0.707110
vn 0.707103 0.000000 0.707110
vn 0.965926 0.000000 0.258819
vn 0.965926 0.000000 0.258819
vn 0.965926 0.000000 0.258819
vn 0.965926 0.000000 0.258819
vn 0.965926 0.000000 -0.258819
vn 0.965926 0.000000 -0.258819
vn 0.965926 0.000000 -0.258819
vn 0.965926 0.000000 -0.258819
vn 0.707103 0.000000 -0.707111
vn 0.707103 0.000000 -0.707111
vn 0.707103 0.000000 -0.707110
vn 0.707103 0.000000 -0.707110
vn 0.258825 0.000000 -0.965924
vn 0.258825 0.000000 -0.965924
vn 0.258825 0.000000 -0.965924
vn 0.258825 0.000000 -0.965924
vn -0.258825 0.000000 -0.965924
vn -0.258825 0.000000 -0.965924
vn -0.258825 0.000000 -0.965924
vn -0.258825 0.000000 -0.965924
vn -0.707103 0.000000 -0.707110
vn -0.707103 0.000000 -0.707110
vn -0.707103 0.000000 -0.707111
vn -0.707103 0.000000 -0.707111
vn -0.965926 0.000000 -0.258819
vn -0.965926 0.000000 -0.258819
vn -0.965926 0.000000 -0.258819
vn -0.965926 0.000000 -0.258819
vn -0.965926 0.000000 0.258819
vn -0.965926 0.000000 0.258819
vn -0.965926 0.000000 0.258819
vn -0.965926 0.000000 0.258819
vn -0.707103 0.000000 0.707110
vn -0.707103 0.000000 0.707110
vn -0.707103 0.000000 0.707110
vn -0.707103 0.000000 0.707111
vn -0.258825 0.000000 0.965924
vn -0.258825 0.000000 0.965924
vn -0.258825 0.000000 0.965924
vn -0.258825 0.000000 0.965924
vn 0.258825 0.000000 0.965924
vn 0.258825 0.000000 0.965924
vn 0.258825 0.000000 0.965924
vn 0.258825 0.000000 0.965924
vn 0.000000 -1.000000 0.000000
vn 0.000000 -1.000000 0.000000
vn 0.000000 -1.000000 0.000000
vn 0.000000 -1.000000 0.000000
vn 0.000000 -1.000000 0.000000
vn 0.000000 -1.000000 0.000000
vn 0.000000 -1.000000 0.000000
vn 0.000000 -1.000000 0.000000
vn 0.000000 -1.000000 0.000000
vn 0.000000 -1.000000 0.000000
vn 0.000000 -1.000000 0.000000
vn 0.000000 -1.000000 0.000000
vn 0.000000 -1.000000 0.000000
vn 0.000000 1.000000 0.000004
vn 0.000000 1.000000 0.000004
vn 0.000000 1.000000 0.000000
vn 0.000000 1.000000 0.000000
vn 0.000000 1.000000 0.000000
vn 0.000000 1.000000 0.000000
vn 0.000000 1.000000 0.000000
vn 0.000000 1.000000 -0.000004
vn 0.000000 1.000000 -0.000004
vn 0.000000 1.000000 0.000000
vn 0.000000 1.000000 0.000000
vn 0.000000 1.000000 0.000000
vn 0.000000 1.000000 0.000000
s 1
g StopSign
usemtl lambert10SG
f 1/50/1 9/49/2 2/54/3
f 2/54/3 9/49/2 10/53/4
s 2
f 2/81/5 10/82/6 3/84/7
f 3/84/7 10/82/6 11/83/8
s 3
f 3/43/9 11/44/10 4/39/11
f 4/39/11 11/44/10 12/40/12
s 4
f 4/39/13 12/40/14 5/42/15
f 5/42/15 12/40/14 13/41/16
s 5
f 5/42/17 13/41/18 6/46/19
f 6/46/19 13/41/18 14/45/20
s 6
f 6/85/21 14/86/22 7/88/23
f 7/88/23 14/86/22 15/87/24
s 7
f 7/51/25 15/52/26 8/47/27
f 8/47/27 15/52/26 16/48/28
s 8
f 8/47/29 16/48/30 1/50/31
f 1/50/31 16/48/30 9/49/32
s 9
f 2/1/33 17/2/34 1/3/35
f 3/4/36 17/2/34 2/1/33
f 4/6/37 17/2/34 3/4/36
f 5/8/38 17/2/34 4/6/37
f 6/9/39 17/2/34 5/8/38
f 7/7/40 17/2/34 6/9/39
f 8/5/41 17/2/34 7/7/40
f 1/3/35 17/2/34 8/5/41
s 10
f 9/10/42 18/11/43 10/12/44
f 10/12/44 18/11/43 11/14/45
f 11/14/45 18/11/43 12/16/46
f 12/16/46 18/11/43 13/18/47
f 13/18/47 18/11/43 14/17/48
f 14/17/48 18/11/43 15/15/49
f 15/15/49 18/11/43 16/13/50
f 16/13/50 18/11/43 9/10/42
s 11
f 19/33/51 20/37/52 31/34/53
f 31/34/53 20/37/52 32/38/54
s 12
f 20/89/55 21/90/56 32/92/57
f 32/92/57 21/90/56 33/91/58
s 13
f 21/90/59 22/93/60 33/91/61
f 33/91/61 22/93/60 34/94/62
s 14
f 22/25/63 23/19/64 34/26/65
f 34/26/65 23/19/64 35/22/66
s 15
f 23/19/67 24/20/68 35/22/69
f 35/22/69 24/20/68 36/21/70
s 16
f 24/20/71 25/23/72 36/21/73
f 36/21/73 25/23/72 37/24/74
s 17
f 25/23/75 26/27/76 37/24/77
f 37/24/77 26/27/76 38/28/78
s 18
f 26/95/79 27/96/80 38/98/81
f 38/98/81 27/96/80 39/97/82
s 19
f 27/96/83 28/99/84 39/97/85
f 39/97/85 28/99/84 40/100/86
s 20
f 28/35/87 29/29/88 40/36/89
f 40/36/89 29/29/88 41/32/90
s 21
f 29/29/91 30/30/92 41/32/93
f 41/32/93 30/30/92 42/31/94
s 22
f 30/30/95 19/33/96 42/31/97
f 42/31/97 19/33/96 31/34/98
s 23
f 20/55/99 19/56/100 43/57/101
f 21/59/102 20/55/99 43/57/101
f 22/61/103 21/59/102 43/57/101
f 23/63/104 22/61/103 43/57/101
f 24/65/105 23/63/104 43/57/101
f 25/67/106 24/65/105 43/57/101
f 26/66/107 25/67/106 43/57/101
f 27/64/108 26/66/107 43/57/101
f 28/62/109 27/64/108 43/57/101
f 29/60/110 28/62/109 43/57/101
f 30/58/111 29/60/110 43/57/101
f 19/56/100 30/58/111 43/57/101
s 24
f 31/68/112 32/69/113 44/70/114
f 32/69/113 33/71/115 44/70/114
f 33/71/115 34/73/116 44/70/114
f 34/73/116 35/75/117 44/70/114
f 35/75/117 36/77/118 44/70/114
f 36/77/118 37/79/119 44/70/114
f 37/79/119 38/80/120 44/70/114
f 38/80/120 39/78/121 44/70/114
f 39/78/121 40/76/122 44/70/114
f 40/76/122 41/74/123 44/70/114
f 41/74/123 42/72/124 44/70/114
f 42/72/124 31/68/112 44/70/114
