# This file uses centimeters as units for non-parametric coordinates.

mtllib 9_CityB_Umbrella_v1.mtl
g default
v -1.893847 3.629632 1.893847
v 1.893847 3.629632 1.893847
v -0.294658 4.977794 0.294658
v 0.294658 4.977794 0.294658
v -0.294658 4.977794 -0.294659
v 0.294658 4.977794 -0.294659
v -1.893847 3.629632 -1.893848
v 1.893847 3.629632 -1.893848
v -0.286093 4.858081 -0.286094
v 0.286093 4.858081 -0.286094
v 0.286093 4.858081 0.286093
v -0.286093 4.858081 0.286093
v 0.031372 0.082491 0.054337
v 0.054338 0.082491 0.031371
v 0.062743 0.082491 -0.000001
v 0.054338 0.082491 -0.031372
v 0.031372 0.082491 -0.054338
v 0.000000 0.082491 -0.062744
v -0.031372 0.082491 -0.054338
v -0.054338 0.082491 -0.031372
v -0.062743 0.082491 -0.000001
v -0.054338 0.082491 0.031371
v -0.031372 0.082491 0.054337
v 0.000000 0.082491 0.062743
v 0.031372 4.858081 0.054337
v 0.054338 4.858081 0.031371
v 0.062743 4.858081 -0.000001
v 0.054338 4.858081 -0.031372
v 0.031372 4.858081 -0.054338
v 0.000000 4.858081 -0.062744
v -0.031372 4.858081 -0.054338
v -0.054338 4.858081 -0.031372
v -0.062743 4.858081 -0.000001
v -0.054338 4.858081 0.031371
v -0.031372 4.858081 0.054337
v 0.000000 4.858081 0.062743
v 0.302221 0.000000 0.523462
v 0.523463 0.000000 0.302221
v 0.604443 0.000000 -0.000001
v 0.523463 0.000000 -0.302222
v 0.302221 0.000000 -0.523464
v 0.000000 0.000000 -0.604444
v -0.302221 0.000000 -0.523464
v -0.523463 0.000001 -0.302222
v -0.604443 0.000001 -0.000001
v -0.523463 0.000001 0.302221
v -0.302221 0.000001 0.523462
v 0.000000 0.000000 0.604442
v 0.302221 0.082491 0.523462
v 0.523463 0.082491 0.302221
v 0.604443 0.082491 -0.000001
v 0.523463 0.082491 -0.302222
v 0.302221 0.082491 -0.523464
v 0.000000 0.082491 -0.604444
v -0.302221 0.082491 -0.523464
v -0.523463 0.082491 -0.302222
v -0.604443 0.082491 -0.000001
v -0.523463 0.082491 0.302221
v -0.302221 0.082491 0.523462
v 0.000000 0.082491 0.604442
v 0.000000 0.082491 -0.000001
v 0.075130 1.727359 -0.043377
v 0.043376 1.727359 -0.075131
v 0.000000 1.727359 -0.086753
v -0.043376 1.727359 -0.075131
v -0.075130 1.727359 -0.043377
v -0.086753 1.727359 -0.000001
v -0.075130 1.727359 0.043376
v -0.043376 1.727359 0.075129
v 0.000000 1.727359 0.086752
v 0.043376 1.727359 0.075129
v 0.075130 1.727359 0.043376
v 0.086753 1.727359 -0.000001
v 0.075130 2.026985 -0.043377
v 0.043376 2.026985 -0.075131
v 0.000000 2.026985 -0.086753
v -0.043376 2.026985 -0.075131
v -0.075130 2.026985 -0.043377
v -0.086753 2.026985 -0.000001
v -0.075130 2.026985 0.043376
v -0.043376 2.026985 0.075129
v 0.000000 2.026985 0.086752
v 0.043376 2.026985 0.075129
v 0.075130 2.026985 0.043376
v 0.086753 2.026985 -0.000001
v 0.000000 1.727359 -0.000001
v 0.000000 2.026985 -0.000001
v 0.032617 3.172562 0.033867
v -0.017768 3.127290 0.033867
v -0.995044 4.316284 0.033867
v -1.045429 4.271012 0.033867
v -0.995044 4.316284 -0.033869
v -1.045429 4.271012 -0.033869
v 0.032617 3.172562 -0.033869
v -0.017768 3.127290 -0.033869
v -0.032617 3.172562 0.033867
v 0.017768 3.127290 0.033867
v 0.995044 4.316284 0.033867
v 1.045429 4.271012 0.033867
v 0.995044 4.316284 -0.033869
v 1.045429 4.271012 -0.033869
v -0.032617 3.172562 -0.033869
v 0.017768 3.127290 -0.033869
v 0.033868 3.172562 -0.032617
v 0.033868 3.127290 0.017767
v 0.033868 4.316284 0.995043
v 0.033868 4.271012 1.045428
v -0.033868 4.316284 0.995043
v -0.033868 4.271012 1.045428
v -0.033868 3.172562 -0.032617
v -0.033868 3.127290 0.017767
v 0.033868 3.172562 0.032616
v 0.033868 3.127290 -0.017769
v 0.033868 4.316284 -0.995045
v 0.033868 4.271012 -1.045429
v -0.033868 4.316284 -0.995045
v -0.033868 4.271012 -1.045429
v -0.033868 3.172562 0.032616
v -0.033868 3.127290 -0.017769
v 0.047012 3.172562 0.000884
v 0.011384 3.127290 0.036511
v -0.679654 4.316284 0.727550
v -0.715281 4.271012 0.763177
v -0.727551 4.316284 0.679653
v -0.763178 4.271012 0.715281
v -0.000885 3.172562 -0.047012
v -0.036512 3.127290 -0.011385
v 0.000885 3.172562 0.047011
v 0.036512 3.127290 0.011384
v 0.727551 4.316284 -0.679655
v 0.763178 4.271012 -0.715282
v 0.679654 4.316284 -0.727551
v 0.715281 4.271012 -0.763179
v -0.047012 3.172562 -0.000885
v -0.011384 3.127290 -0.036513
v 0.000885 3.172562 -0.047012
v 0.036512 3.127290 -0.011385
v 0.727551 4.316284 0.679653
v 0.763178 4.271012 0.715281
v 0.679654 4.316284 0.727550
v 0.715281 4.271012 0.763177
v -0.047012 3.172562 0.000884
v -0.011384 3.127290 0.036511
v 0.047012 3.172562 -0.000885
v 0.011384 3.127290 -0.036513
v -0.679654 4.316284 -0.727551
v -0.715281 4.271012 -0.763179
v -0.727551 4.316284 -0.679655
v -0.763178 4.271012 -0.715282
v -0.000885 3.172562 0.047011
v -0.036512 3.127290 0.011384
vt 0.004765 0.001805
vt 0.008553 0.001805
vt 0.008553 0.578402
vt 0.004765 0.578402
vt 0.012340 0.001805
vt 0.012340 0.578402
vt 0.001992 0.001805
vt 0.001992 0.578402
vt 0.015113 0.001805
vt 0.015113 0.578402
vt 0.040041 0.001805
vt 0.043829 0.001805
vt 0.043829 0.578402
vt 0.040041 0.578402
vt 0.047617 0.001805
vt 0.047617 0.578402
vt 0.037268 0.001805
vt 0.037268 0.578402
vt 0.050389 0.001805
vt 0.050389 0.578402
vt 0.722881 0.857905
vt 0.722881 0.821415
vt 0.732841 0.821415
vt 0.732841 0.857905
vt 0.722881 0.784926
vt 0.732841 0.784926
vt 0.722881 0.884617
vt 0.732841 0.884617
vt 0.722881 0.758213
vt 0.732841 0.758213
vt 0.706786 0.857905
vt 0.706786 0.821415
vt 0.716746 0.821415
vt 0.716746 0.857905
vt 0.706786 0.784926
vt 0.716746 0.784926
vt 0.706786 0.884617
vt 0.716746 0.884617
vt 0.706786 0.758213
vt 0.716746 0.758213
vt 0.556011 0.758213
vt 0.561248 0.758213
vt 0.561248 0.794390
vt 0.556011 0.794390
vt 0.566485 0.758213
vt 0.566485 0.794390
vt 0.552177 0.758213
vt 0.552177 0.794390
vt 0.570319 0.758213
vt 0.570319 0.794390
vt 0.596898 0.758213
vt 0.602135 0.758213
vt 0.602135 0.794390
vt 0.596898 0.794390
vt 0.607372 0.758213
vt 0.607372 0.794390
vt 0.593064 0.758213
vt 0.593064 0.794390
vt 0.611206 0.758213
vt 0.611206 0.794390
vt 0.300727 0.468582
vt 0.176649 0.606673
vt 0.170566 0.601207
vt 0.294644 0.463116
vt 0.158347 0.725950
vt 0.034269 0.587859
vt 0.040352 0.582393
vt 0.164430 0.720484
vt 0.001992 0.735408
vt 0.008075 0.729942
vt 0.132153 0.868033
vt 0.126070 0.873499
vt 0.144697 0.873499
vt 0.138614 0.868033
vt 0.262692 0.729942
vt 0.268775 0.735408
vt 0.265433 0.266041
vt 0.265433 0.194888
vt 0.336586 0.194888
vt 0.336586 0.266041
vt 0.072349 0.459125
vt 0.072349 0.001805
vt 0.529669 0.001805
vt 0.529669 0.459125
vt 0.730317 0.265007
vt 0.730317 0.195922
vt 0.799402 0.195922
vt 0.799402 0.265007
vt 0.536200 0.459125
vt 0.536200 0.001805
vt 0.993520 0.001805
vt 0.993520 0.459125
vt 0.961518 0.472894
vt 0.988231 0.499606
vt 0.925029 0.536096
vt 0.998008 0.536096
vt 0.925029 0.463116
vt 0.988231 0.572585
vt 0.888539 0.472894
vt 0.961518 0.599298
vt 0.861827 0.499606
vt 0.925029 0.609075
vt 0.852049 0.536096
vt 0.888539 0.599298
vt 0.861827 0.572585
vt 0.524195 0.759617
vt 0.528029 0.763451
vt 0.518958 0.768688
vt 0.529432 0.768688
vt 0.518958 0.758213
vt 0.528029 0.773925
vt 0.513721 0.759617
vt 0.524195 0.777759
vt 0.509887 0.763451
vt 0.518958 0.779162
vt 0.508483 0.768688
vt 0.513721 0.777759
vt 0.509887 0.773925
vt 0.500945 0.773925
vt 0.497111 0.777759
vt 0.491874 0.768688
vt 0.491874 0.779162
vt 0.502348 0.768688
vt 0.486637 0.777759
vt 0.500945 0.763450
vt 0.482803 0.773925
vt 0.497111 0.759617
vt 0.481399 0.768688
vt 0.491874 0.758213
vt 0.482803 0.763450
vt 0.486637 0.759617
vt 0.029252 0.578402
vt 0.025464 0.578402
vt 0.025464 0.001805
vt 0.029252 0.001805
vt 0.021676 0.578402
vt 0.021676 0.001805
vt 0.056758 0.001805
vt 0.060545 0.001805
vt 0.060545 0.578402
vt 0.056758 0.578402
vt 0.064333 0.001805
vt 0.064333 0.578402
vt 0.643397 0.758213
vt 0.643397 0.794703
vt 0.633437 0.794703
vt 0.633437 0.758213
vt 0.643397 0.831193
vt 0.633437 0.831193
vt 0.617342 0.831193
vt 0.617342 0.794703
vt 0.627301 0.794703
vt 0.627301 0.831193
vt 0.617342 0.758213
vt 0.627301 0.758213
vt 0.586929 0.794390
vt 0.581692 0.794390
vt 0.581692 0.758213
vt 0.586929 0.758213
vt 0.576455 0.794390
vt 0.576455 0.758213
vt 0.535567 0.758213
vt 0.540805 0.758213
vt 0.540805 0.794390
vt 0.535567 0.794390
vt 0.546042 0.758213
vt 0.546042 0.794390
vt 0.845914 0.468582
vt 0.721836 0.606673
vt 0.715753 0.601207
vt 0.839831 0.463116
vt 0.585539 0.463116
vt 0.709617 0.601207
vt 0.703534 0.606673
vt 0.579456 0.468582
vt 0.443159 0.468582
vt 0.449242 0.463116
vt 0.573320 0.601207
vt 0.567237 0.606673
vt 0.430940 0.463116
vt 0.437024 0.468582
vt 0.312946 0.606673
vt 0.306862 0.601207
vt 0.790096 0.758213
vt 0.790096 0.896304
vt 0.781917 0.896304
vt 0.781917 0.758213
vt 0.775782 0.758213
vt 0.775782 0.896304
vt 0.767604 0.896304
vt 0.767604 0.758213
vt 0.753290 0.758213
vt 0.761468 0.758213
vt 0.761468 0.896304
vt 0.753290 0.896304
vt 0.738976 0.758213
vt 0.747155 0.758213
vt 0.747155 0.896304
vt 0.738976 0.896304
vt 0.700651 0.758213
vt 0.700651 0.882291
vt 0.692473 0.882291
vt 0.692473 0.758213
vt 0.672024 0.882291
vt 0.663846 0.882291
vt 0.663846 0.758213
vt 0.672024 0.758213
vt 0.468020 0.754222
vt 0.380284 0.616131
vt 0.384585 0.610665
vt 0.472322 0.748756
vt 0.390368 0.610665
vt 0.478105 0.748756
vt 0.595072 0.754222
vt 0.590771 0.748756
vt 0.678507 0.610665
vt 0.682809 0.616131
vt 0.688592 0.616131
vt 0.600855 0.754222
vt 0.894777 0.756624
vt 0.807040 0.618533
vt 0.811342 0.613067
vt 0.899078 0.751158
vt 0.888994 0.756624
vt 0.801257 0.618533
vt 0.806315 0.904172
vt 0.802014 0.898706
vt 0.889750 0.760615
vt 0.894052 0.766081
vt 0.883967 0.760615
vt 0.796231 0.898706
vt 0.678159 0.882291
vt 0.678159 0.758213
vt 0.686337 0.758213
vt 0.686337 0.882291
vt 0.367078 0.616131
vt 0.279342 0.754222
vt 0.275040 0.748756
vt 0.362777 0.610665
vt 0.372861 0.616131
vt 0.285125 0.754222
vt 0.485527 0.616131
vt 0.489829 0.610665
vt 0.577565 0.748756
vt 0.573264 0.754222
vt 0.495612 0.610665
vt 0.583348 0.748756
vt 0.793835 0.616131
vt 0.706098 0.754222
vt 0.701797 0.748756
vt 0.789533 0.610665
vt 0.696014 0.748756
vt 0.783750 0.610665
vt 0.905970 0.766081
vt 0.910272 0.760615
vt 0.998008 0.898706
vt 0.993706 0.904172
vt 0.900187 0.766081
vt 0.987924 0.904172
vt 0.649532 0.758213
vt 0.657710 0.758213
vt 0.657710 0.882291
vt 0.649532 0.882291
vn 0.000000 0.764563 0.644549
vn 0.000000 0.764563 0.644549
vn 0.000000 0.764563 0.644549
vn 0.000000 0.764563 0.644549
vn 0.000000 1.000000 0.000000
vn 0.000000 1.000000 0.000000
vn 0.000000 1.000000 0.000000
vn 0.000000 1.000000 0.000000
vn 0.000000 0.764563 -0.644549
vn 0.000000 0.764563 -0.644549
vn 0.000000 0.764563 -0.644549
vn 0.000000 0.764563 -0.644549
vn 0.000000 -1.000000 0.000000
vn 0.000000 -1.000000 0.000000
vn 0.000000 -1.000000 0.000000
vn 0.000000 -1.000000 0.000000
vn 0.644549 0.764563 0.000000
vn 0.644549 0.764563 0.000000
vn 0.644549 0.764563 0.000000
vn 0.644549 0.764563 0.000000
vn -0.644549 0.764563 0.000000
vn -0.644549 0.764563 0.000000
vn -0.644549 0.764563 0.000000
vn -0.644549 0.764563 0.000000
vn 0.000000 -0.794598 0.607135
vn 0.000000 -0.794598 0.607135
vn 0.000000 -0.794598 0.607135
vn 0.000000 -0.794599 0.607135
vn -0.607135 -0.794598 0.000000
vn -0.607135 -0.794598 0.000000
vn -0.607135 -0.794598 0.000000
vn -0.607135 -0.794599 0.000000
vn 0.000000 -0.794598 -0.607135
vn 0.000000 -0.794598 -0.607135
vn 0.000000 -0.794598 -0.607135
vn 0.000000 -0.794599 -0.607135
vn 0.607135 -0.794598 0.000000
vn 0.607135 -0.794598 0.000000
vn 0.607135 -0.794598 0.000000
vn 0.607135 -0.794598 0.000000
vn 0.500001 0.000000 0.866025
vn 0.866030 0.000000 0.499993
vn 0.500001 0.000000 0.866025
vn 0.866030 0.000000 0.499993
vn 1.000000 0.000000 -0.000001
vn 1.000000 0.000000 0.000001
vn 0.866030 0.000000 -0.499993
vn 0.866030 0.000000 -0.499992
vn 0.500001 0.000000 -0.866025
vn 0.500001 0.000000 -0.866025
vn -0.000001 0.000000 -1.000000
vn 0.000001 0.000000 -1.000000
vn -0.500001 0.000000 -0.866025
vn -0.500001 0.000000 -0.866025
vn -0.866030 0.000000 -0.499993
vn -0.866030 0.000000 -0.499993
vn -1.000000 0.000000 0.000001
vn -1.000000 0.000000 -0.000001
vn -0.866030 0.000000 0.499993
vn -0.866030 0.000000 0.499993
vn -0.500001 0.000000 0.866025
vn -0.500001 0.000000 0.866025
vn 0.000001 0.000000 1.000000
vn -0.000001 0.000000 1.000000
vn 0.500000 0.000000 0.866026
vn 0.866026 0.000000 0.500000
vn 0.080808 0.986854 0.139964
vn 0.139964 0.986854 0.080808
vn 1.000000 0.000000 -0.000000
vn 0.161616 0.986854 -0.000000
vn 0.866026 0.000000 -0.500000
vn 0.139964 0.986854 -0.080808
vn 0.500000 0.000000 -0.866026
vn 0.080808 0.986854 -0.139964
vn 0.000000 0.000000 -1.000000
vn -0.000000 0.986854 -0.161616
vn -0.500000 0.000000 -0.866026
vn -0.080808 0.986854 -0.139964
vn -0.866025 0.000000 -0.500000
vn -0.139963 0.986854 -0.080808
vn -1.000000 0.000000 -0.000000
vn -0.161615 0.986854 -0.000000
vn -0.866026 0.000000 0.500000
vn -0.139963 0.986854 0.080808
vn -0.500000 0.000000 0.866026
vn -0.080808 0.986854 0.139963
vn 0.000000 0.000000 1.000000
vn 0.000000 0.986854 0.161616
vn 0.000000 1.000000 -0.000000
vn 0.841867 -0.234549 -0.486052
vn 0.486052 -0.234549 -0.841867
vn 0.841867 0.234549 -0.486052
vn 0.486052 0.234549 -0.841867
vn -0.000000 -0.234549 -0.972104
vn 0.000000 0.234549 -0.972104
vn -0.486052 -0.234549 -0.841867
vn -0.486052 0.234549 -0.841867
vn -0.841867 -0.234549 -0.486052
vn -0.841867 0.234549 -0.486052
vn -0.972104 -0.234549 0.000000
vn -0.972104 0.234549 -0.000000
vn -0.841867 -0.234549 0.486052
vn -0.841867 0.234549 0.486052
vn -0.486052 -0.234549 0.841867
vn -0.486052 0.234549 0.841867
vn 0.000000 -0.234549 0.972104
vn -0.000000 0.234549 0.972104
vn 0.486053 -0.234549 0.841867
vn 0.486052 0.234549 0.841867
vn 0.841867 -0.234549 0.486052
vn 0.841867 0.234549 0.486052
vn 0.972104 -0.234549 -0.000000
vn 0.972104 0.234549 0.000000
vn 0.000000 -1.000000 -0.000000
vn 0.000000 1.000000 0.000000
vn -0.000000 0.000000 1.000000
vn -0.000000 0.000000 1.000000
vn -0.000000 0.000000 1.000000
vn 0.000000 0.000000 1.000000
vn -0.000000 0.000000 -1.000000
vn -0.000000 0.000000 -1.000000
vn -0.000000 0.000000 -1.000000
vn 0.000000 0.000000 -1.000000
vn -0.743840 -0.668358 0.000000
vn -0.743840 -0.668358 0.000000
vn -0.743840 -0.668358 0.000000
vn -0.743840 -0.668358 0.000000
vn 0.743840 0.668358 0.000000
vn 0.743840 0.668358 0.000000
vn 0.743840 0.668358 0.000000
vn 0.743840 0.668358 0.000000
vn 0.000000 0.000000 1.000000
vn 0.000000 0.000000 1.000000
vn 0.000000 0.000000 1.000000
vn 0.000000 0.000000 1.000000
vn 0.000000 0.000000 -1.000000
vn 0.000000 0.000000 -1.000000
vn -0.000000 0.000000 -1.000000
vn -0.000000 0.000000 -1.000000
vn 0.743840 -0.668358 0.000000
vn 0.743840 -0.668358 0.000000
vn 0.743840 -0.668358 0.000000
vn 0.743840 -0.668358 0.000000
vn -0.743840 0.668358 0.000000
vn -0.743840 0.668358 0.000000
vn -0.743840 0.668358 0.000000
vn -0.743840 0.668358 0.000000
vn 1.000000 0.000000 0.000000
vn 1.000000 0.000000 0.000000
vn 1.000000 0.000000 0.000000
vn 1.000000 0.000000 0.000000
vn -1.000000 -0.000000 0.000000
vn -1.000000 -0.000000 0.000000
vn -1.000000 -0.000000 0.000000
vn -1.000000 0.000000 0.000000
vn 0.000000 -0.668358 0.743840
vn 0.000000 -0.668357 0.743840
vn 0.000000 -0.668358 0.743840
vn 0.000000 -0.668357 0.743840
vn 0.000000 0.668358 -0.743840
vn 0.000000 0.668358 -0.743840
vn 0.000000 0.668358 -0.743840
vn 0.000000 0.668358 -0.743840
vn 1.000000 0.000000 0.000000
vn 1.000000 -0.000000 0.000000
vn 1.000000 -0.000000 0.000000
vn 1.000000 -0.000000 0.000000
vn -1.000000 0.000000 0.000000
vn -1.000000 0.000000 0.000000
vn -1.000000 0.000000 0.000000
vn -1.000000 0.000000 0.000000
vn 0.000000 -0.668358 -0.743840
vn 0.000000 -0.668358 -0.743840
vn 0.000000 -0.668357 -0.743840
vn 0.000000 -0.668357 -0.743840
vn 0.000000 0.668358 0.743840
vn 0.000000 0.668358 0.743840
vn 0.000000 0.668358 0.743840
vn 0.000000 0.668358 0.743840
vn 0.707106 -0.000000 0.707107
vn 0.707108 -0.000001 0.707106
vn 0.707106 -0.000000 0.707107
vn 0.707108 -0.000001 0.707106
vn -0.707105 0.000000 -0.707109
vn -0.707108 0.000000 -0.707105
vn -0.707105 0.000000 -0.707108
vn -0.707108 0.000000 -0.707105
vn -0.525974 -0.668357 0.525976
vn -0.525975 -0.668359 0.525972
vn -0.525974 -0.668357 0.525976
vn -0.525975 -0.668359 0.525972
vn 0.525973 0.668356 -0.525977
vn 0.525975 0.668359 -0.525972
vn 0.525973 0.668356 -0.525977
vn 0.525975 0.668359 -0.525972
vn 0.707107 0.000000 0.707107
vn 0.707106 0.000000 0.707107
vn 0.707107 0.000000 0.707107
vn 0.707107 0.000000 0.707107
vn -0.707107 0.000000 -0.707106
vn -0.707107 0.000000 -0.707106
vn -0.707106 -0.000000 -0.707107
vn -0.707106 -0.000000 -0.707107
vn 0.525973 -0.668356 -0.525977
vn 0.525973 -0.668357 -0.525977
vn 0.525975 -0.668358 -0.525973
vn 0.525975 -0.668358 -0.525973
vn -0.525974 0.668358 0.525974
vn -0.525974 0.668358 0.525974
vn -0.525974 0.668357 0.525976
vn -0.525974 0.668357 0.525976
vn 0.707107 -0.000000 -0.707107
vn 0.707107 -0.000000 -0.707106
vn 0.707107 -0.000000 -0.707107
vn 0.707107 0.000000 -0.707106
vn -0.707107 -0.000000 0.707107
vn -0.707106 -0.000001 0.707107
vn -0.707107 -0.000000 0.707107
vn -0.707106 -0.000001 0.707107
vn 0.525974 -0.668357 0.525976
vn 0.525975 -0.668359 0.525972
vn 0.525974 -0.668357 0.525976
vn 0.525975 -0.668359 0.525972
vn -0.525975 0.668358 -0.525974
vn -0.525974 0.668357 -0.525975
vn -0.525975 0.668358 -0.525974
vn -0.525974 0.668357 -0.525975
vn 0.707106 0.000000 -0.707107
vn 0.707106 0.000000 -0.707107
vn 0.707107 0.000000 -0.707106
vn 0.707107 0.000000 -0.707106
vn -0.707105 0.000000 0.707108
vn -0.707105 -0.000000 0.707108
vn -0.707109 -0.000000 0.707105
vn -0.707109 -0.000000 0.707105
vn -0.525973 -0.668356 -0.525977
vn -0.525973 -0.668357 -0.525977
vn -0.525975 -0.668358 -0.525973
vn -0.525975 -0.668358 -0.525973
vn 0.525973 0.668357 0.525977
vn 0.525973 0.668357 0.525977
vn 0.525975 0.668358 0.525973
vn 0.525975 0.668358 0.525972
s 1
g Restaurant_umbrella
usemtl lambert8SG
f 1/81/1 2/82/2 3/77/3
f 3/77/3 2/82/2 4/78/4
s 2
f 3/77/5 4/78/6 5/80/7
f 5/80/7 4/78/6 6/79/8
s 3
f 5/80/9 6/79/10 7/84/11
f 7/84/11 6/79/10 8/83/12
s 4
f 9/85/13 10/86/14 12/88/15
f 12/88/15 10/86/14 11/87/16
s 5
f 2/82/17 8/83/18 4/78/19
f 4/78/19 8/83/18 6/79/20
s 6
f 7/84/21 1/81/22 5/80/23
f 5/80/23 1/81/22 3/77/24
s 7
f 7/89/25 8/90/26 9/85/27
f 9/85/27 8/90/26 10/86/28
s 8
f 8/90/29 2/91/30 10/86/31
f 10/86/31 2/91/30 11/87/32
s 9
f 2/91/33 1/92/34 11/87/35
f 11/87/35 1/92/34 12/88/36
s 10
f 1/92/37 7/89/38 12/88/39
f 12/88/39 7/89/38 9/85/40
s 11
f 13/7/41 14/1/42 25/8/43
f 25/8/43 14/1/42 26/4/44
f 14/1/42 15/2/45 26/4/44
f 26/4/44 15/2/45 27/3/46
f 15/2/45 16/5/47 27/3/46
f 27/3/46 16/5/47 28/6/48
f 16/5/47 17/9/49 28/6/48
f 28/6/48 17/9/49 29/10/50
f 17/132/49 18/133/51 29/135/50
f 29/135/50 18/133/51 30/134/52
f 18/133/51 19/136/53 30/134/52
f 30/134/52 19/136/53 31/137/54
f 19/17/53 20/11/55 31/18/54
f 31/18/54 20/11/55 32/14/56
f 20/11/55 21/12/57 32/14/56
f 32/14/56 21/12/57 33/13/58
f 21/12/57 22/15/59 33/13/58
f 33/13/58 22/15/59 34/16/60
f 22/15/59 23/19/61 34/16/60
f 34/16/60 23/19/61 35/20/62
f 23/138/61 24/139/63 35/141/62
f 35/141/62 24/139/63 36/140/64
f 24/139/63 13/142/41 36/140/64
f 36/140/64 13/142/41 25/143/43
s 12
f 37/27/65 38/21/66 49/28/67
f 49/28/67 38/21/66 50/24/68
f 38/21/66 39/22/69 50/24/68
f 50/24/68 39/22/69 51/23/70
f 39/22/69 40/25/71 51/23/70
f 51/23/70 40/25/71 52/26/72
f 40/25/71 41/29/73 52/26/72
f 52/26/72 41/29/73 53/30/74
f 41/144/73 42/145/75 53/147/74
f 53/147/74 42/145/75 54/146/76
f 42/145/75 43/148/77 54/146/76
f 54/146/76 43/148/77 55/149/78
f 43/37/77 44/31/79 55/38/78
f 55/38/78 44/31/79 56/34/80
f 44/31/79 45/32/81 56/34/80
f 56/34/80 45/32/81 57/33/82
f 45/32/81 46/35/83 57/33/82
f 57/33/82 46/35/83 58/36/84
f 46/35/83 47/39/85 58/36/84
f 58/36/84 47/39/85 59/40/86
f 47/150/85 48/151/87 59/153/86
f 59/153/86 48/151/87 60/152/88
f 48/151/87 37/154/65 60/152/88
f 60/152/88 37/154/65 49/155/67
f 49/93/67 50/94/68 61/95/89
f 50/94/68 51/96/70 61/95/89
f 51/96/70 52/98/72 61/95/89
f 52/98/72 53/100/74 61/95/89
f 53/100/74 54/102/76 61/95/89
f 54/102/76 55/104/78 61/95/89
f 55/104/78 56/105/80 61/95/89
f 56/105/80 57/103/82 61/95/89
f 57/103/82 58/101/84 61/95/89
f 58/101/84 59/99/86 61/95/89
f 59/99/86 60/97/88 61/95/89
f 60/97/88 49/93/67 61/95/89
s 13
f 62/55/90 63/59/91 74/56/92
f 74/56/92 63/59/91 75/60/93
f 63/156/91 64/157/94 75/159/93
f 75/159/93 64/157/94 76/158/95
f 64/157/94 65/160/96 76/158/95
f 76/158/95 65/160/96 77/161/97
f 65/47/96 66/41/98 77/48/97
f 77/48/97 66/41/98 78/44/99
f 66/41/98 67/42/100 78/44/99
f 78/44/99 67/42/100 79/43/101
f 67/42/100 68/45/102 79/43/101
f 79/43/101 68/45/102 80/46/103
f 68/45/102 69/49/104 80/46/103
f 80/46/103 69/49/104 81/50/105
f 69/162/104 70/163/106 81/165/105
f 81/165/105 70/163/106 82/164/107
f 70/163/106 71/166/108 82/164/107
f 82/164/107 71/166/108 83/167/109
f 71/57/108 72/51/110 83/58/109
f 83/58/109 72/51/110 84/54/111
f 72/51/110 73/52/112 84/54/111
f 84/54/111 73/52/112 85/53/113
f 73/52/112 62/55/90 85/53/113
f 85/53/113 62/55/90 74/56/92
f 63/106/91 62/107/90 86/108/114
f 64/110/94 63/106/91 86/108/114
f 65/112/96 64/110/94 86/108/114
f 66/114/98 65/112/96 86/108/114
f 67/116/100 66/114/98 86/108/114
f 68/118/102 67/116/100 86/108/114
f 69/117/104 68/118/102 86/108/114
f 70/115/106 69/117/104 86/108/114
f 71/113/108 70/115/106 86/108/114
f 72/111/110 71/113/108 86/108/114
f 73/109/112 72/111/110 86/108/114
f 62/107/90 73/109/112 86/108/114
f 74/119/92 75/120/93 87/121/115
f 75/120/93 76/122/95 87/121/115
f 76/122/95 77/124/97 87/121/115
f 77/124/97 78/126/99 87/121/115
f 78/126/99 79/128/101 87/121/115
f 79/128/101 80/130/103 87/121/115
f 80/130/103 81/131/105 87/121/115
f 81/131/105 82/129/107 87/121/115
f 82/129/107 83/127/109 87/121/115
f 83/127/109 84/125/111 87/121/115
f 84/125/111 85/123/113 87/121/115
f 85/123/113 74/119/92 87/121/115
s 14
f 88/168/116 90/169/117 89/171/118
f 89/171/118 90/169/117 91/170/119
s 15
f 92/172/120 94/173/121 93/175/122
f 93/175/122 94/173/121 95/174/123
s 16
f 89/184/124 91/185/125 95/187/126
f 95/187/126 91/185/125 93/186/127
s 17
f 94/188/128 92/189/129 88/191/130
f 88/191/130 92/189/129 90/190/131
s 18
f 96/176/132 97/177/133 98/179/134
f 98/179/134 97/177/133 99/178/135
s 19
f 100/180/136 101/181/137 102/183/138
f 102/183/138 101/181/137 103/182/139
s 20
f 97/192/140 103/193/141 99/195/142
f 99/195/142 103/193/141 101/194/143
s 21
f 102/196/144 96/197/145 100/199/146
f 100/199/146 96/197/145 98/198/147
s 22
f 104/61/148 106/62/149 105/64/150
f 105/64/150 106/62/149 107/63/151
s 23
f 108/65/152 110/66/153 109/68/154
f 109/68/154 110/66/153 111/67/155
s 24
f 105/200/156 107/201/157 111/203/158
f 111/203/158 107/201/157 109/202/159
s 25
f 110/232/160 108/233/161 104/235/162
f 104/235/162 108/233/161 106/234/163
s 26
f 112/69/164 113/70/165 114/72/166
f 114/72/166 113/70/165 115/71/167
s 27
f 116/73/168 117/74/169 118/76/170
f 118/76/170 117/74/169 119/75/171
s 28
f 113/204/172 119/205/173 115/207/174
f 115/207/174 119/205/173 117/206/175
s 29
f 118/260/176 112/261/177 116/263/178
f 116/263/178 112/261/177 114/262/179
s 30
f 120/236/180 122/237/181 121/239/182
f 121/239/182 122/237/181 123/238/183
s 31
f 124/208/184 126/209/185 125/211/186
f 125/211/186 126/209/185 127/210/187
s 32
f 121/212/188 123/213/189 127/210/190
f 127/210/190 123/213/189 125/211/191
s 33
f 126/240/192 124/241/193 120/236/194
f 120/236/194 124/241/193 122/237/195
s 34
f 128/242/196 129/243/197 130/245/198
f 130/245/198 129/243/197 131/244/199
s 35
f 132/214/200 133/215/201 134/217/202
f 134/217/202 133/215/201 135/216/203
s 36
f 129/243/204 135/246/205 131/244/206
f 131/244/206 135/246/205 133/247/207
s 37
f 134/217/208 128/218/209 132/214/210
f 132/214/210 128/218/209 130/219/211
s 38
f 136/248/212 138/249/213 137/251/214
f 137/251/214 138/249/213 139/250/215
s 39
f 140/220/216 142/221/217 141/223/218
f 141/223/218 142/221/217 143/222/219
s 40
f 137/251/220 139/250/221 143/253/222
f 143/253/222 139/250/221 141/252/223
s 41
f 142/221/224 140/220/225 136/225/226
f 136/225/226 140/220/225 138/224/227
s 42
f 144/254/228 145/255/229 146/257/230
f 146/257/230 145/255/229 147/256/231
s 43
f 148/226/232 149/227/233 150/229/234
f 150/229/234 149/227/233 151/228/235
s 44
f 145/230/236 151/228/237 147/231/238
f 147/231/238 151/228/237 149/227/239
s 45
f 150/258/240 144/254/241 148/259/242
f 148/259/242 144/254/241 146/257/243
