# This file uses centimeters as units for non-parametric coordinates.

mtllib fence.mtl
g default
v -0.168446 0.000000 7.901880
v 2.330732 0.000000 6.590942
v -0.168446 0.000000 -1.821706
v 2.330732 0.000000 -3.132643
v 2.392016 -0.239893 -3.210619
v 1.935454 -0.239893 -3.199537
v 2.392016 0.258128 -3.210619
v 1.935454 0.258128 -3.199537
v 2.634639 0.258128 6.786440
v 2.178076 0.258128 6.797521
v 2.634639 -0.239893 6.786440
v 2.178076 -0.239893 6.797521
v 2.173538 0.016217 -3.129080
v 2.173538 3.610332 -3.129080
v 2.409136 0.016217 6.578739
v 2.409136 3.527488 6.578739
v 2.366544 3.040997 4.823745
v 2.366544 -0.035157 4.823745
v 2.255409 3.016728 0.244400
v 2.255409 -0.041041 0.244400
v 2.310057 2.629675 2.496177
v 2.310057 -0.171605 2.496177
v 2.338119 2.759825 3.652460
v 2.338119 -0.103821 3.652460
v 2.278183 2.785328 1.182833
v 2.278183 -0.095454 1.182833
vt 0.649097 0.001992
vt 0.897816 0.132457
vt 0.897816 0.917349
vt 0.649097 0.786884
vt 0.912841 0.970563
vt 0.867404 0.970563
vt 0.867404 0.921000
vt 0.912841 0.921000
vt 0.047259 0.998008
vt 0.001822 0.996905
vt 0.025968 0.001992
vt 0.071405 0.003095
vt 0.861792 0.970563
vt 0.816355 0.970563
vt 0.816355 0.921000
vt 0.861792 0.921000
vt 0.148237 0.996905
vt 0.102799 0.998008
vt 0.078654 0.003095
vt 0.124091 0.001992
vt 0.155307 0.996905
vt 0.155307 0.001992
vt 0.204870 0.001992
vt 0.204870 0.996905
vt 0.210569 0.996905
vt 0.210569 0.001992
vt 0.260132 0.001992
vt 0.260132 0.996905
vt 0.284522 0.001992
vt 0.642211 0.001992
vt 0.583135 0.337723
vt 0.278824 0.337723
vt 0.279410 0.793462
vt 0.585550 0.793462
vt 0.633966 0.968120
vt 0.284522 0.968120
vt 0.560106 0.431116
vt 0.273409 0.431116
vt 0.265830 0.561821
vt 0.544615 0.561821
vt 0.557568 0.676895
vt 0.272576 0.676895
vn 0.000000 1.000000 0.000000
vn 0.000000 1.000000 0.000000
vn 0.000000 1.000000 0.000000
vn 0.000000 1.000000 0.000000
vn -0.024265 0.000000 -0.999706
vn -0.024265 0.000000 -0.999706
vn -0.024265 0.000000 -0.999706
vn -0.024265 0.000000 -0.999706
vn 0.000000 1.000000 0.000000
vn 0.000000 1.000000 0.000000
vn 0.000000 1.000000 0.000000
vn 0.000000 1.000000 0.000000
vn 0.024265 0.000000 0.999706
vn 0.024265 0.000000 0.999706
vn 0.024265 0.000000 0.999706
vn 0.024265 0.000000 0.999706
vn 0.000000 -1.000000 0.000000
vn 0.000000 -1.000000 0.000000
vn 0.000000 -1.000000 0.000000
vn 0.000000 -1.000000 0.000000
vn -0.999706 0.000000 0.024262
vn -0.999706 0.000000 0.024262
vn -0.999706 0.000000 0.024262
vn -0.999706 0.000000 0.024262
vn 0.999706 0.000000 -0.024262
vn 0.999706 0.000000 -0.024262
vn 0.999706 0.000000 -0.024262
vn 0.999706 0.000000 -0.024262
vn 0.999706 0.000000 -0.024262
vn 0.999706 0.000000 -0.024262
vn 0.999706 0.000000 -0.024262
vn 0.999706 0.000000 -0.024262
vn 0.999706 0.000000 -0.024261
vn 0.999706 0.000000 -0.024262
vn 0.999706 0.000000 -0.024262
vn 0.999706 0.000000 -0.024262
vn 0.999706 0.000000 -0.024262
vn 0.999706 0.000000 -0.024262
vn 0.999706 0.000000 -0.024262
vn 0.999706 0.000000 -0.024262
vn 0.999706 0.000000 -0.024262
vn 0.999706 0.000000 -0.024262
vn 0.999706 0.000000 -0.024262
vn 0.999706 0.000000 -0.024262
vn 0.999706 0.000000 -0.024262
vn 0.999706 0.000000 -0.024262
vn 0.999706 0.000000 -0.024261
vn 0.999706 0.000000 -0.024262
vn 0.999706 0.000000 -0.024262
vn 0.999706 0.000000 -0.024262
vn 0.999706 0.000000 -0.024262
vn 0.999706 0.000000 -0.024262
s 1
g fence:pPlane116
usemtl fence:initialShadingGroup
f 1/1/1 2/2/2 3/4/3
f 3/4/3 2/2/2 4/3/4
s 2
f 5/5/5 6/6/6 7/8/7
f 7/8/7 6/6/6 8/7/8
s 3
f 7/9/9 8/10/10 9/12/11
f 9/12/11 8/10/10 10/11/12
s 4
f 9/13/13 10/14/14 11/16/15
f 11/16/15 10/14/14 12/15/16
s 5
f 11/17/17 12/18/18 5/20/19
f 5/20/19 12/18/18 6/19/20
s 6
f 6/21/21 12/22/22 8/24/23
f 8/24/23 12/22/22 10/23/24
s 7
f 11/25/25 5/26/26 9/28/27
f 9/28/27 5/26/26 7/27/28
s 8
f 14/30/29 19/31/30 13/29/31
f 13/29/31 19/31/30 20/32/32
s 9
f 18/33/33 17/34/34 15/36/35
f 15/36/35 17/34/34 16/35/36
s 10
f 19/31/37 25/37/38 20/32/39
f 20/32/39 25/37/38 26/38/40
s 11
f 22/39/41 21/40/42 24/42/43
f 24/42/43 21/40/42 23/41/44
s 12
f 24/42/45 23/41/46 18/33/47
f 18/33/47 23/41/46 17/34/48
s 13
f 25/37/49 21/40/50 26/38/51
f 26/38/51 21/40/50 22/39/52
