# This file uses centimeters as units for non-parametric coordinates.

mtllib park_left.mtl
g default
v -3.222948 -1.715532 -6.645942
v 2.244402 -1.715532 -6.894885
v -3.409525 2.724350 -6.645942
v 2.087036 2.724350 -6.894885
v -3.222948 -1.715532 0.249886
v 2.244402 -1.715532 0.000942
v -3.409525 2.724350 0.249886
v 2.087036 2.724350 0.000942
v -3.222948 -1.715532 -4.543640
v 2.244402 -1.715532 -4.792583
v -3.409525 2.724350 -4.543640
v 2.087036 2.724350 -4.792583
v -3.222948 -1.715532 -1.852416
v 2.244402 -1.715532 -2.101360
v -3.409525 2.724350 -1.852416
v 2.087036 2.724350 -2.101360
v -3.222948 -1.715532 2.494795
v 2.244402 -1.715532 2.245851
v -3.409525 2.724350 2.494795
v 2.087036 2.724350 2.245851
v -3.222948 -1.715532 4.597097
v 2.244402 -1.715532 4.348154
v -3.409525 2.724350 4.597097
v 2.087036 2.724350 4.348154
v -3.222948 -1.715532 18.914223
v 2.244402 -1.715532 18.665279
v -3.409525 2.724350 18.914223
v 2.087036 2.724350 18.665279
v -3.222948 -1.715532 -13.865715
v 2.244402 -1.715532 -14.114658
v -3.409525 2.724350 -13.865715
v 2.087036 2.724350 -14.114658
v -3.222948 -1.715532 -8.917950
v 2.244402 -1.715532 -9.166893
v -3.409525 2.724350 -8.917950
v 2.087036 2.724350 -9.166893
v -3.222948 -1.715532 -11.020251
v 2.244402 -1.715532 -11.269195
v -3.409525 2.724350 -11.020251
v 2.087036 2.724350 -11.269195
v -127.818672 -1.715532 -4.016061
v -9.020058 -1.715532 -5.320162
v -128.516022 2.724350 -4.016061
v -9.489849 2.724350 -5.320162
v -127.818672 -1.715532 -1.324837
v -9.020058 -1.715532 -2.628938
v -128.516022 2.724350 -1.324837
v -9.489849 2.724350 -2.628938
v -127.818672 -1.715532 0.777465
v -9.020058 -1.715532 -0.526636
v -128.516022 2.724350 0.777465
v -9.489849 2.724350 -0.526636
v -127.818672 -1.715532 3.022373
v -9.020058 -1.715532 1.718272
v -128.516022 2.724350 3.022373
v -9.489849 2.724350 1.718272
v -127.818672 -1.715532 5.124676
v -9.020058 -1.715532 3.820575
v -128.516022 2.724350 5.124676
v -9.489849 2.724350 3.820575
v -127.818672 -1.715532 7.209756
v -9.020058 -1.715532 5.905655
v -128.516022 2.724350 7.209756
v -9.489849 2.724350 5.905655
v -127.818672 -1.715532 9.312059
v -9.020058 -1.715532 8.007957
v -128.516022 2.724350 9.312059
v -9.489849 2.724350 8.007957
v -127.818672 -1.715532 11.319021
v -9.020058 -1.715532 10.014921
v -128.516022 2.724350 11.319021
v -9.489849 2.724350 10.014921
v -127.818672 -1.715532 13.421324
v -9.020058 -1.715532 12.117222
v -128.516022 2.724350 13.421324
v -9.489849 2.724350 12.117222
v -127.818672 -1.715532 15.590639
v -9.020058 -1.715532 14.286537
v -128.516022 2.724350 15.590639
v -9.489849 2.724350 14.286537
v -127.818672 -1.715532 17.692940
v -9.020058 -1.715532 16.388840
v -128.516022 2.724350 17.692940
v -9.489849 2.724350 16.388840
v -127.818672 -1.715532 19.441801
v -9.020058 -1.715532 18.137701
v -128.516022 2.724350 19.441801
v -9.489849 2.724350 18.137701
v -127.818672 -1.715532 -13.338137
v -9.020058 -1.715532 -14.642237
v -128.516022 2.724350 -13.338137
v -9.489849 2.724350 -14.642237
v -127.818672 -1.715532 -10.492672
v -9.020058 -1.715532 -11.796774
v -128.516022 2.724350 -10.492672
v -9.489849 2.724350 -11.796774
v -127.818672 -1.715532 -8.390371
v -9.020058 -1.715532 -9.694471
v -128.516022 2.724350 -8.390371
v -9.489849 2.724350 -9.694471
v -127.818672 -1.715532 -6.118363
v -9.020058 -1.715532 -7.422464
v -128.516022 2.724350 -6.118363
v -9.489849 2.724350 -7.422464
v -3.222948 -1.715532 10.791443
v 2.244402 -1.715532 10.542500
v -3.409525 2.724350 10.791443
v 2.087036 2.724350 10.542500
v -3.222948 -1.715532 12.893744
v 2.244402 -1.715532 12.644801
v -3.409525 2.724350 12.893744
v 2.087036 2.724350 12.644801
v -326.055908 0.000000 19.180346
v 2.182352 0.000000 19.180346
v -326.055908 0.000000 -18.428865
v 2.182352 0.000000 -18.428865
v -20.942802 0.000000 19.180346
v -20.942802 0.000000 -18.428865
v -30.180305 0.000000 19.180346
v -30.180305 0.000000 -18.428865
v -3.222948 -1.715532 6.682178
v 2.244402 -1.715532 6.433234
v -3.409525 2.724350 6.682178
v 2.087036 2.724350 6.433234
v -3.222948 -1.715532 8.784480
v 2.244402 -1.715532 8.535537
v -3.409525 2.724350 8.784480
v 2.087036 2.724350 8.535537
v -3.222948 -1.715532 15.063060
v 2.244402 -1.715532 14.814116
v -3.409525 2.724350 15.063060
v 2.087036 2.724350 14.814116
v -3.222948 -1.715532 17.165361
v 2.244402 -1.715532 16.916418
v -3.409525 2.724350 17.165361
v 2.087036 2.724350 16.916418
v -9.965603 -1.715532 -17.074993
v -9.732285 -1.715532 18.934048
v -10.435394 2.724350 -17.074993
v -10.202072 2.724350 18.934048
v -8.508044 -1.715532 18.934425
v -8.508044 -1.715532 -17.075371
v -8.508044 2.724350 18.934425
v -8.508044 2.724350 -17.075371
v -326.055908 0.000000 13.544493
v -60.450363 0.000000 15.352742
v -30.180305 0.000000 15.557600
v -20.942802 0.000000 15.620461
v 0.081409 0.000000 15.763511
v 2.182352 0.000000 15.777802
v 2.182352 0.000000 8.915397
v -4.139980 0.000000 8.898127
v -20.942802 0.000000 8.852237
v -30.338207 0.000000 8.827021
v -113.577019 0.000000 8.599731
v -326.055878 0.000000 8.019144
v -326.055908 0.000000 1.904311
v -167.908569 0.000000 1.673492
v -30.180305 0.000000 1.472456
v -20.942802 0.000000 1.458976
v -8.725135 0.000000 1.441136
v 2.182352 0.000000 1.425229
v 2.182352 0.000000 -7.509113
v -14.167079 0.000000 -7.409280
v -20.942802 0.000000 -7.367904
v -30.180305 0.000000 -7.311490
v -229.040894 0.000000 -6.097135
v -326.055908 0.000000 -5.504712
v -326.055908 0.000000 -11.910233
v -276.544189 0.000000 -12.135355
v -30.180305 0.000000 -13.255528
v -20.942802 0.000000 -13.297531
v -17.796442 0.000000 -13.311833
v 2.182352 0.000000 -13.402667
vt 0.076115 0.710523
vt 0.076115 0.797557
vt 0.947209 0.710523
vt 0.947209 0.797557
vt 0.338034 0.883162
vt 0.338034 0.979641
vt 0.725811 0.883162
vt 0.725811 0.979641
vt 0.462747 0.815840
vt 0.462747 0.884653
vt 0.573240 0.815840
vt 0.573240 0.884653
vt 0.338034 0.883162
vt 0.338034 0.979641
vt 0.725811 0.883162
vt 0.725811 0.979641
vt 0.338034 0.883162
vt 0.338034 0.979641
vt 0.725811 0.883162
vt 0.725811 0.979641
vt 0.338034 0.883162
vt 0.338034 0.979641
vt 0.725811 0.883162
vt 0.725811 0.979641
vt 0.462747 0.815840
vt 0.462747 0.884653
vt 0.573240 0.815840
vt 0.573240 0.884653
vt 0.076115 0.710523
vt 0.076115 0.797557
vt 0.947209 0.710523
vt 0.947209 0.797557
vt 0.338034 0.883162
vt 0.338034 0.979641
vt 0.725811 0.883162
vt 0.725811 0.979641
vt 0.076115 0.710523
vt 0.076115 0.797557
vt 0.947209 0.710523
vt 0.947209 0.797557
vt 0.462747 0.813473
vt 0.462747 0.882286
vt 0.573240 0.813473
vt 0.573240 0.882286
vt 0.338034 0.883162
vt 0.338034 0.979641
vt 0.725811 0.883162
vt 0.725811 0.979641
vt 0.338034 0.883162
vt 0.338034 0.979641
vt 0.725811 0.883162
vt 0.725811 0.979641
vt 0.338034 0.883162
vt 0.338034 0.979641
vt 0.725811 0.883162
vt 0.725811 0.979641
vt 0.462747 0.813473
vt 0.462747 0.882286
vt 0.573240 0.813473
vt 0.573240 0.882286
vt 0.338034 0.883162
vt 0.338034 0.979641
vt 0.725811 0.883162
vt 0.725811 0.979641
vt 0.462747 0.813473
vt 0.462747 0.882286
vt 0.573240 0.813473
vt 0.573240 0.882286
vt 0.076115 0.707529
vt 0.076115 0.794563
vt 0.947209 0.707529
vt 0.947209 0.794563
vt 0.338034 0.883162
vt 0.338034 0.979641
vt 0.725811 0.883162
vt 0.725811 0.979641
vt 0.462747 0.813473
vt 0.462747 0.882286
vt 0.573240 0.813473
vt 0.573240 0.882286
vt 0.338034 0.883162
vt 0.338034 0.979641
vt 0.725811 0.883162
vt 0.725811 0.979641
vt 0.338034 0.883162
vt 0.338034 0.979641
vt 0.725811 0.883162
vt 0.725811 0.979641
vt 0.076115 0.710523
vt 0.076115 0.797557
vt 0.947209 0.710523
vt 0.947209 0.797557
vt 0.338034 0.883162
vt 0.338034 0.979641
vt 0.725811 0.883162
vt 0.725811 0.979641
vt 0.338034 0.883162
vt 0.338034 0.979641
vt 0.725811 0.883162
vt 0.725811 0.979641
vt 0.076115 0.710523
vt 0.076115 0.797557
vt 0.947209 0.710523
vt 0.947209 0.797557
vt 0.338034 0.883162
vt 0.338034 0.979641
vt 0.725811 0.883162
vt 0.725811 0.979641
vt 0.462747 0.815840
vt 0.462747 0.884653
vt 0.573240 0.815840
vt 0.573240 0.884653
vt -0.000417 0.998008
vt 0.070497 0.998008
vt -0.000417 0.100206
vt 0.070497 0.100206
vt -0.000417 0.072145
vt 0.070497 0.072145
vt -0.000417 0.001992
vt 0.070497 0.001992
vt 0.462747 0.815840
vt 0.462747 0.884653
vt 0.573240 0.815840
vt 0.573240 0.884653
vt 0.462747 0.815840
vt 0.462747 0.884653
vt 0.573240 0.815840
vt 0.573240 0.884653
vt 0.338034 0.883162
vt 0.338034 0.979641
vt 0.725811 0.883162
vt 0.725811 0.979641
vt 0.338034 0.883162
vt 0.338034 0.979641
vt 0.725811 0.883162
vt 0.725811 0.979641
vt 0.338034 0.883162
vt 0.725811 0.883162
vt 0.338034 0.979641
vt 0.725811 0.979641
vt 0.338034 0.883162
vt 0.338034 0.979641
vt 0.725811 0.883162
vt 0.725811 0.979641
vt 0.010210 0.998008
vt 0.006800 0.191578
vt 0.006414 0.100206
vt 0.006295 0.072145
vt 0.006026 0.008365
vt 0.005999 0.001992
vt 0.018938 0.001992
vt 0.018971 0.021172
vt 0.019057 0.072145
vt 0.019105 0.100206
vt 0.019533 0.352785
vt 0.020628 0.998008
vt 0.032158 0.998008
vt 0.032593 0.518127
vt 0.032972 0.100206
vt 0.032998 0.072145
vt 0.033031 0.035081
vt 0.033061 0.001992
vt 0.049907 0.001992
vt 0.049719 0.051590
vt 0.049641 0.072145
vt 0.049535 0.100206
vt 0.047245 0.703627
vt 0.046128 0.998008
vt 0.058206 0.998008
vt 0.058630 0.847770
vt 0.060742 0.100206
vt 0.060822 0.072145
vt 0.060849 0.062600
vt 0.061020 0.001992
vn 0.010956 0.000000 0.999940
vn 0.010956 0.000000 0.999940
vn 0.010956 0.000000 0.999940
vn 0.010956 0.000000 0.999940
vn 0.010956 0.000000 0.999940
vn 0.010956 0.000000 0.999940
vn 0.010956 0.000000 0.999940
vn 0.010956 0.000000 0.999940
vn 0.010956 0.000000 0.999940
vn 0.010956 0.000000 0.999940
vn 0.010956 0.000000 0.999940
vn 0.010956 0.000000 0.999940
vn 0.010956 0.000000 0.999940
vn 0.010956 0.000000 0.999940
vn 0.010956 0.000000 0.999940
vn 0.010956 0.000000 0.999940
vn 0.010956 0.000000 0.999940
vn 0.010956 0.000000 0.999940
vn 0.010956 0.000000 0.999940
vn 0.010956 0.000000 0.999940
vn 0.010956 0.000000 0.999940
vn 0.010956 0.000000 0.999940
vn 0.010956 0.000000 0.999940
vn 0.010956 0.000000 0.999940
vn 0.010956 0.000000 0.999940
vn 0.010956 0.000000 0.999940
vn 0.010956 0.000000 0.999940
vn 0.010956 0.000000 0.999940
vn 0.010956 0.000000 0.999940
vn 0.010956 0.000000 0.999940
vn 0.010956 0.000000 0.999940
vn 0.010956 0.000000 0.999940
vn 0.010956 0.000000 0.999940
vn 0.010956 0.000000 0.999940
vn 0.010956 0.000000 0.999940
vn 0.010956 0.000000 0.999940
vn 0.010956 0.000000 0.999940
vn 0.010956 0.000000 0.999940
vn 0.010956 0.000000 0.999940
vn 0.010956 0.000000 0.999940
vn 0.010956 0.000000 0.999940
vn 0.010956 0.000000 0.999940
vn 0.010956 0.000000 0.999940
vn 0.010956 0.000000 0.999940
vn 0.010956 0.000000 0.999940
vn 0.010956 0.000000 0.999940
vn 0.010956 0.000000 0.999940
vn 0.010956 0.000000 0.999940
vn 0.010956 0.000000 0.999940
vn 0.010956 0.000000 0.999940
vn 0.010956 0.000000 0.999940
vn 0.010956 0.000000 0.999940
vn 0.010956 0.000000 0.999940
vn 0.010956 0.000000 0.999940
vn 0.010956 0.000000 0.999940
vn 0.010956 0.000000 0.999940
vn 0.010956 0.000000 0.999940
vn 0.010956 0.000000 0.999940
vn 0.010956 0.000000 0.999940
vn 0.010956 0.000000 0.999940
vn 0.010956 0.000000 0.999940
vn 0.010956 0.000000 0.999940
vn 0.010956 0.000000 0.999940
vn 0.010956 0.000000 0.999940
vn 0.010956 0.000000 0.999940
vn 0.010956 0.000000 0.999940
vn 0.010956 0.000000 0.999940
vn 0.010956 0.000000 0.999940
vn 0.010956 0.000000 0.999940
vn 0.010956 0.000000 0.999940
vn 0.010956 0.000000 0.999940
vn 0.010956 0.000000 0.999940
vn 0.010956 0.000000 0.999940
vn 0.010956 0.000000 0.999940
vn 0.010956 0.000000 0.999940
vn 0.010956 0.000000 0.999940
vn 0.010956 0.000000 0.999940
vn 0.010956 0.000000 0.999940
vn 0.010956 0.000000 0.999940
vn 0.010956 0.000000 0.999940
vn 0.010956 0.000000 0.999940
vn 0.010956 0.000000 0.999940
vn 0.010956 0.000000 0.999940
vn 0.010956 0.000000 0.999940
vn 0.010956 0.000000 0.999940
vn 0.010956 0.000000 0.999940
vn 0.010956 0.000000 0.999940
vn 0.010956 0.000000 0.999940
vn 0.010956 0.000000 0.999940
vn 0.010956 0.000000 0.999940
vn 0.010956 0.000000 0.999940
vn 0.010956 0.000000 0.999940
vn 0.010956 0.000000 0.999940
vn 0.010956 0.000000 0.999940
vn 0.010956 0.000000 0.999940
vn 0.010956 0.000000 0.999940
vn 0.010956 0.000000 0.999940
vn 0.010956 0.000000 0.999940
vn 0.010956 0.000000 0.999940
vn 0.010956 0.000000 0.999940
vn 0.010956 0.000000 0.999940
vn 0.010956 0.000000 0.999940
vn 0.010956 0.000000 0.999940
vn 0.010956 0.000000 0.999940
vn 0.010956 0.000000 0.999940
vn 0.010956 0.000000 0.999940
vn 0.010956 0.000000 0.999940
vn 0.010956 0.000000 0.999940
vn 0.010956 0.000000 0.999940
vn 0.010956 0.000000 0.999940
vn 0.010956 0.000000 0.999940
vn 0.010956 0.000000 0.999940
vn 0.010956 0.000000 0.999940
vn 0.010956 0.000000 0.999940
vn 0.010956 0.000000 0.999940
vn 0.010956 0.000000 0.999940
vn 0.010956 0.000000 0.999940
vn 0.010956 0.000000 0.999940
vn 0.010956 0.000000 0.999940
vn 0.010956 0.000000 0.999940
vn 0.010956 0.000000 0.999940
vn 0.010956 0.000000 0.999940
vn 0.010956 0.000000 0.999940
vn 0.010956 0.000000 0.999940
vn 0.010956 0.000000 0.999940
vn 0.010956 0.000000 0.999940
vn 0.010956 0.000000 0.999940
vn 0.010956 0.000000 0.999940
vn 0.010956 0.000000 0.999940
vn 0.010956 0.000000 0.999940
vn 0.010956 0.000000 0.999940
vn 0.010956 0.000000 0.999940
vn 0.010956 0.000000 0.999940
vn 0.010956 0.000000 0.999940
vn 0.010956 0.000000 0.999940
vn 0.010956 0.000000 0.999940
vn 0.010956 0.000000 0.999940
vn 0.010956 0.000000 0.999940
vn 0.010956 0.000000 0.999940
vn 0.010956 0.000000 0.999940
vn 0.010956 0.000000 0.999940
vn 0.010956 0.000000 0.999940
vn 0.010956 0.000000 0.999940
vn 0.010956 0.000000 0.999940
vn 0.010956 0.000000 0.999940
vn 0.010956 0.000000 0.999940
vn 0.010956 0.000000 0.999940
vn 0.010956 0.000000 0.999940
vn 0.010956 0.000000 0.999940
vn 0.010956 0.000000 0.999940
vn 0.010956 0.000000 0.999940
vn 0.010956 0.000000 0.999940
vn 0.010956 0.000000 0.999940
vn 0.010956 0.000000 0.999940
vn 0.010956 0.000000 0.999940
vn 0.010956 0.000000 0.999940
vn 0.010956 0.000000 0.999940
vn 0.010956 0.000000 0.999940
vn 0.010956 0.000000 0.999940
vn 0.010956 0.000000 0.999940
vn 0.010956 0.000000 0.999940
vn 0.010956 0.000000 0.999940
vn 0.010956 0.000000 0.999940
vn 0.010956 0.000000 0.999940
vn 0.010956 0.000000 0.999940
vn 0.010956 0.000000 0.999940
vn 0.010956 0.000000 0.999940
vn 0.010956 0.000000 0.999940
vn 0.000000 1.000000 0.000000
vn 0.000000 1.000000 0.000000
vn 0.000000 1.000000 0.000000
vn 0.000000 1.000000 0.000000
vn 0.000000 1.000000 0.000000
vn 0.000000 1.000000 0.000000
vn 0.000000 1.000000 0.000000
vn 0.000000 1.000000 0.000000
vn 0.000000 1.000000 0.000000
vn 0.000000 1.000000 0.000000
vn 0.000000 1.000000 0.000000
vn 0.000000 1.000000 0.000000
vn 0.000000 1.000000 0.000000
vn 0.000000 1.000000 0.000000
vn 0.000000 1.000000 0.000000
vn 0.000000 1.000000 0.000000
vn 0.000000 1.000000 0.000000
vn 0.000000 1.000000 0.000000
vn 0.010956 0.000000 0.999940
vn 0.010956 0.000000 0.999940
vn 0.010956 0.000000 0.999940
vn 0.010956 0.000000 0.999940
vn 0.010956 0.000000 0.999940
vn 0.010956 0.000000 0.999940
vn 0.010956 0.000000 0.999940
vn 0.010956 0.000000 0.999940
vn 0.010956 0.000000 0.999940
vn 0.010956 0.000000 0.999940
vn 0.010956 0.000000 0.999940
vn 0.010956 0.000000 0.999940
vn 0.010956 0.000000 0.999940
vn 0.010956 0.000000 0.999940
vn 0.010956 0.000000 0.999940
vn 0.010956 0.000000 0.999940
vn 0.010956 0.000000 0.999940
vn 0.010956 0.000000 0.999940
vn 0.010956 0.000000 0.999940
vn 0.010956 0.000000 0.999940
vn 0.010956 0.000000 0.999940
vn 0.010956 0.000000 0.999940
vn 0.010956 0.000000 0.999940
vn 0.010956 0.000000 0.999940
vn 0.999979 0.000000 -0.006479
vn 0.999979 0.000000 -0.006479
vn 0.999979 0.000000 -0.006479
vn 0.999979 0.000000 -0.006479
vn 0.999979 0.000000 -0.006479
vn 0.999979 0.000000 -0.006479
vn 1.000000 0.000000 0.000000
vn 1.000000 0.000000 0.000000
vn 1.000000 0.000000 0.000000
vn 1.000000 0.000000 0.000000
vn 1.000000 0.000000 0.000000
vn 1.000000 0.000000 0.000000
vn 0.000000 1.000000 0.000000
vn 0.000000 1.000000 0.000000
vn 0.000000 1.000000 0.000000
vn 0.000000 1.000000 0.000000
vn 0.000000 1.000000 0.000000
vn 0.000000 1.000000 0.000000
vn 0.000000 1.000000 0.000000
vn 0.000000 1.000000 0.000000
vn 0.000000 1.000000 0.000000
vn 0.000000 1.000000 0.000000
vn 0.000000 1.000000 0.000000
vn 0.000000 1.000000 0.000000
vn 0.000000 1.000000 0.000000
vn 0.000000 1.000000 0.000000
vn 0.000000 1.000000 0.000000
vn 0.000000 1.000000 0.000000
vn 0.000000 1.000000 0.000000
vn 0.000000 1.000000 0.000000
vn 0.000000 1.000000 0.000000
vn 0.000000 1.000000 0.000000
vn 0.000000 1.000000 0.000000
vn 0.000000 1.000000 0.000000
vn 0.000000 1.000000 0.000000
vn 0.000000 1.000000 0.000000
vn 0.000000 1.000000 0.000000
vn 0.000000 1.000000 0.000000
vn 0.000000 1.000000 0.000000
vn 0.000000 1.000000 0.000000
vn 0.000000 1.000000 0.000000
vn 0.000000 1.000000 0.000000
vn 0.000000 1.000000 0.000000
vn 0.000000 1.000000 0.000000
vn 0.000000 1.000000 0.000000
vn 0.000000 1.000000 0.000000
vn 0.000000 1.000000 0.000000
vn 0.000000 1.000000 0.000000
vn 0.000000 1.000000 0.000000
vn 0.000000 1.000000 0.000000
vn 0.000000 1.000000 0.000000
vn 0.000000 1.000000 0.000000
vn 0.000000 1.000000 0.000000
vn 0.000000 1.000000 0.000000
vn 0.000000 1.000000 0.000000
vn 0.000000 1.000000 0.000000
vn 0.000000 1.000000 0.000000
vn 0.000000 1.000000 0.000000
vn 0.000000 1.000000 0.000000
vn 0.000000 1.000000 0.000000
s off
g pPlane166
usemtl park_right:lambert2SG
f 1/1/1 2/3/2 3/2/3
f 3/2/4 2/3/5 4/4/6
f 5/5/7 6/7/8 7/6/9
f 7/6/10 6/7/11 8/8/12
f 9/9/13 10/11/14 11/10/15
f 11/10/16 10/11/17 12/12/18
f 13/13/19 14/15/20 15/14/21
f 15/14/22 14/15/23 16/16/24
f 17/17/25 18/19/26 19/18/27
f 19/18/28 18/19/29 20/20/30
f 21/21/31 22/23/32 23/22/33
f 23/22/34 22/23/35 24/24/36
f 25/25/37 26/27/38 27/26/39
f 27/26/40 26/27/41 28/28/42
f 29/29/43 30/31/44 31/30/45
f 31/30/46 30/31/47 32/32/48
f 33/33/49 34/35/50 35/34/51
f 35/34/52 34/35/53 36/36/54
f 37/37/55 38/39/56 39/38/57
f 39/38/58 38/39/59 40/40/60
f 41/41/61 42/43/62 43/42/63
f 43/42/64 42/43/65 44/44/66
f 45/45/67 46/47/68 47/46/69
f 47/46/70 46/47/71 48/48/72
f 49/49/73 50/51/74 51/50/75
f 51/50/76 50/51/77 52/52/78
f 53/53/79 54/55/80 55/54/81
f 55/54/82 54/55/83 56/56/84
f 57/57/85 58/59/86 59/58/87
f 59/58/88 58/59/89 60/60/90
f 61/61/91 62/63/92 63/62/93
f 63/62/94 62/63/95 64/64/96
f 65/65/97 66/67/98 67/66/99
f 67/66/100 66/67/101 68/68/102
f 69/69/103 70/71/104 71/70/105
f 71/70/106 70/71/107 72/72/108
f 73/73/109 74/75/110 75/74/111
f 75/74/112 74/75/113 76/76/114
f 77/77/115 78/79/116 79/78/117
f 79/78/118 78/79/119 80/80/120
f 81/81/121 82/83/122 83/82/123
f 83/82/124 82/83/125 84/84/126
f 85/85/127 86/87/128 87/86/129
f 87/86/130 86/87/131 88/88/132
f 89/89/133 90/91/134 91/90/135
f 91/90/136 90/91/137 92/92/138
f 93/93/139 94/95/140 95/94/141
f 95/94/142 94/95/143 96/96/144
f 97/97/145 98/99/146 99/98/147
f 99/98/148 98/99/149 100/100/150
f 101/101/151 102/103/152 103/102/153
f 103/102/154 102/103/155 104/104/156
f 105/105/157 106/107/158 107/106/159
f 107/106/160 106/107/161 108/108/162
f 109/109/163 110/111/164 111/110/165
f 111/110/166 110/111/167 112/112/168
s 1
f 145/145/169 113/113/170 146/146/171
f 113/113/170 119/115/172 146/146/171
s 2
f 146/146/173 119/115/174 147/147/175
s 3
f 148/148/176 117/117/177 149/149/178
f 117/117/177 114/119/179 149/149/178
s 4
f 149/149/180 114/119/181 150/150/182
s 5
f 117/117/183 148/148/184 119/115/185
f 148/148/184 147/147/186 119/115/185
s off
f 121/121/187 122/123/188 123/122/189
f 123/122/190 122/123/191 124/124/192
f 125/125/193 126/127/194 127/126/195
f 127/126/196 126/127/197 128/128/198
f 129/129/199 130/131/200 131/130/201
f 131/130/202 130/131/203 132/132/204
f 133/133/205 134/135/206 135/134/207
f 135/134/208 134/135/209 136/136/210
f 137/137/211 139/139/212 138/138/213
f 138/138/214 139/139/215 140/140/216
f 141/141/217 142/143/218 143/142/219
f 143/142/220 142/143/221 144/144/222
s 1
f 155/155/223 158/158/224 156/156/225
f 158/158/224 157/157/226 156/156/225
s 2
f 158/158/227 155/155/228 159/159/229
f 155/155/228 154/154/230 159/159/229
s 5
f 153/153/231 160/160/232 154/154/233
f 160/160/232 159/159/234 154/154/233
s 3
f 152/152/235 161/161/236 153/153/237
f 161/161/236 160/160/238 153/153/237
s 4
f 161/161/239 152/152/240 162/162/241
f 152/152/240 151/151/242 162/162/241
f 152/152/240 149/149/180 151/151/242
f 149/149/180 150/150/182 151/151/242
s 3
f 149/149/178 152/152/235 148/148/176
f 152/152/235 153/153/237 148/148/176
s 5
f 154/154/233 147/147/186 153/153/231
f 147/147/186 148/148/184 153/153/231
s 2
f 155/155/228 146/146/173 154/154/230
f 146/146/173 147/147/175 154/154/230
s 1
f 146/146/171 155/155/223 145/145/169
f 155/155/223 156/156/225 145/145/169
f 167/167/243 170/170/244 168/168/245
f 170/170/244 169/169/246 168/168/245
s 2
f 170/170/247 167/167/248 171/171/249
f 167/167/248 166/166/250 171/171/249
s 5
f 166/166/251 165/165/252 171/171/253
f 165/165/252 172/172/254 171/171/253
s 3
f 164/164/255 173/173/256 165/165/257
f 173/173/256 172/172/258 165/165/257
s 4
f 173/173/259 164/164/260 174/174/261
f 164/164/260 163/163/262 174/174/261
f 164/164/260 161/161/239 163/163/262
f 161/161/239 162/162/241 163/163/262
s 3
f 161/161/236 164/164/255 160/160/238
f 164/164/255 165/165/257 160/160/238
s 5
f 159/159/234 160/160/232 166/166/251
f 160/160/232 165/165/252 166/166/251
s 2
f 167/167/248 158/158/227 166/166/250
f 158/158/227 159/159/229 166/166/250
s 1
f 158/158/224 167/167/243 157/157/226
f 167/167/243 168/168/245 157/157/226
f 170/170/244 115/114/263 169/169/246
s 2
f 115/114/264 170/170/247 120/116/265
f 170/170/247 171/171/249 120/116/265
s 5
f 171/171/253 172/172/254 120/116/266
f 172/172/254 118/118/267 120/116/266
s 3
f 173/173/256 118/118/268 172/172/258
s 4
f 118/118/269 173/173/259 116/120/270
f 173/173/259 174/174/261 116/120/270
