# This file uses centimeters as units for non-parametric coordinates.

mtllib railbarrierright.mtl
g default
v -0.019708 1.631273 0.812853
v -0.824275 1.631273 0.812853
v 0.162051 2.643613 0.989165
v -1.006034 2.643613 0.989165
v 0.162051 2.643613 0.042693
v -1.006034 2.643613 0.042693
v -0.019708 1.631273 0.219005
v -0.824275 1.631273 0.219005
v -0.019708 0.086587 0.812853
v -0.824275 0.086587 0.812853
v 0.162051 2.278700 0.989165
v -1.006034 2.278700 0.989165
v 0.162051 2.278700 0.042693
v -1.006034 2.278700 0.042693
v -0.019708 0.086587 0.219005
v -0.824275 0.086587 0.219005
v -0.299123 1.512734 0.597156
v -0.299123 1.593945 0.678366
v -0.236158 1.593945 0.597156
v -12.016411 1.593945 0.597156
v -11.953447 1.593945 0.678366
v -11.953447 1.512734 0.597156
v -0.236158 1.837607 0.597156
v -0.299123 1.837607 0.678366
v -0.299123 1.918817 0.597156
v -11.953447 1.918817 0.597156
v -11.953447 1.837607 0.678366
v -12.016411 1.837607 0.597156
v -0.236158 1.837607 0.434703
v -0.299123 1.918817 0.434703
v -0.299123 1.837607 0.353492
v -11.953447 1.837607 0.353492
v -11.953447 1.918817 0.434703
v -12.016411 1.837607 0.434703
v -0.236158 1.593945 0.434703
v -0.299123 1.593945 0.353492
v -0.299123 1.512734 0.434703
v -11.953447 1.512734 0.434703
v -11.953447 1.593945 0.353492
v -12.016411 1.593945 0.434703
vt 0.863964 0.105547
vt 0.916284 0.105547
vt 0.931817 0.194738
vt 0.848430 0.194738
vt 0.774848 0.105547
vt 0.827168 0.105547
vt 0.842701 0.194738
vt 0.759314 0.194738
vt 0.356038 0.001992
vt 0.408358 0.001992
vt 0.423892 0.195125
vt 0.340505 0.195125
vt 0.445203 0.001992
vt 0.497523 0.001992
vt 0.513057 0.195125
vt 0.429670 0.195125
vt 0.581670 0.112702
vt 0.595983 0.112702
vt 0.595983 0.134169
vt 0.581670 0.134169
vt 0.581670 0.105547
vt 0.595983 0.105547
vt 0.603138 0.134169
vt 0.603138 0.112702
vt 0.581670 0.141324
vt 0.595983 0.141324
vt 0.574515 0.112702
vt 0.574515 0.134169
vt 0.616021 0.112702
vt 0.630334 0.112702
vt 0.630334 0.134169
vt 0.616021 0.134169
vt 0.630334 0.105547
vt 0.616021 0.105547
vt 0.637489 0.112702
vt 0.637489 0.134169
vt 0.630334 0.141324
vt 0.616021 0.141324
vt 0.608866 0.134169
vt 0.608866 0.112702
vt 0.615278 0.101820
vt 0.615278 0.001992
vt 0.698666 0.001992
vt 0.698666 0.101820
vt 0.701266 0.174308
vt 0.701266 0.105547
vt 0.753586 0.105547
vt 0.753586 0.174308
vt 0.800887 0.101820
vt 0.800887 0.001992
vt 0.884274 0.001992
vt 0.884274 0.101820
vt 0.643217 0.174308
vt 0.643217 0.105547
vt 0.695537 0.105547
vt 0.695537 0.174308
vt 0.043771 0.998008
vt 0.043771 0.001992
vt 0.058084 0.001992
vt 0.058084 0.998008
vt 0.036616 0.998008
vt 0.036616 0.001992
vt 0.065239 0.998008
vt 0.065239 0.001992
vt 0.009015 0.998008
vt 0.009015 0.001992
vt 0.023328 0.001992
vt 0.023328 0.998008
vt 0.001860 0.998008
vt 0.001860 0.001992
vt 0.030482 0.998008
vt 0.030482 0.001992
vt 0.518835 0.086287
vt 0.518835 0.017526
vt 0.608025 0.001992
vt 0.608025 0.101820
vt 0.704443 0.101820
vt 0.704443 0.001992
vt 0.793634 0.017526
vt 0.793634 0.086287
vt 0.141315 0.001992
vt 0.210075 0.001992
vt 0.225609 0.195125
vt 0.125781 0.195125
vt 0.233143 0.001992
vt 0.332971 0.001992
vt 0.317437 0.195125
vt 0.248676 0.195125
vt 0.071190 0.998008
vt 0.071190 0.001992
vt 0.092658 0.001992
vt 0.092658 0.998008
vt 0.098486 0.998008
vt 0.098486 0.001992
vt 0.119953 0.001992
vt 0.119953 0.998008
vn 0.000000 -0.171580 0.985170
vn 0.000000 -0.171580 0.985170
vn 0.000000 -0.171580 0.985170
vn 0.000000 -0.171580 0.985170
vn 0.000000 1.000000 0.000000
vn 0.000000 1.000000 0.000000
vn 0.000000 1.000000 0.000000
vn 0.000000 1.000000 0.000000
vn 0.000000 -0.171580 -0.985170
vn 0.000000 -0.171580 -0.985170
vn 0.000000 -0.171580 -0.985170
vn 0.000000 -0.171580 -0.985170
vn 0.000000 -1.000000 0.000000
vn 0.000000 -1.000000 0.000000
vn 0.000000 -1.000000 0.000000
vn 0.000000 -1.000000 0.000000
vn -0.984262 -0.176717 0.000000
vn -0.984262 -0.176717 0.000000
vn -0.984262 -0.176717 0.000000
vn -0.984262 -0.176717 0.000000
vn 0.984262 -0.176718 0.000000
vn 0.984262 -0.176718 0.000000
vn 0.984262 -0.176718 0.000000
vn 0.984262 -0.176718 0.000000
vn 0.000000 -0.080171 0.996781
vn 0.000000 -0.080171 0.996781
vn 0.000000 -0.080171 0.996781
vn 0.000000 -0.080171 0.996781
vn 0.000000 1.000000 0.000000
vn 0.000000 1.000000 0.000000
vn 0.000000 1.000000 0.000000
vn 0.000000 1.000000 0.000000
vn 0.000000 -0.080171 -0.996781
vn 0.000000 -0.080171 -0.996781
vn 0.000000 -0.080171 -0.996781
vn 0.000000 -0.080171 -0.996781
vn 0.000000 -1.000000 0.000000
vn 0.000000 -1.000000 0.000000
vn 0.000000 -1.000000 0.000000
vn 0.000000 -1.000000 0.000000
vn -0.996580 -0.082631 0.000000
vn -0.996580 -0.082631 0.000000
vn -0.996580 -0.082631 0.000000
vn -0.996580 -0.082631 0.000000
vn 0.996580 -0.082632 0.000000
vn 0.996580 -0.082632 0.000000
vn 0.996580 -0.082632 0.000000
vn 0.996580 -0.082632 0.000000
vn 0.790292 -0.612730 0.000000
vn 0.790292 -0.612730 0.000000
vn 0.790292 -0.612730 0.000000
vn 0.790292 -0.612730 0.000000
vn 0.000000 -0.707107 0.707106
vn 0.000000 -0.707107 0.707107
vn 0.000000 -0.707107 0.707106
vn 0.000000 -0.707107 0.707107
vn 0.790292 0.000000 0.612731
vn 0.790292 0.000000 0.612730
vn 0.790292 0.000000 0.612730
vn 0.790292 0.000000 0.612730
vn -0.790301 -0.612719 0.000000
vn -0.790295 -0.612727 0.000000
vn -0.790297 -0.612723 0.000000
vn -0.790291 -0.612731 0.000000
vn -0.790292 0.000000 0.612731
vn -0.790292 0.000000 0.612730
vn -0.790292 0.000000 0.612730
vn -0.790292 0.000000 0.612730
vn 0.790292 0.612730 0.000000
vn 0.790292 0.612730 0.000000
vn 0.790292 0.612730 0.000000
vn 0.790292 0.612730 0.000000
vn 0.000000 0.707106 0.707107
vn 0.000000 0.707107 0.707107
vn 0.000000 0.707106 0.707107
vn 0.000000 0.707107 0.707107
vn -0.790291 0.612732 0.000000
vn -0.790297 0.612723 0.000000
vn -0.790295 0.612727 0.000000
vn -0.790301 0.612719 0.000000
vn 0.790292 0.000000 -0.612730
vn 0.790292 0.000000 -0.612731
vn 0.790292 0.000000 -0.612730
vn 0.790292 0.000000 -0.612731
vn 0.000000 0.707107 -0.707106
vn 0.000000 0.707106 -0.707108
vn 0.000000 0.707107 -0.707106
vn 0.000000 0.707106 -0.707107
vn -0.790292 0.000000 -0.612730
vn -0.790292 0.000000 -0.612731
vn -0.790292 0.000000 -0.612730
vn -0.790292 0.000000 -0.612731
vn 0.000000 -0.707107 -0.707106
vn 0.000000 -0.707107 -0.707107
vn 0.000000 -0.707107 -0.707106
vn 0.000000 -0.707107 -0.707107
vn 0.000000 0.000000 1.000000
vn 0.000000 0.000000 1.000000
vn 0.000000 0.000000 1.000000
vn 0.000000 0.000000 1.000000
vn 0.000000 1.000000 0.000000
vn 0.000000 1.000000 0.000000
vn 0.000000 1.000000 0.000000
vn 0.000000 1.000000 0.000000
vn 0.000000 0.000000 -1.000000
vn 0.000000 0.000000 -1.000000
vn 0.000000 0.000000 -1.000000
vn 0.000000 0.000000 -1.000000
vn 0.000000 -1.000000 0.000000
vn 0.000000 -1.000000 0.000000
vn 0.000000 -1.000000 0.000000
vn 0.000000 -1.000000 0.000000
vn -1.000000 0.000000 0.000000
vn -1.000000 0.000000 0.000000
vn -1.000000 0.000000 0.000000
vn -1.000000 0.000000 0.000000
vn 1.000000 0.000000 0.000000
vn 1.000000 0.000000 0.000000
vn 1.000000 0.000000 0.000000
vn 1.000000 0.000000 0.000000
vn 0.673856 -0.522455 0.522455
vn 0.673856 -0.522455 0.522455
vn 0.673856 -0.522455 0.522455
vn -0.673849 -0.522469 0.522450
vn -0.673849 -0.522469 0.522450
vn -0.673849 -0.522469 0.522450
vn 0.673856 0.522455 0.522455
vn 0.673856 0.522455 0.522455
vn 0.673856 0.522455 0.522455
vn -0.673849 0.522469 0.522450
vn -0.673849 0.522469 0.522450
vn -0.673849 0.522469 0.522450
vn 0.673856 0.522455 -0.522455
vn 0.673856 0.522455 -0.522455
vn 0.673856 0.522455 -0.522455
vn -0.673849 0.522469 -0.522450
vn -0.673849 0.522469 -0.522450
vn -0.673849 0.522469 -0.522450
vn 0.673856 -0.522455 -0.522455
vn 0.673856 -0.522455 -0.522455
vn 0.673856 -0.522455 -0.522455
vn -0.673849 -0.522469 -0.522450
vn -0.673849 -0.522469 -0.522450
vn -0.673849 -0.522469 -0.522450
s 1
g pCube48
usemtl initialShadingGroup
f 1/73/1 3/76/2 2/74/3
f 3/76/2 4/75/4 2/74/3
s 2
f 3/41/5 5/44/6 4/42/7
f 5/44/6 6/43/8 4/42/7
s 3
f 5/77/9 7/80/10 6/78/11
f 7/80/10 8/79/12 6/78/11
s 4
f 7/45/13 1/48/14 8/46/15
f 1/48/14 2/47/16 8/46/15
s 5
f 2/1/17 4/4/18 8/2/19
f 4/4/18 6/3/20 8/2/19
s 6
f 7/5/21 5/8/22 1/6/23
f 5/8/22 3/7/24 1/6/23
s 7
f 9/81/25 11/84/26 10/82/27
f 11/84/26 12/83/28 10/82/27
s 8
f 11/49/29 13/52/30 12/50/31
f 13/52/30 14/51/32 12/50/31
s 9
f 13/85/33 15/88/34 14/86/35
f 15/88/34 16/87/36 14/86/35
s 10
f 15/53/37 9/56/38 16/54/39
f 9/56/38 10/55/40 16/54/39
s 11
f 10/9/41 12/12/42 16/10/43
f 12/12/42 14/11/44 16/10/43
s 12
f 15/13/45 13/16/46 9/14/47
f 13/16/46 11/15/48 9/14/47
s 13
f 17/33/49 37/34/50 19/30/51
f 37/34/50 35/29/52 19/30/51
s 14
f 18/71/53 21/72/54 17/68/55
f 21/72/54 22/67/56 17/68/55
s 15
f 19/30/57 23/31/58 18/35/59
f 23/31/58 24/36/60 18/35/59
s 16
f 20/17/61 40/18/62 22/21/63
f 40/18/62 38/22/64 22/21/63
s 17
f 21/27/65 27/28/66 20/17/67
f 27/28/66 28/20/68 20/17/67
s 18
f 23/31/69 29/32/70 25/37/71
f 29/32/70 30/38/72 25/37/71
s 19
f 25/57/73 26/58/74 24/61/75
f 26/58/74 27/62/76 24/61/75
s 20
f 26/25/77 33/26/78 28/20/79
f 33/26/78 34/19/80 28/20/79
s 21
f 29/32/81 35/29/82 31/39/83
f 35/29/82 36/40/84 31/39/83
s 22
f 31/63/85 32/64/86 30/60/87
f 32/64/86 33/59/88 30/60/87
s 23
f 32/23/89 39/24/90 34/19/91
f 39/24/90 40/18/92 34/19/91
s 24
f 37/65/93 38/66/94 36/69/95
f 38/66/94 39/70/96 36/69/95
s 25
f 18/89/97 24/92/98 21/90/99
f 24/92/98 27/91/100 21/90/99
s 26
f 25/57/101 30/60/102 26/58/103
f 30/60/102 33/59/104 26/58/103
s 27
f 31/93/105 36/96/106 32/94/107
f 36/96/106 39/95/108 32/94/107
s 28
f 37/65/109 17/68/110 38/66/111
f 17/68/110 22/67/112 38/66/111
s 29
f 20/17/113 28/20/114 40/18/115
f 28/20/114 34/19/116 40/18/115
s 30
f 35/29/117 29/32/118 19/30/119
f 29/32/118 23/31/120 19/30/119
s off
f 17/33/121 19/30/122 18/35/123
f 20/17/124 22/21/125 21/27/126
f 23/31/127 25/37/128 24/36/129
f 26/25/130 28/20/131 27/28/132
f 29/32/133 31/39/134 30/38/135
f 32/23/136 34/19/137 33/26/138
f 35/29/139 37/34/140 36/40/141
f 38/22/142 40/18/143 39/24/144
