# This file uses centimeters as units for non-parametric coordinates.

mtllib railbarrierleft.mtl
g default
v -0.820825 1.631273 0.812853
v -0.040369 1.631273 0.812853
v -0.997137 2.643613 0.989165
v 0.135943 2.643613 0.989165
v -0.997137 2.643613 0.042693
v 0.135943 2.643613 0.042693
v -0.820825 1.631273 0.219005
v -0.040369 1.631273 0.219005
v -0.820825 0.086587 0.812853
v -0.040369 0.086587 0.812853
v -0.997137 2.278700 0.989165
v 0.135943 2.278700 0.989165
v -0.997137 2.278700 0.042693
v 0.135943 2.278700 0.042693
v -0.820825 0.086587 0.219005
v -0.040369 0.086587 0.219005
v -0.549784 1.512734 0.597156
v -0.549784 1.593945 0.678366
v -0.610861 1.593945 0.597156
v 10.816365 1.593945 0.597156
v 10.755288 1.593945 0.678366
v 10.755288 1.512734 0.597156
v -0.610861 1.837607 0.597156
v -0.549784 1.837607 0.678366
v -0.549784 1.918817 0.597156
v 10.755288 1.918817 0.597156
v 10.755288 1.837607 0.678366
v 10.816365 1.837607 0.597156
v -0.610861 1.837607 0.434703
v -0.549784 1.918817 0.434703
v -0.549784 1.837607 0.353492
v 10.755288 1.837607 0.353492
v 10.755288 1.918817 0.434703
v 10.816365 1.837607 0.434703
v -0.610861 1.593945 0.434703
v -0.549784 1.593945 0.353492
v -0.549784 1.512734 0.434703
v 10.755288 1.512734 0.434703
v 10.755288 1.593945 0.353492
v 10.816365 1.593945 0.434703
vt 0.863964 0.105547
vt 0.916284 0.105547
vt 0.931817 0.194738
vt 0.848430 0.194738
vt 0.774848 0.105547
vt 0.827168 0.105547
vt 0.842701 0.194738
vt 0.759314 0.194738
vt 0.356038 0.001992
vt 0.408358 0.001992
vt 0.423892 0.195125
vt 0.340505 0.195125
vt 0.445203 0.001992
vt 0.497523 0.001992
vt 0.513057 0.195125
vt 0.429670 0.195125
vt 0.581670 0.112702
vt 0.595983 0.112702
vt 0.595983 0.134169
vt 0.581670 0.134169
vt 0.581670 0.105547
vt 0.595983 0.105547
vt 0.603138 0.134169
vt 0.603138 0.112702
vt 0.581670 0.141324
vt 0.595983 0.141324
vt 0.574515 0.112702
vt 0.574515 0.134169
vt 0.616021 0.112702
vt 0.630334 0.112702
vt 0.630334 0.134169
vt 0.616021 0.134169
vt 0.630334 0.105547
vt 0.616021 0.105547
vt 0.637489 0.112702
vt 0.637489 0.134169
vt 0.630334 0.141324
vt 0.616021 0.141324
vt 0.608866 0.134169
vt 0.608866 0.112702
vt 0.615278 0.101820
vt 0.615278 0.001992
vt 0.698666 0.001992
vt 0.698666 0.101820
vt 0.701266 0.174308
vt 0.701266 0.105547
vt 0.753586 0.105547
vt 0.753586 0.174308
vt 0.800887 0.101820
vt 0.800887 0.001992
vt 0.884274 0.001992
vt 0.884274 0.101820
vt 0.643217 0.174308
vt 0.643217 0.105547
vt 0.695537 0.105547
vt 0.695537 0.174308
vt 0.043771 0.998008
vt 0.043771 0.001992
vt 0.058084 0.001992
vt 0.058084 0.998008
vt 0.036616 0.998008
vt 0.036616 0.001992
vt 0.065239 0.998008
vt 0.065239 0.001992
vt 0.009015 0.998008
vt 0.009015 0.001992
vt 0.023328 0.001992
vt 0.023328 0.998008
vt 0.001860 0.998008
vt 0.001860 0.001992
vt 0.030482 0.998008
vt 0.030482 0.001992
vt 0.518835 0.086287
vt 0.518835 0.017526
vt 0.608025 0.001992
vt 0.608025 0.101820
vt 0.704443 0.101820
vt 0.704443 0.001992
vt 0.793634 0.017526
vt 0.793634 0.086287
vt 0.141315 0.001992
vt 0.210075 0.001992
vt 0.225609 0.195125
vt 0.125781 0.195125
vt 0.233143 0.001992
vt 0.332971 0.001992
vt 0.317437 0.195125
vt 0.248676 0.195125
vt 0.071190 0.998008
vt 0.071190 0.001992
vt 0.092658 0.001992
vt 0.092658 0.998008
vt 0.098486 0.998008
vt 0.098486 0.001992
vt 0.119953 0.001992
vt 0.119953 0.998008
vn 0.000000 -0.171580 0.985170
vn 0.000000 -0.171580 0.985170
vn 0.000000 -0.171580 0.985170
vn 0.000000 -0.171580 0.985170
vn 0.000000 1.000000 0.000000
vn 0.000000 1.000000 0.000000
vn 0.000000 1.000000 0.000000
vn 0.000000 1.000000 0.000000
vn 0.000000 -0.171580 -0.985170
vn 0.000000 -0.171580 -0.985170
vn 0.000000 -0.171580 -0.985170
vn 0.000000 -0.171580 -0.985170
vn 0.000000 -1.000000 0.000000
vn 0.000000 -1.000000 0.000000
vn 0.000000 -1.000000 0.000000
vn 0.000000 -1.000000 0.000000
vn 0.985170 -0.171580 0.000000
vn 0.985170 -0.171580 0.000000
vn 0.985170 -0.171580 0.000000
vn 0.985170 -0.171580 0.000000
vn -0.985170 -0.171580 0.000000
vn -0.985170 -0.171580 0.000000
vn -0.985170 -0.171581 0.000000
vn -0.985170 -0.171581 0.000000
vn 0.000000 -0.080171 0.996781
vn 0.000000 -0.080171 0.996781
vn 0.000000 -0.080171 0.996781
vn 0.000000 -0.080171 0.996781
vn 0.000000 1.000000 0.000000
vn 0.000000 1.000000 0.000000
vn 0.000000 1.000000 0.000000
vn 0.000000 1.000000 0.000000
vn 0.000000 -0.080171 -0.996781
vn 0.000000 -0.080171 -0.996781
vn 0.000000 -0.080171 -0.996781
vn 0.000000 -0.080171 -0.996781
vn 0.000000 -1.000000 0.000000
vn 0.000000 -1.000000 0.000000
vn 0.000000 -1.000000 0.000000
vn 0.000000 -1.000000 0.000000
vn 0.996781 -0.080172 0.000000
vn 0.996781 -0.080171 0.000000
vn 0.996781 -0.080171 0.000000
vn 0.996781 -0.080171 0.000000
vn -0.996781 -0.080171 0.000000
vn -0.996781 -0.080171 0.000000
vn -0.996781 -0.080172 0.000000
vn -0.996781 -0.080172 0.000000
vn -0.799199 -0.601067 0.000000
vn -0.799199 -0.601067 0.000000
vn -0.799199 -0.601067 0.000000
vn -0.799199 -0.601067 0.000000
vn 0.000000 -0.707107 0.707106
vn 0.000000 -0.707107 0.707106
vn 0.000000 -0.707106 0.707107
vn 0.000000 -0.707106 0.707107
vn -0.799199 0.000000 0.601066
vn -0.799199 0.000000 0.601066
vn -0.799199 0.000000 0.601066
vn -0.799199 0.000000 0.601066
vn 0.799199 -0.601067 0.000000
vn 0.799199 -0.601067 0.000000
vn 0.799199 -0.601067 0.000000
vn 0.799199 -0.601067 0.000000
vn 0.799199 0.000000 0.601066
vn 0.799199 0.000000 0.601066
vn 0.799199 0.000000 0.601066
vn 0.799199 0.000000 0.601066
vn -0.799199 0.601067 0.000000
vn -0.799199 0.601067 0.000000
vn -0.799199 0.601067 0.000000
vn -0.799199 0.601067 0.000000
vn 0.000000 0.707107 0.707106
vn 0.000000 0.707107 0.707106
vn 0.000000 0.707106 0.707107
vn 0.000000 0.707106 0.707107
vn 0.799199 0.601067 0.000000
vn 0.799199 0.601067 0.000000
vn 0.799199 0.601067 0.000000
vn 0.799199 0.601067 0.000000
vn -0.799199 0.000000 -0.601066
vn -0.799199 0.000000 -0.601066
vn -0.799199 0.000000 -0.601066
vn -0.799199 0.000000 -0.601066
vn 0.000000 0.707106 -0.707107
vn 0.000000 0.707106 -0.707107
vn 0.000000 0.707107 -0.707106
vn 0.000000 0.707107 -0.707106
vn 0.799199 0.000000 -0.601066
vn 0.799199 0.000000 -0.601066
vn 0.799199 0.000000 -0.601066
vn 0.799199 0.000000 -0.601066
vn 0.000000 -0.707106 -0.707107
vn 0.000000 -0.707106 -0.707107
vn 0.000000 -0.707107 -0.707106
vn 0.000000 -0.707107 -0.707106
vn 0.000000 0.000000 1.000000
vn 0.000000 0.000000 1.000000
vn 0.000000 0.000000 1.000000
vn 0.000000 0.000000 1.000000
vn 0.000000 1.000000 0.000000
vn 0.000000 1.000000 0.000000
vn 0.000000 1.000000 0.000000
vn 0.000000 1.000000 0.000000
vn 0.000000 0.000000 -1.000000
vn 0.000000 0.000000 -1.000000
vn 0.000000 0.000000 -1.000000
vn 0.000000 0.000000 -1.000000
vn 0.000000 -1.000000 0.000000
vn 0.000000 -1.000000 0.000000
vn 0.000000 -1.000000 0.000000
vn 0.000000 -1.000000 0.000000
vn 1.000000 0.000000 0.000000
vn 1.000000 0.000000 0.000000
vn 1.000000 0.000000 0.000000
vn 1.000000 0.000000 0.000000
vn -1.000000 0.000000 0.000000
vn -1.000000 0.000000 0.000000
vn -1.000000 0.000000 0.000000
vn -1.000000 0.000000 0.000000
vn -0.684989 -0.515165 0.515165
vn -0.684989 -0.515165 0.515165
vn -0.684989 -0.515165 0.515165
vn 0.684989 -0.515165 0.515165
vn 0.684989 -0.515165 0.515165
vn 0.684989 -0.515165 0.515165
vn -0.684989 0.515165 0.515165
vn -0.684989 0.515165 0.515165
vn -0.684989 0.515165 0.515165
vn 0.684989 0.515165 0.515165
vn 0.684989 0.515165 0.515165
vn 0.684989 0.515165 0.515165
vn -0.684984 0.515168 -0.515168
vn -0.684984 0.515168 -0.515168
vn -0.684984 0.515168 -0.515168
vn 0.684984 0.515168 -0.515168
vn 0.684984 0.515168 -0.515168
vn 0.684984 0.515168 -0.515168
vn -0.684984 -0.515168 -0.515168
vn -0.684984 -0.515168 -0.515168
vn -0.684984 -0.515168 -0.515168
vn 0.684984 -0.515168 -0.515168
vn 0.684984 -0.515168 -0.515168
vn 0.684984 -0.515168 -0.515168
s 1
g pCube46
usemtl initialShadingGroup
f 1/73/1 2/74/2 3/76/3
f 3/76/3 2/74/2 4/75/4
s 2
f 3/41/5 4/42/6 5/44/7
f 5/44/7 4/42/6 6/43/8
s 3
f 5/77/9 6/78/10 7/80/11
f 7/80/11 6/78/10 8/79/12
s 4
f 7/45/13 8/46/14 1/48/15
f 1/48/15 8/46/14 2/47/16
s 5
f 2/1/17 8/2/18 4/4/19
f 4/4/19 8/2/18 6/3/20
s 6
f 7/5/21 1/6/22 5/8/23
f 5/8/23 1/6/22 3/7/24
s 7
f 9/81/25 10/82/26 11/84/27
f 11/84/27 10/82/26 12/83/28
s 8
f 11/49/29 12/50/30 13/52/31
f 13/52/31 12/50/30 14/51/32
s 9
f 13/85/33 14/86/34 15/88/35
f 15/88/35 14/86/34 16/87/36
s 10
f 15/53/37 16/54/38 9/56/39
f 9/56/39 16/54/38 10/55/40
s 11
f 10/9/41 16/10/42 12/12/43
f 12/12/43 16/10/42 14/11/44
s 12
f 15/13/45 9/14/46 13/16/47
f 13/16/47 9/14/46 11/15/48
s 13
f 17/33/49 19/30/50 37/34/51
f 37/34/51 19/30/50 35/29/52
s 14
f 18/71/53 17/68/54 21/72/55
f 21/72/55 17/68/54 22/67/56
s 15
f 19/30/57 18/35/58 23/31/59
f 23/31/59 18/35/58 24/36/60
s 16
f 20/17/61 22/21/62 40/18/63
f 40/18/63 22/21/62 38/22/64
s 17
f 21/27/65 20/17/66 27/28/67
f 27/28/67 20/17/66 28/20/68
s 18
f 23/31/69 25/37/70 29/32/71
f 29/32/71 25/37/70 30/38/72
s 19
f 25/57/73 24/61/74 26/58/75
f 26/58/75 24/61/74 27/62/76
s 20
f 26/25/77 28/20/78 33/26/79
f 33/26/79 28/20/78 34/19/80
s 21
f 29/32/81 31/39/82 35/29/83
f 35/29/83 31/39/82 36/40/84
s 22
f 31/63/85 30/60/86 32/64/87
f 32/64/87 30/60/86 33/59/88
s 23
f 32/23/89 34/19/90 39/24/91
f 39/24/91 34/19/90 40/18/92
s 24
f 37/65/93 36/69/94 38/66/95
f 38/66/95 36/69/94 39/70/96
s 25
f 18/89/97 21/90/98 24/92/99
f 24/92/99 21/90/98 27/91/100
s 26
f 25/57/101 26/58/102 30/60/103
f 30/60/103 26/58/102 33/59/104
s 27
f 31/93/105 32/94/106 36/96/107
f 36/96/107 32/94/106 39/95/108
s 28
f 37/65/109 38/66/110 17/68/111
f 17/68/111 38/66/110 22/67/112
s 29
f 20/17/113 40/18/114 28/20/115
f 28/20/115 40/18/114 34/19/116
s 30
f 35/29/117 19/30/118 29/32/119
f 29/32/119 19/30/118 23/31/120
s off
f 17/33/121 18/35/122 19/30/123
f 20/17/124 21/27/125 22/21/126
f 23/31/127 24/36/128 25/37/129
f 26/25/130 27/28/131 28/20/132
f 29/32/133 30/38/134 31/39/135
f 32/23/136 33/26/137 34/19/138
f 35/29/139 36/40/140 37/34/141
f 38/22/142 39/24/143 40/18/144
