# This file uses centimeters as units for non-parametric coordinates.

mtllib streetintersection.mtl
g default
v -187.381009 -0.000000 10.785208
v 175.176320 -0.000000 10.785208
v -187.381009 0.000000 -12.020937
v 175.176320 0.000000 -12.020937
v -22.957993 0.000000 -12.020937
v -23.036300 0.000000 -1.683071
v -23.130936 -0.000000 10.785208
v 22.413172 0.000000 -12.020937
v 22.448737 -0.000000 1.178100
v 22.474777 -0.000000 10.785208
v -187.381009 -0.000000 18.009034
v -23.130936 -0.000000 18.009034
v -187.381009 0.000000 -19.244763
v -22.957993 0.000000 -19.244763
v 22.413172 0.000000 -19.244763
v 175.176320 0.000000 -19.244763
v 22.474777 -0.000000 18.009034
v 175.176320 -0.000000 18.009034
vt 0.000089 0.998008
vt 0.000089 0.001992
vt 0.044598 0.001992
vt 0.044598 0.998008
vt 0.044598 0.546306
vt 0.024423 0.546521
vt 0.000089 0.546781
vt 0.044598 0.421662
vt 0.018839 0.421565
vt 0.000089 0.421493
vt 0.064737 0.902275
vt 0.935263 0.902275
vt 0.935263 0.995166
vt 0.064737 0.995166
vt 0.064737 0.902275
vt 0.935263 0.902275
vt 0.935263 0.995166
vt 0.064737 0.995166
vt 0.064737 0.902275
vt 0.935263 0.902275
vt 0.935263 0.995166
vt 0.064737 0.995166
vt 0.064737 0.902275
vt 0.935263 0.902275
vt 0.935263 0.995166
vt 0.064737 0.995166
vn 0.000000 1.000000 0.000000
vn 0.000000 1.000000 0.000000
vn 0.000000 1.000000 0.000000
vn 0.000000 1.000000 0.000000
vn 0.000000 1.000000 0.000000
vn -0.000000 1.000000 0.000000
vn -0.000000 1.000000 0.000000
vn 0.000000 1.000000 0.000000
vn -0.000000 1.000000 0.000000
vn -0.000000 1.000000 0.000000
vn 0.000000 1.000000 0.000000
vn 0.000000 1.000000 0.000000
vn 0.000000 1.000000 0.000000
vn 0.000000 1.000000 0.000000
vn 0.000000 1.000000 0.000000
vn 0.000000 1.000000 0.000000
vn 0.000000 1.000000 0.000000
vn 0.000000 1.000000 0.000000
vn 0.000000 1.000000 0.000000
vn 0.000000 1.000000 0.000000
vn 0.000000 1.000000 0.000000
vn 0.000000 1.000000 0.000000
vn 0.000000 1.000000 0.000000
vn 0.000000 1.000000 0.000000
vn 0.000000 1.000000 0.000000
vn 0.000000 1.000000 0.000000
s 1
g pPlane122
usemtl initialShadingGroup
f 9/9/1 10/10/2 2/2/3
f 8/8/4 9/9/1 4/3/5
f 4/3/5 9/9/1 2/2/3
f 3/4/6 6/6/7 5/5/8
f 7/7/9 6/6/7 1/1/10
f 1/1/10 6/6/7 3/4/6
f 5/5/8 6/6/7 8/8/4
f 8/8/4 6/6/7 9/9/1
f 6/6/7 7/7/9 9/9/1
f 9/9/1 7/7/9 10/10/2
s 5
f 7/11/11 1/12/12 12/14/13
f 12/14/13 1/12/12 11/13/14
s 6
f 3/15/15 5/16/16 13/18/17
f 13/18/17 5/16/16 14/17/18
s 7
f 8/19/19 4/20/20 15/22/21
f 15/22/21 4/20/20 16/21/22
s 8
f 2/23/23 10/24/24 18/26/25
f 18/26/25 10/24/24 17/25/26
