# This file uses centimeters as units for non-parametric coordinates.

mtllib grass_left.mtl
g default
v -41.894882 -0.044964 -2.597203
v -20.522396 -0.044964 -2.597203
v -44.313087 -0.046178 0.353613
v -17.368519 -0.046178 1.012696
v -3.780363 -0.147362 -1.679606
v -5.146248 -0.147362 0.365741
v -3.780363 2.025215 -1.679606
v -5.146248 2.025215 0.365741
v -20.451086 -0.455241 -0.720671
v -39.544701 -0.455242 -0.770539
v -20.451086 1.717335 -0.720671
v -39.544701 1.717335 -0.770539
v -0.306765 -0.222998 -2.665534
v -0.219969 -0.222998 -0.059117
v -0.306765 1.949578 -2.665534
v -0.219969 1.949578 -0.059117
v -41.504292 -0.045413 -2.389975
v -20.442242 -0.045413 -2.389975
v -41.504292 2.127164 -2.389975
v -20.442242 2.127164 -2.389975
v -20.577368 -0.045413 -0.085261
v -41.083698 -0.045413 -0.085261
v -20.577368 2.127164 -0.085261
v -41.083698 2.127164 -0.085261
v -41.777077 -0.045413 -1.435455
v -20.715027 -0.045413 -1.435455
v -41.777077 2.127164 -1.435455
v -20.715027 2.127164 -1.435455
v 1.011312 -0.207414 -1.658461
v -1.046978 -0.207414 -0.312160
v 1.011312 1.965163 -1.658461
v -1.046978 1.965163 -0.312160
v -15.331409 0.102841 -0.853367
v -21.042963 0.102841 -0.853367
v -15.331409 2.275418 -0.853367
v -21.042963 2.275418 -0.853367
v -20.588377 -0.004337 -0.236557
v -42.142689 -0.004337 -0.236557
v -19.148003 -0.005633 1.716540
v -43.686520 -0.005624 1.612828
v -35.038406 0.102841 -2.095069
v -40.198524 0.102841 0.353407
v -35.038406 2.275418 -2.095069
v -40.198524 2.275418 0.353407
v -1.288624 -0.455241 -0.720671
v -20.382236 -0.455242 -0.770539
v -1.288624 1.717335 -0.720671
v -20.382236 1.717335 -0.770539
v -19.433495 -0.240581 -1.873932
v -20.799379 -0.240581 0.171416
v -19.433495 1.931996 -1.873932
v -20.799379 1.931996 0.171416
v -7.187102 0.065527 -1.466354
v -9.285765 0.065527 -0.183895
v -7.187102 2.238103 -1.466354
v -9.285765 2.238103 -0.183895
v 0.048175 -0.045413 -0.085260
v -20.458157 -0.045413 -0.085260
v 0.048175 2.127164 -0.085260
v -20.458157 2.127164 -0.085260
v -12.341976 -0.045413 0.274583
v -14.801465 -0.045413 0.274583
v -12.341976 2.127164 0.274583
v -14.801465 2.127164 0.274583
v -11.780651 -0.045413 -1.139819
v -14.240139 -0.045413 -1.139819
v -11.780651 2.127164 -1.139819
v -14.240139 2.127164 -1.139819
v -21.269341 -0.044964 -2.597203
v 0.103146 -0.044964 -2.597203
v -19.557219 -0.046178 1.012696
v -0.031296 -0.046178 1.012696
v -7.198780 -0.074022 -1.709234
v -5.133647 -0.074022 -1.709234
v -7.198780 1.762455 -1.709234
v -5.133647 1.762455 -1.709234
v 0.191003 -0.045413 -0.922184
v -2.268485 -0.045413 -0.922184
v 0.191003 2.127164 -0.922184
v -2.268485 2.127164 -0.922184
v 0.048175 -0.045413 -0.085260
v -20.458157 -0.045413 -0.085260
v 0.048175 2.127164 -0.085260
v -20.458157 2.127164 -0.085260
v 0.046837 -0.044906 -1.387090
v -20.518667 -0.044908 -1.437826
v -1.654520 -0.046188 0.789491
v -18.797203 -0.046201 0.554018
v 0.037166 -0.004337 -0.236557
v -21.517149 -0.004337 -0.236557
v -1.810780 -0.005633 1.716540
v -19.031708 -0.005625 1.868678
v -20.878750 -0.045413 -2.389975
v 0.183300 -0.045413 -2.389975
v -20.878750 2.127164 -2.389975
v 0.183300 2.127164 -2.389975
v -13.011494 0.065527 -2.413684
v -13.065722 0.065527 0.045207
v -13.011494 2.238103 -2.413684
v -13.065722 2.238103 0.045207
v -41.929783 -0.045413 -1.435455
v -20.867733 -0.045413 -1.435455
v -41.929783 2.127164 -1.435455
v -20.867733 2.127164 -1.435455
v -20.878750 -0.045413 -1.435455
v 0.183300 -0.045413 -1.435455
v -20.878750 2.127164 -1.435455
v 0.183300 2.127164 -1.435455
v 1.256755 -0.537041 -0.839107
v -1.752179 -0.537041 1.128998
v 1.256755 1.635536 -0.839107
v -1.752179 1.635536 1.128998
vt 0.000000 0.884354
vt 1.000000 0.884354
vt 0.000000 0.998828
vt 1.000000 0.998828
vt 0.522409 0.756203
vt 0.813763 0.756203
vt 0.813763 0.867490
vt 0.522409 0.867490
vt 0.522409 0.756203
vt 0.813763 0.756203
vt 0.813763 0.867490
vt 0.522409 0.867490
vt 0.000000 0.754949
vt 1.000000 0.754949
vt 1.000000 0.869423
vt 0.000000 0.869423
vt 0.000000 0.754949
vt 0.000000 0.869423
vt 1.000000 0.869423
vt 1.000000 0.754949
vt 0.000000 0.754949
vt 1.000000 0.754949
vt 1.000000 0.869423
vt 0.000000 0.869423
vt 0.000000 0.754949
vt 1.000000 0.754949
vt 1.000000 0.869423
vt 0.000000 0.869423
vt 0.498581 0.007891
vt 0.837592 0.007891
vt 0.837592 0.319383
vt 0.498581 0.319383
vt 0.004504 0.351618
vt 0.989798 0.351618
vt 0.989798 0.753411
vt 0.004504 0.753411
vt 0.000000 0.884354
vt 1.000000 0.884354
vt 1.000000 0.998828
vt 0.000000 0.998828
vt 0.004504 0.351618
vt 0.989798 0.351618
vt 0.989798 0.753411
vt 0.004504 0.753411
vt 0.522409 0.756203
vt 0.813763 0.756203
vt 0.813763 0.867490
vt 0.522409 0.867490
vt 0.522409 0.756203
vt 0.813763 0.756203
vt 0.813763 0.867490
vt 0.522409 0.867490
vt 0.522409 0.756203
vt 0.813763 0.756203
vt 0.813763 0.867490
vt 0.522409 0.867490
vt 0.000000 0.754949
vt 1.000000 0.754949
vt 1.000000 0.869423
vt 0.000000 0.869423
vt 0.118236 0.000690
vt 0.500008 0.000690
vt 0.500008 0.357923
vt 0.118236 0.357923
vt 0.498581 0.007891
vt 0.837592 0.007891
vt 0.837592 0.319383
vt 0.498581 0.319383
vt 0.000000 0.884354
vt 1.000000 0.884354
vt 1.000000 0.998828
vt 0.000000 0.998828
vt 0.498581 0.007891
vt 0.837592 0.007891
vt 0.837592 0.319383
vt 0.498581 0.319383
vt 0.078946 0.009197
vt 0.470925 0.009197
vt 0.470925 0.369357
vt 0.078946 0.369357
vt 0.000000 0.754949
vt 1.000000 0.754949
vt 1.000000 0.869423
vt 0.000000 0.869423
vt 0.000000 0.884354
vt 1.000000 0.884354
vt 1.000000 0.998828
vt 0.000000 0.998828
vt 0.000000 0.884354
vt 1.000000 0.884354
vt 1.000000 0.998828
vt 0.000000 0.998828
vt 0.000000 0.754949
vt 1.000000 0.754949
vt 1.000000 0.869423
vt 0.000000 0.869423
vt 0.522409 0.756203
vt 0.813763 0.756203
vt 0.813763 0.867490
vt 0.522409 0.867490
vt 0.000000 0.754949
vt 1.000000 0.754949
vt 1.000000 0.869423
vt 0.000000 0.869423
vt 0.000000 0.754949
vt 1.000000 0.754949
vt 1.000000 0.869423
vt 0.000000 0.869423
vt 0.498581 0.007891
vt 0.837592 0.007891
vt 0.837592 0.319383
vt 0.498581 0.319383
vn 0.000000 1.000000 0.000411
vn -0.000002 1.000000 0.000396
vn -0.000008 1.000000 0.000346
vn -0.000008 1.000000 0.000344
vn 0.831615 0.000000 0.555353
vn 0.831615 0.000000 0.555353
vn 0.831615 0.000000 0.555353
vn 0.831615 0.000000 0.555353
vn -0.002612 0.000000 0.999997
vn -0.002612 0.000000 0.999997
vn -0.002612 0.000000 0.999997
vn -0.002612 0.000000 0.999997
vn 0.999446 0.000000 -0.033282
vn 0.999446 0.000000 -0.033282
vn 0.999446 0.000000 -0.033282
vn 0.999446 0.000000 -0.033282
vn 0.000000 0.000000 1.000000
vn 0.000000 0.000000 1.000000
vn 0.000000 0.000000 1.000000
vn 0.000000 0.000000 1.000000
vn 0.000000 0.000000 1.000000
vn 0.000000 0.000000 1.000000
vn 0.000000 0.000000 1.000000
vn 0.000000 0.000000 1.000000
vn 0.000000 0.000000 1.000000
vn 0.000000 0.000000 1.000000
vn 0.000000 0.000000 1.000000
vn 0.000000 0.000000 1.000000
vn 0.547390 0.000000 0.836877
vn 0.547390 0.000000 0.836877
vn 0.547390 0.000000 0.836877
vn 0.547390 0.000000 0.836877
vn 0.000000 0.000000 1.000000
vn 0.000000 0.000000 1.000000
vn 0.000000 0.000000 1.000000
vn 0.000000 0.000000 1.000000
vn 0.000000 1.000000 0.000696
vn -0.000000 1.000000 0.000692
vn -0.000002 1.000000 0.000666
vn -0.000002 1.000000 0.000665
vn 0.428688 0.000000 0.903453
vn 0.428688 0.000000 0.903453
vn 0.428688 0.000000 0.903453
vn 0.428688 0.000000 0.903453
vn -0.002612 0.000000 0.999997
vn -0.002612 0.000000 0.999997
vn -0.002612 0.000000 0.999997
vn -0.002612 0.000000 0.999997
vn 0.831615 0.000000 0.555353
vn 0.831615 0.000000 0.555353
vn 0.831615 0.000000 0.555353
vn 0.831615 0.000000 0.555353
vn 0.521433 -0.000000 0.853292
vn 0.521433 -0.000000 0.853292
vn 0.521433 -0.000000 0.853292
vn 0.521433 0.000000 0.853292
vn 0.000000 0.000000 1.000000
vn 0.000000 0.000000 1.000000
vn 0.000000 0.000000 1.000000
vn 0.000000 0.000000 1.000000
vn 0.000000 0.000000 1.000000
vn 0.000000 0.000000 1.000000
vn 0.000000 0.000000 1.000000
vn 0.000000 0.000000 1.000000
vn 0.000000 0.000000 1.000000
vn 0.000000 0.000000 1.000000
vn 0.000000 0.000000 1.000000
vn 0.000000 0.000000 1.000000
vn 0.000000 1.000000 0.000336
vn 0.000000 1.000000 0.000336
vn 0.000000 1.000000 0.000336
vn 0.000000 1.000000 0.000336
vn 0.000000 0.000000 1.000000
vn 0.000000 0.000000 1.000000
vn 0.000000 0.000000 1.000000
vn 0.000000 0.000000 1.000000
vn 0.000000 0.000000 1.000000
vn 0.000000 0.000000 1.000000
vn 0.000000 0.000000 1.000000
vn 0.000000 0.000000 1.000000
vn 0.000000 0.000000 1.000000
vn 0.000000 0.000000 1.000000
vn 0.000000 0.000000 1.000000
vn 0.000000 0.000000 1.000000
vn 0.000002 -1.000000 -0.000651
vn 0.000008 -1.000000 -0.000591
vn 0.000002 -1.000000 -0.000648
vn 0.000009 -1.000000 -0.000582
vn 0.000000 1.000000 0.000612
vn 0.000000 1.000000 0.000613
vn 0.000005 1.000000 0.000659
vn 0.000006 1.000000 0.000669
vn 0.000000 0.000000 1.000000
vn 0.000000 0.000000 1.000000
vn 0.000000 0.000000 1.000000
vn 0.000000 0.000000 1.000000
vn 0.999757 0.000000 0.022048
vn 0.999757 0.000000 0.022048
vn 0.999757 0.000000 0.022048
vn 0.999757 0.000000 0.022048
vn 0.000000 0.000000 1.000000
vn 0.000000 0.000000 1.000000
vn 0.000000 0.000000 1.000000
vn 0.000000 0.000000 1.000000
vn 0.000000 0.000000 1.000000
vn 0.000000 0.000000 1.000000
vn 0.000000 0.000000 1.000000
vn 0.000000 0.000000 1.000000
vn 0.547391 0.000000 0.836877
vn 0.547391 0.000000 0.836877
vn 0.547391 0.000000 0.836877
vn 0.547391 0.000000 0.836877
s 1
g pPlane37
usemtl lambert2SG
f 1/1/1 3/3/2 2/2/3
f 2/2/3 3/3/2 4/4/4
s 2
f 5/5/5 7/8/6 6/6/7
f 7/8/6 8/7/8 6/6/7
s 3
f 9/9/9 11/12/10 10/10/11
f 11/12/10 12/11/12 10/10/11
s 4
f 13/13/13 15/16/14 14/14/15
f 15/16/14 16/15/16 14/14/15
s 5
f 17/17/17 18/20/18 19/18/19
f 18/20/18 20/19/20 19/18/19
s 6
f 21/21/21 23/24/22 22/22/23
f 23/24/22 24/23/24 22/22/23
s 7
f 25/25/25 26/26/26 27/28/27
f 26/26/26 28/27/28 27/28/27
s 8
f 29/29/29 31/32/30 30/30/31
f 31/32/30 32/31/32 30/30/31
s 9
f 33/33/33 35/36/34 34/34/35
f 35/36/34 36/35/36 34/34/35
s 10
f 38/38/37 40/39/38 37/37/39
f 37/37/39 40/39/38 39/40/40
s 11
f 41/41/41 43/44/42 42/42/43
f 43/44/42 44/43/44 42/42/43
s 12
f 45/45/45 47/48/46 46/46/47
f 47/48/46 48/47/48 46/46/47
s 13
f 49/49/49 51/52/50 50/50/51
f 51/52/50 52/51/52 50/50/51
s 14
f 53/53/53 55/56/54 54/54/55
f 55/56/54 56/55/56 54/54/55
s 15
f 57/57/57 59/60/58 58/58/59
f 59/60/58 60/59/60 58/58/59
s 16
f 61/61/61 63/64/62 62/62/63
f 63/64/62 64/63/64 62/62/63
s 17
f 65/65/65 67/68/66 66/66/67
f 67/68/66 68/67/68 66/66/67
s 18
f 69/69/69 71/72/70 70/70/71
f 70/70/71 71/72/70 72/71/72
s 19
f 73/73/73 74/74/74 75/76/75
f 74/74/74 76/75/76 75/76/75
s 20
f 77/77/77 79/80/78 78/78/79
f 79/80/78 80/79/80 78/78/79
s 21
f 81/81/81 83/84/82 82/82/83
f 83/84/82 84/83/84 82/82/83
s 22
f 86/86/85 85/85/86 88/87/87
f 85/85/86 87/88/88 88/87/87
s 23
f 90/90/89 92/91/90 89/89/91
f 89/89/91 92/91/90 91/92/92
s 24
f 93/93/93 94/94/94 95/96/95
f 94/94/94 96/95/96 95/96/95
s 25
f 97/97/97 99/100/98 98/98/99
f 99/100/98 100/99/100 98/98/99
s 26
f 101/101/101 102/102/102 103/104/103
f 102/102/102 104/103/104 103/104/103
s 27
f 105/105/105 106/106/106 107/108/107
f 106/106/106 108/107/108 107/108/107
s 28
f 109/109/109 111/112/110 110/110/111
f 111/112/110 112/111/112 110/110/111
