# This file uses meters as units for non-parametric coordinates.

mtllib toilet.mtl
g default
v 3.050048 3.619800 0.859311
v 3.100334 3.615619 0.859311
v 2.802482 0.642616 0.761548
v 2.852767 0.638435 0.761548
v 2.802482 0.642616 -0.481011
v 2.852767 0.638435 -0.481011
v 3.050048 3.619800 -0.578773
v 3.100334 3.615619 -0.578773
v 1.560457 0.653740 0.782904
v 2.887185 0.653740 0.782904
v 1.310752 3.611867 0.961587
v 3.136890 3.810171 0.961587
v 1.310752 3.611867 -0.679526
v 3.136890 3.810171 -0.679526
v 1.560457 0.653740 -0.500843
v 2.887185 0.653740 -0.500843
v 1.310752 3.764261 0.961587
v 3.136890 3.962564 0.961587
v 3.136890 3.962564 -0.679526
v 1.310752 3.764261 -0.679526
v 1.260752 3.611867 1.011586
v 3.340192 3.810171 1.011586
v 3.340192 3.962564 1.011586
v 1.260752 3.764261 1.011586
v 3.340192 3.810171 -0.729525
v 3.340192 3.962564 -0.729525
v 1.260752 3.611867 -0.729525
v 1.260752 3.764261 -0.729525
v 2.902173 0.761089 -0.423789
v 2.902173 0.761089 0.705850
v 3.121902 3.538604 -0.581021
v 3.121902 3.538604 0.863083
v 1.746525 0.761089 -0.423789
v 1.746525 0.761089 0.705850
v 1.966253 3.538604 -0.581021
v 1.966253 3.538604 0.863083
v 1.310752 3.737397 0.961587
v 3.136890 3.935701 0.961587
v 3.136890 3.935701 -0.679526
v 1.310752 3.737397 -0.679526
vt 0.691578 0.333689
vt 0.702470 0.001992
vt 0.840907 0.001992
vt 0.851799 0.333689
vt 0.801794 0.669234
vt 0.812686 0.337537
vt 0.951123 0.337537
vt 0.962015 0.669234
vt 0.463751 0.357507
vt 0.589607 0.357507
vt 0.607125 0.666958
vt 0.446233 0.666958
vt 0.632946 0.338003
vt 0.775973 0.338003
vt 0.795880 0.667576
vt 0.613039 0.667576
vt 0.657762 0.865406
vt 0.657762 0.671424
vt 0.674741 0.671424
vt 0.674741 0.865406
vt 0.682185 0.865406
vt 0.682185 0.671424
vt 0.699163 0.671424
vt 0.699163 0.865406
vt 0.442836 0.001992
vt 0.585863 0.001992
vt 0.577278 0.013952
vt 0.451421 0.013952
vt 0.605770 0.353660
vt 0.594795 0.323404
vt 0.422929 0.353660
vt 0.433904 0.323404
vt 0.709600 0.671424
vt 0.709600 0.854265
vt 0.706607 0.854265
vt 0.706607 0.671424
vt 0.718994 0.671424
vt 0.718994 0.854265
vt 0.716001 0.854265
vt 0.716001 0.671424
vt 0.807473 0.976258
vt 0.807473 0.837821
vt 0.813075 0.837821
vt 0.813075 0.976258
vt 0.860658 0.833302
vt 0.860658 0.673081
vt 0.866260 0.673081
vt 0.866260 0.833302
vt 0.404142 0.874261
vt 0.404142 0.670806
vt 0.586984 0.670806
vt 0.586984 0.874261
vt 0.818989 0.985635
vt 0.818989 0.837821
vt 0.962015 0.837821
vt 0.962015 0.985635
vt 0.391537 0.896912
vt 0.391537 0.693457
vt 0.397108 0.670806
vt 0.397108 0.902483
vt 0.208696 0.693457
vt 0.203125 0.670806
vt 0.208696 0.896912
vt 0.203125 0.902483
vt 0.007491 0.693457
vt 0.007491 0.896912
vt 0.001920 0.902483
vt 0.001920 0.670806
vt 0.190332 0.896912
vt 0.195903 0.902483
vt 0.190332 0.693457
vt 0.195903 0.670806
vt 0.675702 0.869254
vt 0.801559 0.869254
vt 0.801559 0.998008
vt 0.675702 0.998008
vt 0.854148 0.673081
vt 0.854148 0.833973
vt 0.725394 0.833973
vt 0.725394 0.673081
vt 0.640256 0.334155
vt 0.612674 0.002458
vt 0.618276 0.001992
vt 0.645859 0.333689
vt 0.652126 0.333689
vt 0.679708 0.001992
vt 0.685311 0.002458
vt 0.657728 0.334155
vt 0.029741 0.001992
vt 0.177555 0.001992
vt 0.205376 0.353660
vt 0.001920 0.331566
vt 0.212519 0.024086
vt 0.415974 0.001992
vt 0.388154 0.353660
vt 0.240339 0.353660
vt 0.082949 0.589184
vt 0.105043 0.357507
vt 0.122021 0.357507
vt 0.099927 0.589184
vt 0.054941 0.357507
vt 0.077035 0.589184
vt 0.060056 0.589184
vt 0.037963 0.357507
vt 0.415838 0.357507
vt 0.440319 0.666958
vt 0.311565 0.666958
vt 0.287084 0.357507
vt 0.281170 0.357507
vt 0.256689 0.666958
vt 0.127935 0.666958
vt 0.152416 0.357507
vt 0.615981 0.874879
vt 0.593887 0.671424
vt 0.596880 0.671424
vt 0.618974 0.874879
vt 0.650911 0.671424
vt 0.628818 0.874879
vt 0.625825 0.874879
vt 0.647918 0.671424
vn -0.002705 -0.032595 0.999465
vn -0.002714 -0.032594 0.999465
vn -0.002705 -0.032595 0.999465
vn -0.002714 -0.032594 0.999465
vn -0.082869 -0.996561 -0.000000
vn -0.082869 -0.996561 -0.000000
vn -0.082869 -0.996561 -0.000000
vn -0.082869 -0.996561 -0.000000
vn -0.002711 -0.032594 -0.999465
vn -0.002735 -0.032594 -0.999465
vn -0.002711 -0.032594 -0.999465
vn -0.002735 -0.032594 -0.999465
vn 0.082869 0.996560 0.000000
vn 0.082869 0.996560 0.000000
vn 0.082869 0.996560 0.000000
vn 0.082869 0.996560 0.000000
vn 0.996561 -0.082868 0.000000
vn 0.996560 -0.082869 0.000000
vn 0.996560 -0.082868 0.000000
vn 0.996560 -0.082869 0.000000
vn -0.996561 0.082868 -0.000000
vn -0.996560 0.082869 -0.000000
vn -0.996560 0.082868 -0.000000
vn -0.996561 0.082869 -0.000000
vn 0.000000 -0.060294 0.998181
vn 0.002681 -0.058870 0.998262
vn 0.005018 -0.057629 0.998325
vn 0.006190 -0.057006 0.998355
vn -0.107957 0.994156 -0.000000
vn -0.107957 0.994155 -0.000000
vn -0.107957 0.994156 -0.000000
vn -0.107957 0.994156 -0.000000
vn 0.006190 -0.057006 -0.998355
vn 0.002681 -0.058870 -0.998262
vn 0.005017 -0.057629 -0.998325
vn 0.000000 -0.060294 -0.998181
vn 0.000000 -1.000000 0.000000
vn 0.000000 -1.000000 0.000000
vn 0.000000 -1.000000 0.000000
vn 0.000000 -1.000000 0.000000
vn 0.996886 -0.078863 0.000000
vn 0.996886 -0.078863 0.000000
vn 0.996885 -0.078863 0.000000
vn 0.996886 -0.078863 0.000000
vn -0.996456 -0.084114 -0.000000
vn -0.996456 -0.084114 -0.000000
vn -0.996456 -0.084114 -0.000000
vn -0.996456 -0.084114 -0.000000
vn 0.000001 0.000000 1.000000
vn 0.000000 0.000000 1.000000
vn 0.000001 0.000000 1.000000
vn 0.000000 0.000000 1.000000
vn 1.000000 0.000000 0.000000
vn 1.000000 0.000000 0.000000
vn 1.000000 0.000000 0.000000
vn 1.000000 0.000000 0.000000
vn 0.000000 0.000000 -1.000000
vn 0.000000 0.000000 -1.000000
vn 0.000000 0.000000 -1.000000
vn 0.000000 0.000000 -1.000000
vn -1.000000 0.000000 -0.000000
vn -1.000000 0.000000 -0.000000
vn -1.000000 0.000000 -0.000000
vn -1.000000 0.000000 -0.000000
vn 0.055371 -0.996929 0.055373
vn 0.031340 -0.991540 -0.125963
vn 0.055563 -0.997419 0.045483
vn 0.005425 -0.999742 -0.022061
vn -0.056940 0.996753 -0.056939
vn -0.057084 0.997275 -0.046725
vn -0.030209 0.992142 0.121418
vn -0.005157 0.999767 0.020970
vn 0.030210 -0.992142 0.121418
vn 0.005157 -0.999767 0.020971
vn -0.031341 0.991540 -0.125963
vn -0.005426 0.999742 -0.022061
vn 0.056939 -0.996752 -0.056944
vn 0.057083 -0.997275 -0.046729
vn -0.055370 0.996929 0.055371
vn -0.055562 0.997419 0.045482
vn 0.990393 -0.138281 0.000000
vn 0.990394 -0.138275 0.000000
vn 0.990393 -0.138281 0.000000
vn 0.990394 -0.138274 0.000000
vn 0.993522 -0.082990 -0.077628
vn 0.993522 -0.082990 -0.077628
vn 0.993522 -0.082992 -0.077629
vn 0.993522 -0.082992 -0.077629
vn 0.998480 -0.055110 0.000000
vn 0.998480 -0.055108 0.000000
vn 0.998480 -0.055110 0.000000
vn 0.998480 -0.055108 0.000000
vn 0.993522 -0.082992 0.077630
vn 0.993522 -0.082991 0.077628
vn 0.993522 -0.082992 0.077630
vn 0.993522 -0.082991 0.077628
vn 0.000000 1.000000 0.000000
vn 0.000000 1.000000 0.000000
vn 0.000000 1.000000 0.000000
vn 0.000000 1.000000 0.000000
vn 0.000000 0.056519 0.998402
vn 0.000000 0.056519 0.998402
vn 0.000000 0.056519 0.998402
vn 0.000000 0.056519 0.998402
vn 0.000000 -1.000000 0.000000
vn 0.000000 -1.000000 0.000000
vn 0.000000 -1.000000 0.000000
vn 0.000000 -1.000000 0.000000
vn 0.000000 0.056519 -0.998402
vn 0.000000 0.056519 -0.998402
vn 0.000000 0.056519 -0.998402
vn 0.000000 0.056519 -0.998402
vn 0.000000 0.000000 -1.000000
vn 0.000000 0.000000 -1.000000
vn 0.000001 0.000000 -1.000000
vn 0.000001 0.000000 -1.000000
vn -1.000000 0.000000 -0.000000
vn -1.000000 0.000000 -0.000000
vn -1.000000 0.000000 -0.000000
vn -1.000000 0.000000 -0.000000
vn -0.000002 0.000000 1.000000
vn -0.000000 0.000000 1.000000
vn -0.000002 0.000000 1.000000
vn 0.000000 0.000000 1.000000
vn 1.000000 0.000000 0.000000
vn 1.000000 0.000000 0.000000
vn 1.000000 0.000000 0.000000
vn 1.000000 0.000000 0.000000
s 1
g pCube612
usemtl initialShadingGroup
f 1/81/1 3/82/2 2/84/3
f 2/84/3 3/82/2 4/83/4
s 2
f 3/41/5 5/42/6 4/44/7
f 4/44/7 5/42/6 6/43/8
s 3
f 5/85/9 7/86/10 6/88/11
f 6/88/11 7/86/10 8/87/12
s 4
f 7/45/13 1/46/14 8/48/15
f 8/48/15 1/46/14 2/47/16
s 5
f 2/1/17 4/2/18 8/4/19
f 8/4/19 4/2/18 6/3/20
s 6
f 7/5/21 5/6/22 1/8/23
f 1/8/23 5/6/22 3/7/24
s 7
f 9/89/25 10/90/26 11/92/27
f 11/92/27 10/90/26 12/91/28
s 8
f 37/49/29 38/50/30 40/52/31
f 40/52/31 38/50/30 39/51/32
s 9
f 14/94/33 16/95/34 13/93/35
f 13/93/35 16/95/34 15/96/36
s 10
f 15/53/37 16/54/38 9/56/39
f 9/56/39 16/54/38 10/55/40
s 11
f 34/9/41 33/10/42 36/12/43
f 36/12/43 33/10/42 35/11/44
s 12
f 15/13/45 9/14/46 13/16/47
f 13/16/47 9/14/46 11/15/48
s 13
f 21/97/49 22/98/50 24/100/51
f 24/100/51 22/98/50 23/99/52
s 14
f 22/17/53 25/18/54 23/20/55
f 23/20/55 25/18/54 26/19/56
s 15
f 27/102/57 28/103/58 25/101/59
f 25/101/59 28/103/58 26/104/60
s 16
f 27/21/61 21/22/62 28/24/63
f 28/24/63 21/22/62 24/23/64
s 17
f 11/57/65 12/58/66 21/60/67
f 21/60/67 12/58/66 22/59/68
s 18
f 17/66/69 24/67/70 18/65/71
f 18/65/71 24/67/70 23/68/72
s 17
f 12/58/66 14/61/73 22/59/68
f 22/59/68 14/61/73 25/62/74
s 18
f 19/71/75 18/65/71 26/72/76
f 26/72/76 18/65/71 23/68/72
s 17
f 13/63/77 27/64/78 14/61/73
f 14/61/73 27/64/78 25/62/74
s 18
f 20/69/79 19/71/75 28/70/80
f 28/70/80 19/71/75 26/72/76
s 17
f 13/63/77 11/57/65 27/64/78
f 27/64/78 11/57/65 21/60/67
s 18
f 17/66/69 20/69/79 24/67/70
f 24/67/70 20/69/79 28/70/80
s 20
f 10/25/81 16/26/82 30/28/83
f 30/28/83 16/26/82 29/27/84
s 21
f 14/29/85 31/30/86 16/26/87
f 16/26/87 31/30/86 29/27/88
s 22
f 14/29/89 12/31/90 31/30/91
f 31/30/91 12/31/90 32/32/92
s 23
f 12/31/93 10/25/94 32/32/95
f 32/32/95 10/25/94 30/28/96
s 24
f 30/73/97 29/74/98 34/76/99
f 34/76/99 29/74/98 33/75/100
s 25
f 31/106/101 35/107/102 29/105/103
f 29/105/103 35/107/102 33/108/104
s 26
f 31/77/105 32/78/106 35/80/107
f 35/80/107 32/78/106 36/79/108
s 27
f 32/109/109 30/110/110 36/112/111
f 36/112/111 30/110/110 34/111/112
s 28
f 18/114/113 38/115/114 17/113/115
f 17/113/115 38/115/114 37/116/116
s 29
f 18/33/117 19/34/118 38/36/119
f 38/36/119 19/34/118 39/35/120
s 30
f 19/117/121 20/118/122 39/120/123
f 39/120/123 20/118/122 40/119/124
s 31
f 20/37/125 17/38/126 40/40/127
f 40/40/127 17/38/126 37/39/128
