# This file uses centimeters as units for non-parametric coordinates.

mtllib 10_Village_B_Fance2_V1.mtl
g default
v 0.055721 0.225010 0.758136
v 0.080937 0.225010 0.758136
v 0.055721 0.324518 0.758136
v 0.080937 0.324518 0.758136
v 0.055721 0.324518 -0.758136
v 0.080937 0.324518 -0.758136
v 0.055721 0.225010 -0.758136
v 0.080937 0.225010 -0.758136
v 0.044972 -0.062784 0.600019
v 0.000000 -0.062784 0.581391
v -0.044972 -0.062784 0.600019
v -0.063600 -0.062784 0.644991
v -0.044972 -0.062784 0.689962
v 0.000000 -0.062784 0.708590
v 0.044972 -0.062784 0.689962
v 0.063600 -0.062784 0.644991
v 0.054303 0.801009 0.590687
v 0.000000 0.801009 0.568194
v -0.054303 0.801009 0.590687
v -0.076797 0.801009 0.644991
v -0.054303 0.801009 0.699294
v 0.000000 0.801009 0.721787
v 0.054303 0.801009 0.699294
v 0.076797 0.801009 0.644991
v 0.000000 0.801009 0.644991
v 0.044972 -0.062784 -0.699220
v 0.000000 -0.062784 -0.717848
v -0.044972 -0.062784 -0.699220
v -0.063600 -0.062784 -0.654248
v -0.044972 -0.062784 -0.609276
v 0.000000 -0.062784 -0.590648
v 0.044972 -0.062784 -0.609276
v 0.063600 -0.062784 -0.654248
v 0.054303 0.801009 -0.708551
v 0.000000 0.801009 -0.731044
v -0.054303 0.801009 -0.708551
v -0.076797 0.801009 -0.654248
v -0.054303 0.801009 -0.599944
v 0.000000 0.801009 -0.577451
v 0.054303 0.801009 -0.599944
v 0.076797 0.801009 -0.654248
v 0.000000 0.801009 -0.654248
v 0.058810 0.529525 0.758136
v 0.089647 0.529525 0.758136
v 0.058810 0.681670 0.758136
v 0.089647 0.681670 0.758136
v 0.058810 0.681670 -0.758136
v 0.089647 0.681670 -0.758136
v 0.058810 0.529525 -0.758136
v 0.089647 0.529525 -0.758136
v 0.089647 0.650531 0.186094
v 0.058810 0.650531 0.186094
v 0.058810 0.498386 0.186094
v 0.089647 0.498386 0.186094
v 0.058810 0.648054 -0.145494
v 0.058810 0.495909 -0.145494
v 0.089647 0.495909 -0.145494
v 0.089647 0.648054 -0.145494
vt 0.044253 0.872881
vt 0.044253 0.001992
vt 0.101407 0.001992
vt 0.101407 0.872881
vt 0.108463 0.872881
vt 0.108463 0.001992
vt 0.165617 0.001992
vt 0.165617 0.872881
vt 0.522927 0.001992
vt 0.548757 0.001992
vt 0.548757 0.498121
vt 0.517568 0.498121
vt 0.574587 0.001992
vt 0.579947 0.498121
vt 0.662353 0.001992
vt 0.688183 0.001992
vt 0.688183 0.498121
vt 0.656994 0.498121
vt 0.714014 0.001992
vt 0.719373 0.498121
vt 0.801779 0.001992
vt 0.827609 0.001992
vt 0.827609 0.498121
vt 0.796419 0.498121
vt 0.853439 0.001992
vt 0.858799 0.498121
vt 0.882406 0.501879
vt 0.908237 0.501879
vt 0.908237 0.998008
vt 0.877047 0.998008
vt 0.934067 0.501879
vt 0.939426 0.998008
vt 0.239678 0.872881
vt 0.221793 0.544322
vt 0.309179 0.544322
vt 0.327064 0.872881
vt 0.220370 0.353870
vt 0.307756 0.353870
vt 0.239678 0.001992
vt 0.327064 0.001992
vt 0.335535 0.330551
vt 0.353420 0.001992
vt 0.440807 0.001992
vt 0.422921 0.330551
vt 0.334112 0.521002
vt 0.421499 0.521002
vt 0.353420 0.872881
vt 0.440807 0.872881
vt 0.001875 0.001992
vt 0.016358 0.001992
vt 0.016358 0.872881
vt 0.001875 0.872881
vt 0.022239 0.001992
vt 0.036722 0.001992
vt 0.036722 0.872881
vt 0.022239 0.872881
vt 0.858352 0.577177
vt 0.827163 0.590097
vt 0.827163 0.545988
vt 0.795973 0.577177
vt 0.871271 0.545988
vt 0.783053 0.545988
vt 0.858352 0.514798
vt 0.795973 0.514798
vt 0.827163 0.501879
vt 0.764359 0.514798
vt 0.777278 0.545988
vt 0.733169 0.545988
vt 0.764359 0.577178
vt 0.733169 0.501879
vt 0.733169 0.590097
vt 0.701979 0.514798
vt 0.701979 0.577178
vt 0.689060 0.545988
vt 0.172672 0.001992
vt 0.190384 0.001992
vt 0.190384 0.330551
vt 0.172672 0.330551
vt 0.190384 0.521002
vt 0.172672 0.521002
vt 0.190384 0.872881
vt 0.172672 0.872881
vt 0.196521 0.544322
vt 0.214233 0.544322
vt 0.214233 0.872881
vt 0.196521 0.872881
vt 0.196521 0.353870
vt 0.214233 0.353870
vt 0.196521 0.001992
vt 0.214233 0.001992
vt 0.621828 0.501879
vt 0.636311 0.501879
vt 0.636311 0.559033
vt 0.621828 0.559033
vt 0.601570 0.501878
vt 0.616053 0.501878
vt 0.616053 0.559032
vt 0.601570 0.559032
vt 0.504875 0.498122
vt 0.479044 0.498122
vt 0.479044 0.001992
vt 0.510234 0.001992
vt 0.453214 0.498122
vt 0.447855 0.001992
vt 0.592640 0.001992
vt 0.618470 0.001992
vt 0.618470 0.498121
vt 0.587281 0.498121
vt 0.644300 0.001992
vt 0.649660 0.498121
vt 0.783726 0.498122
vt 0.757896 0.498122
vt 0.757896 0.001992
vt 0.789086 0.001992
vt 0.732066 0.498122
vt 0.726707 0.001992
vt 0.871492 0.001992
vt 0.897322 0.001992
vt 0.897322 0.498121
vt 0.866132 0.498121
vt 0.923152 0.001992
vt 0.928512 0.498121
vt 0.665573 0.501879
vt 0.683285 0.501879
vt 0.683285 0.589265
vt 0.665573 0.589265
vt 0.642086 0.501878
vt 0.659798 0.501878
vt 0.659798 0.589265
vt 0.642086 0.589265
vn -0.969235 -0.245608 0.016119
vn 0.969235 -0.245608 0.016119
vn -0.969235 0.245608 0.016119
vn 0.969235 0.245608 0.016119
vn -0.969235 0.245608 -0.016119
vn 0.969235 0.245608 -0.016119
vn -0.969235 -0.245608 -0.016119
vn 0.969235 -0.245608 -0.016119
vn 0.708326 -0.015276 -0.705720
vn 0.001842 -0.015276 -0.999882
vn 0.707064 0.051789 -0.705251
vn 0.001283 0.051789 -0.998657
vn -0.705720 -0.015276 -0.708326
vn -0.705250 0.051789 -0.707065
vn -0.999882 -0.015276 -0.001844
vn -0.998657 0.051789 -0.001282
vn -0.708327 -0.015276 0.705719
vn -0.707064 0.051789 0.705251
vn -0.001842 -0.015276 0.999882
vn -0.001283 0.051789 0.998657
vn 0.705719 -0.015276 0.708327
vn 0.705251 0.051789 0.707063
vn 0.999882 -0.015276 0.001844
vn 0.998657 0.051789 0.001282
vn 0.000000 1.000000 0.000000
vn 0.708326 -0.015276 -0.705720
vn 0.001842 -0.015276 -0.999882
vn 0.707064 0.051789 -0.705251
vn 0.001283 0.051789 -0.998657
vn -0.705720 -0.015276 -0.708326
vn -0.705250 0.051789 -0.707065
vn -0.999882 -0.015276 -0.001844
vn -0.998657 0.051789 -0.001282
vn -0.708327 -0.015276 0.705719
vn -0.707064 0.051789 0.705251
vn -0.001842 -0.015276 0.999882
vn -0.001283 0.051789 0.998657
vn 0.705719 -0.015276 0.708327
vn 0.705251 0.051789 0.707063
vn 0.999882 -0.015276 0.001844
vn 0.998657 0.051789 0.001282
vn 0.000000 1.000000 0.000000
vn -0.979490 -0.191884 0.061480
vn 0.979490 -0.191884 0.061480
vn -0.977740 0.205279 0.043423
vn 0.977740 0.205279 0.043423
vn -0.980804 0.194863 -0.007249
vn 0.980804 0.194863 -0.007249
vn -0.977878 0.205367 -0.039733
vn 0.977878 0.205367 -0.039733
vn -0.979694 -0.191873 -0.058178
vn 0.979694 -0.191873 -0.058178
vn -0.979240 -0.202562 0.007536
vn 0.979240 -0.202562 0.007536
vn -0.980960 0.194106 0.006401
vn 0.980960 0.194106 0.006401
vn -0.979075 -0.203388 -0.006707
vn 0.979075 -0.203388 -0.006707
s 1
g pCube3
usemtl initialShadingGroup
f 1/91/1 2/92/2 3/94/3
f 3/94/3 2/92/2 4/93/4
f 3/49/3 4/50/4 5/52/5
f 5/52/5 4/50/4 6/51/6
f 5/95/5 6/96/6 7/98/7
f 7/98/7 6/96/6 8/97/8
f 7/53/7 8/54/8 1/56/1
f 1/56/1 8/54/8 2/55/2
f 2/1/2 8/2/8 4/4/4
f 4/4/4 8/2/8 6/3/6
f 7/5/7 1/6/1 5/8/5
f 5/8/5 1/6/1 3/7/3
s 2
f 9/99/9 10/100/10 17/102/11
f 17/102/11 10/100/10 18/101/12
f 10/100/10 11/103/13 18/101/12
f 18/101/12 11/103/13 19/104/14
f 11/9/13 12/10/15 19/12/14
f 19/12/14 12/10/15 20/11/16
f 12/10/15 13/13/17 20/11/16
f 20/11/16 13/13/17 21/14/18
f 13/105/17 14/106/19 21/108/18
f 21/108/18 14/106/19 22/107/20
f 14/106/19 15/109/21 22/107/20
f 22/107/20 15/109/21 23/110/22
f 15/15/21 16/16/23 23/18/22
f 23/18/22 16/16/23 24/17/24
f 16/16/23 9/19/9 24/17/24
f 24/17/24 9/19/9 17/20/11
f 17/57/11 18/58/12 25/59/25
f 18/58/12 19/60/14 25/59/25
f 19/60/14 20/62/16 25/59/25
f 20/62/16 21/64/18 25/59/25
f 21/64/18 22/65/20 25/59/25
f 22/65/20 23/63/22 25/59/25
f 23/63/22 24/61/24 25/59/25
f 24/61/24 17/57/11 25/59/25
s 3
f 26/111/26 27/112/27 34/114/28
f 34/114/28 27/112/27 35/113/29
f 27/112/27 28/115/30 35/113/29
f 35/113/29 28/115/30 36/116/31
f 28/21/30 29/22/32 36/24/31
f 36/24/31 29/22/32 37/23/33
f 29/22/32 30/25/34 37/23/33
f 37/23/33 30/25/34 38/26/35
f 30/117/34 31/118/36 38/120/35
f 38/120/35 31/118/36 39/119/37
f 31/118/36 32/121/38 39/119/37
f 39/119/37 32/121/38 40/122/39
f 32/27/38 33/28/40 40/30/39
f 40/30/39 33/28/40 41/29/41
f 33/28/40 26/31/26 41/29/41
f 41/29/41 26/31/26 34/32/28
f 34/66/28 35/67/29 42/68/42
f 35/67/29 36/69/31 42/68/42
f 36/69/31 37/71/33 42/68/42
f 37/71/33 38/73/35 42/68/42
f 38/73/35 39/74/37 42/68/42
f 39/74/37 40/72/39 42/68/42
f 40/72/39 41/70/41 42/68/42
f 41/70/41 34/66/28 42/68/42
s 4
f 43/123/43 44/124/44 45/126/45
f 45/126/45 44/124/44 46/125/46
f 45/75/45 46/76/46 52/78/47
f 52/78/47 46/76/46 51/77/48
f 47/127/49 48/128/50 49/130/51
f 49/130/51 48/128/50 50/129/52
f 53/83/53 54/84/54 43/86/43
f 43/86/43 54/84/54 44/85/44
f 54/34/54 51/35/48 44/33/44
f 44/33/44 51/35/48 46/36/46
f 53/41/53 43/42/43 52/44/47
f 52/44/47 43/42/43 45/43/45
f 52/78/47 51/77/48 55/80/55
f 55/80/55 51/77/48 58/79/56
f 56/45/57 53/41/53 55/46/55
f 55/46/55 53/41/53 52/44/47
f 56/87/57 57/88/58 53/83/53
f 53/83/53 57/88/58 54/84/54
f 51/35/48 54/34/54 58/38/56
f 58/38/56 54/34/54 57/37/58
f 56/45/57 55/46/55 49/47/51
f 49/47/51 55/46/55 47/48/49
f 49/89/51 50/90/52 56/87/57
f 56/87/57 50/90/52 57/88/58
f 57/37/58 50/39/52 58/38/56
f 58/38/56 50/39/52 48/40/50
f 55/80/55 58/79/56 47/82/49
f 47/82/49 58/79/56 48/81/50
