# This file uses centimeters as units for non-parametric coordinates.

mtllib 13_Village_B_Fance2_V1.mtl
g default
v -0.765597 0.189211 2.387702
v 0.028370 0.189211 1.193048
v -0.805301 0.189211 2.257696
v 0.000421 0.189211 1.063202
v -0.765597 0.189211 2.083043
v -0.015837 0.189211 0.948700
v -0.566880 0.189211 2.230162
v -0.558151 0.189211 -0.596442
v -0.653897 0.189211 2.382021
v -0.669474 0.189211 -0.685763
v -0.740913 0.189211 2.312202
v -0.756491 0.189211 -0.520907
v -0.247098 0.189211 1.727025
v -0.240527 0.189211 -1.099579
v -0.312598 0.189211 1.878884
v -0.324323 0.189211 -1.188900
v -0.378098 0.189211 1.809065
v -0.389823 0.189211 -1.024044
v -0.765597 0.189211 -0.232722
v 0.028370 0.189211 -1.427377
v -0.805301 0.189211 -0.362729
v 0.000421 0.189211 -1.557223
v -0.765597 0.189211 -0.537382
v -0.015837 0.189211 -1.671724
v 0.055721 0.719691 1.323049
v 0.080937 0.719691 1.323049
v 0.055721 0.909089 1.323049
v 0.080937 0.909089 1.323049
v 0.055721 0.909089 -1.748296
v 0.080937 0.909089 -1.748296
v 0.055721 0.719691 -1.748296
v 0.080937 0.719691 -1.748296
v 0.044972 0.171921 1.002769
v 0.000000 0.171921 0.965036
v -0.044972 0.171921 1.002769
v -0.063600 0.171921 1.093864
v -0.044972 0.171921 1.184957
v 0.000000 0.171921 1.222689
v 0.044972 0.171921 1.184957
v 0.063600 0.171921 1.093864
v 0.054303 1.816014 0.983866
v 0.000000 1.816014 0.938304
v -0.054303 1.816014 0.983866
v -0.076797 1.816014 1.093864
v -0.054303 1.816014 1.203859
v 0.000000 1.816014 1.249421
v 0.054303 1.816014 1.203859
v 0.076797 1.816014 1.093864
v 0.000000 1.816014 1.093864
v 0.044972 0.171921 -1.628956
v 0.000000 0.171921 -1.666689
v -0.044972 0.171921 -1.628956
v -0.063600 0.171921 -1.537861
v -0.044972 0.171921 -1.446766
v 0.000000 0.171921 -1.409034
v 0.044972 0.171921 -1.446766
v 0.063600 0.171921 -1.537861
v 0.054303 1.816014 -1.647857
v 0.000000 1.816014 -1.693418
v -0.054303 1.816014 -1.647857
v -0.076797 1.816014 -1.537861
v -0.054303 1.816014 -1.427864
v 0.000000 1.816014 -1.382302
v 0.054303 1.816014 -1.427864
v 0.076797 1.816014 -1.537861
v 0.000000 1.816014 -1.537861
v 0.058810 1.299287 1.323049
v 0.089647 1.299287 1.323049
v 0.058810 1.588871 1.323049
v 0.089647 1.588871 1.323049
v 0.058810 1.588871 -1.748296
v 0.089647 1.588871 -1.748296
v 0.058810 1.299287 -1.748296
v 0.089647 1.299287 -1.748296
v 0.089647 1.529603 0.164327
v 0.058810 1.529603 0.164327
v 0.058810 1.240019 0.164327
v 0.089647 1.240019 0.164327
v 0.058810 1.524888 -0.507334
v 0.058810 1.235305 -0.507334
v 0.089647 1.235305 -0.507334
v 0.089647 1.524888 -0.507334
vt 0.542455 0.592310
vt 0.556564 0.596670
vt 0.541749 0.592784
vt 0.556067 0.597144
vt 0.542455 0.593422
vt 0.555779 0.597562
vt 0.546141 0.603201
vt 0.544163 0.603527
vt 0.545986 0.592885
vt 0.544440 0.592331
vt 0.542616 0.602925
vt 0.542893 0.592586
vt 0.551786 0.605037
vt 0.550296 0.605363
vt 0.551669 0.594721
vt 0.550505 0.594167
vt 0.549133 0.604761
vt 0.549341 0.594422
vt 0.542455 0.601873
vt 0.556564 0.606233
vt 0.541749 0.602348
vt 0.556067 0.606707
vt 0.542455 0.602985
vt 0.555779 0.607125
vt 0.621828 0.501879
vt 0.636311 0.501879
vt 0.621828 0.559033
vt 0.636311 0.559033
vt 0.001875 0.001992
vt 0.016358 0.001992
vt 0.001875 0.872881
vt 0.016358 0.872881
vt 0.601570 0.501878
vt 0.616053 0.501878
vt 0.601570 0.559032
vt 0.616053 0.559032
vt 0.022239 0.001992
vt 0.036722 0.001992
vt 0.022239 0.872881
vt 0.036722 0.872881
vt 0.044253 0.872881
vt 0.044253 0.001992
vt 0.101407 0.872881
vt 0.101407 0.001992
vt 0.108463 0.872881
vt 0.108463 0.001992
vt 0.165617 0.872881
vt 0.165617 0.001992
vt 0.504875 0.498122
vt 0.479044 0.498122
vt 0.510234 0.001992
vt 0.479044 0.001992
vt 0.453214 0.498122
vt 0.447855 0.001992
vt 0.522927 0.001992
vt 0.548757 0.001992
vt 0.517568 0.498121
vt 0.548757 0.498121
vt 0.574587 0.001992
vt 0.579947 0.498121
vt 0.592640 0.001992
vt 0.618470 0.001992
vt 0.587281 0.498121
vt 0.618470 0.498121
vt 0.644300 0.001992
vt 0.649660 0.498121
vt 0.662353 0.001992
vt 0.688183 0.001992
vt 0.656994 0.498121
vt 0.688183 0.498121
vt 0.714014 0.001992
vt 0.719373 0.498121
vt 0.858352 0.577177
vt 0.827163 0.590097
vt 0.827163 0.545988
vt 0.795973 0.577177
vt 0.783053 0.545988
vt 0.795973 0.514798
vt 0.827163 0.501879
vt 0.858352 0.514798
vt 0.871271 0.545988
vt 0.783726 0.498122
vt 0.757896 0.498122
vt 0.789086 0.001992
vt 0.757896 0.001992
vt 0.732066 0.498122
vt 0.726707 0.001992
vt 0.801779 0.001992
vt 0.827609 0.001992
vt 0.796419 0.498121
vt 0.827609 0.498121
vt 0.853439 0.001992
vt 0.858799 0.498121
vt 0.871492 0.001992
vt 0.897322 0.001992
vt 0.866132 0.498121
vt 0.897322 0.498121
vt 0.923152 0.001992
vt 0.928512 0.498121
vt 0.882406 0.501879
vt 0.908237 0.501879
vt 0.877047 0.998008
vt 0.908237 0.998008
vt 0.934067 0.501879
vt 0.939426 0.998008
vt 0.764359 0.514798
vt 0.777278 0.545988
vt 0.733169 0.545988
vt 0.764359 0.577178
vt 0.733169 0.590097
vt 0.701979 0.577178
vt 0.689060 0.545988
vt 0.701979 0.514798
vt 0.733169 0.501879
vt 0.665573 0.501879
vt 0.683285 0.501879
vt 0.665573 0.589265
vt 0.683285 0.589265
vt 0.172672 0.001992
vt 0.190384 0.001992
vt 0.172672 0.330551
vt 0.190384 0.330551
vt 0.642086 0.501878
vt 0.659798 0.501878
vt 0.642086 0.589265
vt 0.659798 0.589265
vt 0.196521 0.544322
vt 0.214233 0.544322
vt 0.196521 0.872881
vt 0.214233 0.872881
vt 0.221793 0.544322
vt 0.309179 0.544322
vt 0.239678 0.872881
vt 0.327064 0.872881
vt 0.335535 0.330551
vt 0.353420 0.001992
vt 0.422921 0.330551
vt 0.440807 0.001992
vt 0.172672 0.521002
vt 0.190384 0.521002
vt 0.334112 0.521002
vt 0.421499 0.521002
vt 0.196521 0.353870
vt 0.214233 0.353870
vt 0.307756 0.353870
vt 0.220370 0.353870
vt 0.353420 0.872881
vt 0.440807 0.872881
vt 0.196521 0.001992
vt 0.214233 0.001992
vt 0.239678 0.001992
vt 0.327064 0.001992
vt 0.172672 0.872881
vt 0.190384 0.872881
vn 0.000000 1.000000 0.000000
vn -0.000000 1.000000 -0.000000
vn 0.000000 1.000000 0.000000
vn 0.000000 1.000000 0.000000
vn -0.000000 1.000000 -0.000000
vn -0.000000 1.000000 -0.000000
vn 0.000000 1.000000 0.000000
vn -0.000000 1.000000 -0.000000
vn -0.000000 1.000000 -0.000000
vn -0.000000 1.000000 -0.000000
vn -0.000000 1.000000 -0.000000
vn -0.000000 1.000000 -0.000000
vn 0.000000 1.000000 0.000000
vn 0.000000 1.000000 0.000000
vn 0.000000 1.000000 0.000000
vn 0.000000 1.000000 0.000000
vn 0.000000 1.000000 0.000000
vn 0.000000 1.000000 0.000000
vn 0.000000 1.000000 0.000000
vn 0.000000 1.000000 0.000000
vn 0.000000 1.000000 0.000000
vn 0.000000 1.000000 0.000000
vn 0.000000 1.000000 0.000000
vn 0.000000 1.000000 0.000000
vn 0.000000 1.000000 0.000000
vn 0.000000 1.000000 0.000000
vn 0.000000 1.000000 0.000000
vn 0.000000 1.000000 0.000000
vn 0.000000 1.000000 0.000000
vn 0.000000 1.000000 0.000000
vn 0.000000 1.000000 0.000000
vn 0.000000 1.000000 0.000000
vn 0.000000 1.000000 0.000000
vn 0.000000 1.000000 0.000000
vn 0.000000 1.000000 0.000000
vn 0.000000 1.000000 0.000000
vn 0.000000 1.000000 0.000000
vn -0.000000 1.000000 -0.000000
vn 0.000000 1.000000 0.000000
vn 0.000000 1.000000 0.000000
vn -0.000000 1.000000 -0.000000
vn -0.000000 1.000000 -0.000000
vn 0.000000 1.000000 0.000000
vn -0.000000 1.000000 -0.000000
vn -0.000000 1.000000 -0.000000
vn -0.000000 1.000000 -0.000000
vn -0.000000 1.000000 -0.000000
vn -0.000000 1.000000 -0.000000
vn -0.984276 -0.176450 0.008081
vn 0.984276 -0.176450 0.008081
vn -0.984276 0.176450 0.008081
vn -0.984276 0.176450 0.008081
vn 0.984276 -0.176450 0.008081
vn 0.984276 0.176450 0.008081
vn -0.984276 0.176450 0.008081
vn 0.984276 0.176450 0.008081
vn -0.984276 0.176450 -0.008081
vn -0.984276 0.176450 -0.008081
vn 0.984276 0.176450 0.008081
vn 0.984276 0.176450 -0.008081
vn -0.984276 0.176450 -0.008081
vn 0.984276 0.176450 -0.008081
vn -0.984276 -0.176450 -0.008081
vn -0.984276 -0.176450 -0.008081
vn 0.984276 0.176450 -0.008081
vn 0.984276 -0.176450 -0.008081
vn -0.984276 -0.176450 -0.008081
vn 0.984276 -0.176450 -0.008081
vn -0.984276 -0.176450 0.008081
vn -0.984276 -0.176450 0.008081
vn 0.984276 -0.176450 -0.008081
vn 0.984276 -0.176450 0.008081
vn 0.984276 -0.176450 0.008081
vn 0.984276 -0.176450 -0.008081
vn 0.984276 0.176450 0.008081
vn 0.984276 0.176450 0.008081
vn 0.984276 -0.176450 -0.008081
vn 0.984276 0.176450 -0.008081
vn -0.984276 -0.176450 -0.008081
vn -0.984276 -0.176450 0.008081
vn -0.984276 0.176450 -0.008081
vn -0.984276 0.176450 -0.008081
vn -0.984276 -0.176450 0.008081
vn -0.984276 0.176450 0.008081
vn 0.897243 -0.013689 -0.441324
vn 0.003731 -0.021888 -0.999754
vn 0.896164 0.046436 -0.441287
vn 0.896164 0.046436 -0.441287
vn 0.003731 -0.021888 -0.999754
vn 0.002595 0.074108 -0.997247
vn 0.003731 -0.021888 -0.999754
vn -0.895948 -0.013720 -0.443948
vn 0.002595 0.074108 -0.997247
vn 0.002595 0.074108 -0.997247
vn -0.895948 -0.013720 -0.443948
vn -0.895259 0.046509 -0.443112
vn -0.895948 -0.013720 -0.443948
vn -0.999941 -0.010808 -0.000910
vn -0.895259 0.046509 -0.443112
vn -0.895259 0.046509 -0.443112
vn -0.999941 -0.010808 -0.000910
vn -0.999328 0.036662 -0.000633
vn -0.999941 -0.010808 -0.000910
vn -0.897244 -0.013689 0.441323
vn -0.999328 0.036662 -0.000633
vn -0.999328 0.036662 -0.000633
vn -0.897244 -0.013689 0.441323
vn -0.896164 0.046436 0.441287
vn -0.897244 -0.013689 0.441323
vn -0.003731 -0.021888 0.999754
vn -0.896164 0.046436 0.441287
vn -0.896164 0.046436 0.441287
vn -0.003731 -0.021888 0.999754
vn -0.002595 0.074108 0.997247
vn -0.003731 -0.021888 0.999754
vn 0.895947 -0.013720 0.443949
vn -0.002595 0.074108 0.997247
vn -0.002595 0.074108 0.997247
vn 0.895947 -0.013720 0.443949
vn 0.895260 0.046509 0.443110
vn 0.895947 -0.013720 0.443949
vn 0.999941 -0.010808 0.000910
vn 0.895260 0.046509 0.443110
vn 0.895260 0.046509 0.443110
vn 0.999941 -0.010808 0.000910
vn 0.999328 0.036662 0.000633
vn 0.999941 -0.010808 0.000910
vn 0.897243 -0.013689 -0.441324
vn 0.999328 0.036662 0.000633
vn 0.999328 0.036662 0.000633
vn 0.897243 -0.013689 -0.441324
vn 0.896164 0.046436 -0.441287
vn 0.896164 0.046436 -0.441287
vn 0.002595 0.074108 -0.997247
vn 0.000000 1.000000 0.000000
vn 0.002595 0.074108 -0.997247
vn -0.895259 0.046509 -0.443112
vn 0.000000 1.000000 0.000000
vn -0.895259 0.046509 -0.443112
vn -0.999328 0.036662 -0.000633
vn 0.000000 1.000000 0.000000
vn -0.999328 0.036662 -0.000633
vn -0.896164 0.046436 0.441287
vn 0.000000 1.000000 0.000000
vn -0.896164 0.046436 0.441287
vn -0.002595 0.074108 0.997247
vn 0.000000 1.000000 0.000000
vn -0.002595 0.074108 0.997247
vn 0.895260 0.046509 0.443110
vn 0.000000 1.000000 0.000000
vn 0.895260 0.046509 0.443110
vn 0.999328 0.036662 0.000633
vn 0.000000 1.000000 0.000000
vn 0.999328 0.036662 0.000633
vn 0.896164 0.046436 -0.441287
vn 0.000000 1.000000 0.000000
vn 0.897243 -0.013689 -0.441324
vn 0.003731 -0.021888 -0.999754
vn 0.896164 0.046436 -0.441287
vn 0.896164 0.046436 -0.441287
vn 0.003731 -0.021888 -0.999754
vn 0.002595 0.074108 -0.997247
vn 0.003731 -0.021888 -0.999754
vn -0.895948 -0.013720 -0.443948
vn 0.002595 0.074108 -0.997247
vn 0.002595 0.074108 -0.997247
vn -0.895948 -0.013720 -0.443948
vn -0.895259 0.046509 -0.443112
vn -0.895948 -0.013720 -0.443948
vn -0.999941 -0.010808 -0.000910
vn -0.895259 0.046509 -0.443112
vn -0.895259 0.046509 -0.443112
vn -0.999941 -0.010808 -0.000910
vn -0.999328 0.036662 -0.000633
vn -0.999941 -0.010808 -0.000910
vn -0.897244 -0.013689 0.441323
vn -0.999328 0.036662 -0.000633
vn -0.999328 0.036662 -0.000633
vn -0.897244 -0.013689 0.441323
vn -0.896164 0.046436 0.441287
vn -0.897244 -0.013689 0.441323
vn -0.003731 -0.021888 0.999754
vn -0.896164 0.046436 0.441287
vn -0.896164 0.046436 0.441287
vn -0.003731 -0.021888 0.999754
vn -0.002595 0.074108 0.997247
vn -0.003731 -0.021888 0.999754
vn 0.895947 -0.013720 0.443949
vn -0.002595 0.074108 0.997247
vn -0.002595 0.074108 0.997247
vn 0.895947 -0.013720 0.443949
vn 0.895260 0.046509 0.443110
vn 0.895947 -0.013720 0.443949
vn 0.999941 -0.010808 0.000910
vn 0.895260 0.046509 0.443110
vn 0.895260 0.046509 0.443110
vn 0.999941 -0.010808 0.000910
vn 0.999328 0.036662 0.000633
vn 0.999941 -0.010808 0.000910
vn 0.897243 -0.013689 -0.441324
vn 0.999328 0.036662 0.000633
vn 0.999328 0.036662 0.000633
vn 0.897243 -0.013689 -0.441324
vn 0.896164 0.046436 -0.441287
vn 0.896164 0.046436 -0.441287
vn 0.002595 0.074108 -0.997247
vn 0.000000 1.000000 0.000000
vn 0.002595 0.074108 -0.997247
vn -0.895259 0.046509 -0.443112
vn 0.000000 1.000000 0.000000
vn -0.895259 0.046509 -0.443112
vn -0.999328 0.036662 -0.000633
vn 0.000000 1.000000 0.000000
vn -0.999328 0.036662 -0.000633
vn -0.896164 0.046436 0.441287
vn 0.000000 1.000000 0.000000
vn -0.896164 0.046436 0.441287
vn -0.002595 0.074108 0.997247
vn 0.000000 1.000000 0.000000
vn -0.002595 0.074108 0.997247
vn 0.895260 0.046509 0.443110
vn 0.000000 1.000000 0.000000
vn 0.895260 0.046509 0.443110
vn 0.999328 0.036662 0.000633
vn 0.000000 1.000000 0.000000
vn 0.999328 0.036662 0.000633
vn 0.896164 0.046436 -0.441287
vn 0.000000 1.000000 0.000000
vn -0.990066 -0.137213 0.030679
vn 0.990066 -0.137213 0.030679
vn -0.988916 0.146883 0.021682
vn -0.988916 0.146883 0.021682
vn 0.990066 -0.137213 0.030679
vn 0.988916 0.146883 0.021682
vn -0.988916 0.146883 0.021682
vn 0.988916 0.146883 0.021682
vn -0.990260 0.139184 -0.003613
vn -0.990260 0.139184 -0.003613
vn 0.988916 0.146883 0.021682
vn 0.990260 0.139184 -0.003613
vn -0.988948 0.146930 -0.019838
vn 0.988948 0.146930 -0.019838
vn -0.990120 -0.137184 -0.029027
vn -0.990120 -0.137184 -0.029027
vn 0.988948 0.146930 -0.019838
vn 0.990120 -0.137184 -0.029027
vn -0.989454 -0.144796 0.003759
vn 0.989454 -0.144796 0.003759
vn -0.990066 -0.137213 0.030679
vn -0.990066 -0.137213 0.030679
vn 0.989454 -0.144796 0.003759
vn 0.990066 -0.137213 0.030679
vn 0.989454 -0.144796 0.003759
vn 0.990260 0.139184 -0.003613
vn 0.990066 -0.137213 0.030679
vn 0.990066 -0.137213 0.030679
vn 0.990260 0.139184 -0.003613
vn 0.988916 0.146883 0.021682
vn -0.989454 -0.144796 0.003759
vn -0.990066 -0.137213 0.030679
vn -0.990260 0.139184 -0.003613
vn -0.990260 0.139184 -0.003613
vn -0.990066 -0.137213 0.030679
vn -0.988916 0.146883 0.021682
vn -0.990260 0.139184 -0.003613
vn 0.990260 0.139184 -0.003613
vn -0.990339 0.138632 0.003190
vn -0.990339 0.138632 0.003190
vn 0.990260 0.139184 -0.003613
vn 0.990339 0.138632 0.003190
vn -0.989368 -0.145398 -0.003346
vn -0.989454 -0.144796 0.003759
vn -0.990339 0.138632 0.003190
vn -0.990339 0.138632 0.003190
vn -0.989454 -0.144796 0.003759
vn -0.990260 0.139184 -0.003613
vn -0.989368 -0.145398 -0.003346
vn 0.989368 -0.145398 -0.003346
vn -0.989454 -0.144796 0.003759
vn -0.989454 -0.144796 0.003759
vn 0.989368 -0.145398 -0.003346
vn 0.989454 -0.144796 0.003759
vn 0.990260 0.139184 -0.003613
vn 0.989454 -0.144796 0.003759
vn 0.990339 0.138632 0.003190
vn 0.990339 0.138632 0.003190
vn 0.989454 -0.144796 0.003759
vn 0.989368 -0.145398 -0.003346
vn -0.989368 -0.145398 -0.003346
vn -0.990339 0.138632 0.003190
vn -0.990120 -0.137184 -0.029027
vn -0.990120 -0.137184 -0.029027
vn -0.990339 0.138632 0.003190
vn -0.988948 0.146930 -0.019838
vn -0.990120 -0.137184 -0.029027
vn 0.990120 -0.137184 -0.029027
vn -0.989368 -0.145398 -0.003346
vn -0.989368 -0.145398 -0.003346
vn 0.990120 -0.137184 -0.029027
vn 0.989368 -0.145398 -0.003346
vn 0.989368 -0.145398 -0.003346
vn 0.990120 -0.137184 -0.029027
vn 0.990339 0.138632 0.003190
vn 0.990339 0.138632 0.003190
vn 0.990120 -0.137184 -0.029027
vn 0.988948 0.146930 -0.019838
vn -0.990339 0.138632 0.003190
vn 0.990339 0.138632 0.003190
vn -0.988948 0.146930 -0.019838
vn -0.988948 0.146930 -0.019838
vn 0.990339 0.138632 0.003190
vn 0.988948 0.146930 -0.019838
s off
g _Village_B_Fance1_V1:pPlane10
usemtl _Village_B_Fance1_V1:initialShadingGroup
f 1/1/1 2/2/2 3/3/3
f 3/3/4 2/2/5 4/4/6
f 3/3/7 4/4/8 5/5/9
f 5/5/10 4/4/11 6/6/12
f 8/7/13 10/8/14 7/9/15
f 7/9/16 10/8/17 9/10/18
f 10/8/19 12/11/20 9/10/21
f 9/10/22 12/11/23 11/12/24
f 14/13/25 16/14/26 13/15/27
f 13/15/28 16/14/29 15/16/30
f 16/14/31 18/17/32 15/16/33
f 15/16/34 18/17/35 17/18/36
f 19/19/37 20/20/38 21/21/39
f 21/21/40 20/20/41 22/22/42
f 21/21/43 22/22/44 23/23/45
f 23/23/46 22/22/47 24/24/48
f 25/25/49 26/26/50 27/27/51
f 27/27/52 26/26/53 28/28/54
f 27/29/55 28/30/56 29/31/57
f 29/31/58 28/30/59 30/32/60
f 29/33/61 30/34/62 31/35/63
f 31/35/64 30/34/65 32/36/66
f 31/37/67 32/38/68 25/39/69
f 25/39/70 32/38/71 26/40/72
f 26/41/73 32/42/74 28/43/75
f 28/43/76 32/42/77 30/44/78
f 31/45/79 25/46/80 29/47/81
f 29/47/82 25/46/83 27/48/84
f 33/49/85 34/50/86 41/51/87
f 41/51/88 34/50/89 42/52/90
f 34/50/91 35/53/92 42/52/93
f 42/52/94 35/53/95 43/54/96
f 35/55/97 36/56/98 43/57/99
f 43/57/100 36/56/101 44/58/102
f 36/56/103 37/59/104 44/58/105
f 44/58/106 37/59/107 45/60/108
f 37/61/109 38/62/110 45/63/111
f 45/63/112 38/62/113 46/64/114
f 38/62/115 39/65/116 46/64/117
f 46/64/118 39/65/119 47/66/120
f 39/67/121 40/68/122 47/69/123
f 47/69/124 40/68/125 48/70/126
f 40/68/127 33/71/128 48/70/129
f 48/70/130 33/71/131 41/72/132
f 41/73/133 42/74/134 49/75/135
f 42/74/136 43/76/137 49/75/138
f 43/76/139 44/77/140 49/75/141
f 44/77/142 45/78/143 49/75/144
f 45/78/145 46/79/146 49/75/147
f 46/79/148 47/80/149 49/75/150
f 47/80/151 48/81/152 49/75/153
f 48/81/154 41/73/155 49/75/156
f 50/82/157 51/83/158 58/84/159
f 58/84/160 51/83/161 59/85/162
f 51/83/163 52/86/164 59/85/165
f 59/85/166 52/86/167 60/87/168
f 52/88/169 53/89/170 60/90/171
f 60/90/172 53/89/173 61/91/174
f 53/89/175 54/92/176 61/91/177
f 61/91/178 54/92/179 62/93/180
f 54/94/181 55/95/182 62/96/183
f 62/96/184 55/95/185 63/97/186
f 55/95/187 56/98/188 63/97/189
f 63/97/190 56/98/191 64/99/192
f 56/100/193 57/101/194 64/102/195
f 64/102/196 57/101/197 65/103/198
f 57/101/199 50/104/200 65/103/201
f 65/103/202 50/104/203 58/105/204
f 58/106/205 59/107/206 66/108/207
f 59/107/208 60/109/209 66/108/210
f 60/109/211 61/110/212 66/108/213
f 61/110/214 62/111/215 66/108/216
f 62/111/217 63/112/218 66/108/219
f 63/112/220 64/113/221 66/108/222
f 64/113/223 65/114/224 66/108/225
f 65/114/226 58/106/227 66/108/228
f 67/115/229 68/116/230 69/117/231
f 69/117/232 68/116/233 70/118/234
f 69/119/235 70/120/236 76/121/237
f 76/121/238 70/120/239 75/122/240
f 71/123/241 72/124/242 73/125/243
f 73/125/244 72/124/245 74/126/246
f 77/127/247 78/128/248 67/129/249
f 67/129/250 78/128/251 68/130/252
f 78/131/253 75/132/254 68/133/255
f 68/133/256 75/132/257 70/134/258
f 77/135/259 67/136/260 76/137/261
f 76/137/262 67/136/263 69/138/264
f 76/121/265 75/122/266 79/139/267
f 79/139/268 75/122/269 82/140/270
f 80/141/271 77/135/272 79/142/273
f 79/142/274 77/135/275 76/137/276
f 80/143/277 81/144/278 77/127/279
f 77/127/280 81/144/281 78/128/282
f 75/132/283 78/131/284 82/145/285
f 82/145/286 78/131/287 81/146/288
f 80/141/289 79/142/290 73/147/291
f 73/147/292 79/142/293 71/148/294
f 73/149/295 74/150/296 80/143/297
f 80/143/298 74/150/299 81/144/300
f 81/146/301 74/151/302 82/145/303
f 82/145/304 74/151/305 72/152/306
f 79/139/307 82/140/308 71/153/309
f 71/153/310 82/140/311 72/154/312
