# This file uses centimeters as units for non-parametric coordinates.

mtllib ChoppedTreeTrunk.mtl
g default
v -0.483303 -0.010439 0.396739
v -0.083749 -0.015436 0.495885
v 0.321227 -0.015436 0.574456
v 0.511599 -0.010439 0.347081
v 0.598697 -0.006213 0.033152
v 0.568282 -0.003270 -0.344059
v 0.402709 -0.001415 -0.702138
v 0.089514 -0.001415 -0.597669
v -0.186280 -0.003270 -0.438762
v -0.379567 -0.006213 -0.010044
v -0.333468 0.327590 0.220686
v -0.094103 0.326190 0.388980
v 0.218391 0.333432 0.447262
v 0.440582 0.329433 0.269549
v 0.553220 0.332908 0.008532
v 0.501154 0.336360 -0.276535
v 0.311517 0.338063 -0.508455
v 0.058763 0.338063 -0.461875
v -0.125514 0.336360 -0.359102
v -0.293866 0.332908 -0.089930
v -0.287080 0.661824 0.111527
v -0.106600 0.696803 0.325686
v 0.141912 0.733407 0.399121
v 0.361113 0.697481 0.230988
v 0.466452 0.662303 -0.038579
v 0.419841 0.660808 -0.282329
v 0.238775 0.659857 -0.450625
v 0.036352 0.659857 -0.434947
v -0.108731 0.660808 -0.344705
v -0.276848 0.661933 -0.126740
vt 0.004237 0.473316
vt 0.006136 0.332261
vt 0.156949 0.438479
vt 0.158510 0.321198
vt 0.158746 0.518329
vt 0.007459 0.162771
vt 0.322322 0.421153
vt 0.001992 0.575481
vt 0.160062 0.193111
vt 0.306515 0.300030
vt 0.338464 0.496699
vt 0.008292 0.001878
vt 0.160827 0.088905
vt 0.305843 0.190508
vt 0.305416 0.114889
vt 0.682127 0.570456
vt 0.834501 0.606351
vt 0.683449 0.763089
vt 0.832112 0.466784
vt 0.836053 0.727296
vt 0.680228 0.387679
vt 0.982291 0.515832
vt 0.982340 0.622890
vt 0.998008 0.419605
vt 0.981834 0.720827
vt 0.831483 0.391166
vt 0.981407 0.761375
vt 0.537958 0.001878
vt 0.636450 0.077424
vt 0.426296 0.034874
vt 0.345203 0.131101
vt 0.349800 0.238159
vt 0.683781 0.198547
vt 0.425339 0.336096
vt 0.662838 0.308069
vt 0.490528 0.376644
vt 0.581481 0.383688
vt 0.337621 0.761437
vt 0.491121 0.766089
vt 0.339867 0.940966
vt 0.494376 0.625679
vt 0.491750 0.873642
vt 0.337621 0.579472
vt 0.674093 0.660043
vt 0.657646 0.771704
vt 0.331486 0.876597
vt 0.190761 0.876597
vt 0.290511 0.724061
vt 0.176943 0.724061
vt 0.094144 0.724827
vt 0.257827 0.579472
vt 0.066840 0.877430
vt 0.166874 0.579472
vn -0.204530 0.286780 0.935908
vn -0.331501 0.254124 0.908586
vn -0.770949 0.447896 0.452798
vn -0.892203 0.342145 0.294807
vn 0.263106 0.397980 0.878856
vn 0.200700 0.263640 0.943511
vn 0.813807 0.327079 0.480352
vn 0.789092 0.243534 0.563938
vn 0.978905 0.171873 0.110472
vn 0.971525 0.205628 0.117713
vn 0.932047 0.219753 -0.288093
vn 0.890822 0.266545 -0.367954
vn 0.344792 0.473243 -0.810654
vn 0.314804 0.394718 -0.863189
vn -0.344349 0.354527 -0.869330
vn -0.317444 0.216922 -0.923133
vn -0.719888 0.239036 -0.651631
vn -0.703287 0.175240 -0.688969
vn -0.934107 0.205411 -0.291977
vn -0.936338 0.125919 -0.327742
vn -0.507314 0.190358 0.840474
vn -0.948706 0.192789 0.250580
vn 0.165314 0.176902 0.970246
vn 0.762649 0.239688 0.600763
vn 0.960518 0.266995 0.078223
vn 0.849338 0.240233 -0.470013
vn 0.283839 0.207520 -0.936147
vn -0.304946 0.067704 -0.949960
vn -0.699283 0.067750 -0.711627
vn -0.929931 0.034712 -0.366092
vn -0.058200 0.958062 -0.280587
vn -0.003522 0.992594 -0.121425
vn -0.032446 0.987666 -0.153179
vn -0.048715 0.998246 -0.033631
vn -0.018702 0.999472 -0.026556
vn 0.008879 0.996913 -0.078014
vn 0.000273 0.999984 -0.005592
vn 0.000698 0.999980 -0.006364
vn 0.000873 0.999964 -0.008425
vn -0.000404 0.999986 -0.005217
s 1
g polySurface8 polySurface7
usemtl initialShadingGroup
f 2/38/1 12/39/2 1/40/3
f 1/40/3 12/39/2 11/42/4
f 3/43/5 13/41/6 2/38/1
f 2/38/1 13/41/6 12/39/2
f 3/8/5 4/1/7 13/5/6
f 13/5/6 4/1/7 14/3/8
f 4/1/7 5/2/9 14/3/8
f 14/3/8 5/2/9 15/4/10
f 5/2/9 6/6/11 15/4/10
f 15/4/10 6/6/11 16/9/12
f 6/6/11 7/12/13 16/9/12
f 16/9/12 7/12/13 17/13/14
f 7/46/13 8/47/15 17/48/14
f 17/48/14 8/47/15 18/49/16
f 9/52/17 19/50/18 8/47/15
f 8/47/15 19/50/18 18/49/16
f 10/16/19 20/17/20 9/18/17
f 9/18/17 20/17/20 19/20/18
f 1/21/3 11/19/4 10/16/19
f 10/16/19 11/19/4 20/17/20
f 12/26/2 22/24/21 11/19/4
f 11/19/4 22/24/21 21/22/22
f 13/41/6 23/44/23 12/39/2
f 12/39/2 23/44/23 22/45/21
f 14/3/8 24/7/24 13/5/6
f 13/5/6 24/7/24 23/11/23
f 14/3/8 15/4/10 24/7/24
f 24/7/24 15/4/10 25/10/25
f 15/4/10 16/9/12 25/10/25
f 25/10/25 16/9/12 26/14/26
f 16/9/12 17/13/14 26/14/26
f 26/14/26 17/13/14 27/15/27
f 17/48/14 18/49/16 27/51/27
f 27/51/27 18/49/16 28/53/28
f 18/49/16 19/50/18 28/53/28
f 28/27/28 19/20/18 29/25/29
f 20/17/20 30/23/30 19/20/18
f 19/20/18 30/23/30 29/25/29
f 11/19/4 21/22/22 20/17/20
f 20/17/20 21/22/22 30/23/30
s 5
f 23/28/31 24/29/32 22/30/33
f 22/30/33 24/29/32 21/31/34
f 21/31/34 24/29/32 30/32/35
f 24/29/32 25/33/36 30/32/35
f 30/32/35 25/33/36 29/34/37
f 25/33/36 26/35/38 29/34/37
f 29/34/37 26/35/38 28/36/39
f 26/35/38 27/37/40 28/36/39
